<mxfile host="Electron" modified="2024-07-14T13:38:08.981Z" agent="Mozilla/5.0 (Windows NT 10.0; Win64; x64) AppleWebKit/537.36 (KHTML, like Gecko) draw.io/24.5.3 Chrome/124.0.6367.207 Electron/30.0.6 Safari/537.36" etag="ApX2YE1ci_ofeXyfKiQp" version="24.5.3" type="device" pages="4">
  <diagram name="Main" id="icaWNdsZ6suSnbNPjNDe">
    <mxGraphModel dx="915" dy="1380" grid="1" gridSize="10" guides="1" tooltips="1" connect="1" arrows="1" fold="1" page="1" pageScale="1" pageWidth="1169" pageHeight="827" math="0" shadow="0">
      <root>
        <mxCell id="0" />
        <mxCell id="1" parent="0" />
        <mxCell id="9oATrExKtBssEQJZHfy2-13" style="edgeStyle=orthogonalEdgeStyle;rounded=0;orthogonalLoop=1;jettySize=auto;html=1;entryX=0;entryY=0.5;entryDx=0;entryDy=0;" parent="1" source="1JpbRREw6tEgYacLIVVX-1" target="9oATrExKtBssEQJZHfy2-2" edge="1">
          <mxGeometry relative="1" as="geometry" />
        </mxCell>
        <mxCell id="1JpbRREw6tEgYacLIVVX-1" value="HV-connection" style="rounded=0;whiteSpace=wrap;html=1;" parent="1" vertex="1">
          <mxGeometry x="546" y="274" width="120" height="40" as="geometry" />
        </mxCell>
        <mxCell id="1JpbRREw6tEgYacLIVVX-2" value="Sensing Function" style="rounded=0;whiteSpace=wrap;html=1;" parent="1" vertex="1">
          <mxGeometry x="546" y="354" width="120" height="40" as="geometry" />
        </mxCell>
        <mxCell id="1JpbRREw6tEgYacLIVVX-3" value="Secondary output" style="rounded=0;whiteSpace=wrap;html=1;" parent="1" vertex="1">
          <mxGeometry x="546" y="434" width="120" height="40" as="geometry" />
        </mxCell>
        <mxCell id="1JpbRREw6tEgYacLIVVX-4" value="Transformer" style="text;html=1;align=center;verticalAlign=middle;whiteSpace=wrap;rounded=0;" parent="1" vertex="1">
          <mxGeometry x="576" y="234" width="60" height="30" as="geometry" />
        </mxCell>
        <mxCell id="nXPibcYo81fuh-5FHP7l-25" style="edgeStyle=orthogonalEdgeStyle;rounded=0;orthogonalLoop=1;jettySize=auto;html=1;" parent="1" source="1JpbRREw6tEgYacLIVVX-16" target="nXPibcYo81fuh-5FHP7l-19" edge="1">
          <mxGeometry relative="1" as="geometry" />
        </mxCell>
        <mxCell id="1JpbRREw6tEgYacLIVVX-16" value="Earth, ground" style="rounded=1;whiteSpace=wrap;html=1;" parent="1" vertex="1">
          <mxGeometry x="420" y="607" width="80" height="20" as="geometry" />
        </mxCell>
        <mxCell id="nXPibcYo81fuh-5FHP7l-21" style="edgeStyle=orthogonalEdgeStyle;rounded=0;orthogonalLoop=1;jettySize=auto;html=1;entryX=0;entryY=0.5;entryDx=0;entryDy=0;" parent="1" source="1JpbRREw6tEgYacLIVVX-17" target="1JpbRREw6tEgYacLIVVX-1" edge="1">
          <mxGeometry relative="1" as="geometry" />
        </mxCell>
        <mxCell id="1JpbRREw6tEgYacLIVVX-17" value="High voltage" style="rounded=1;whiteSpace=wrap;html=1;dashed=1;" parent="1" vertex="1">
          <mxGeometry x="420" y="284" width="80" height="20" as="geometry" />
        </mxCell>
        <mxCell id="1JpbRREw6tEgYacLIVVX-18" value="" style="endArrow=classic;startArrow=classic;html=1;rounded=0;entryX=0.5;entryY=1;entryDx=0;entryDy=0;exitX=0.5;exitY=0;exitDx=0;exitDy=0;" parent="1" source="1JpbRREw6tEgYacLIVVX-2" target="1JpbRREw6tEgYacLIVVX-1" edge="1">
          <mxGeometry width="50" height="50" relative="1" as="geometry">
            <mxPoint x="614" y="354" as="sourcePoint" />
            <mxPoint x="664" y="304" as="targetPoint" />
          </mxGeometry>
        </mxCell>
        <mxCell id="1JpbRREw6tEgYacLIVVX-19" value="" style="endArrow=classic;startArrow=classic;html=1;rounded=0;entryX=0.5;entryY=1;entryDx=0;entryDy=0;" parent="1" edge="1">
          <mxGeometry width="50" height="50" relative="1" as="geometry">
            <mxPoint x="605.71" y="434" as="sourcePoint" />
            <mxPoint x="605.71" y="394" as="targetPoint" />
          </mxGeometry>
        </mxCell>
        <mxCell id="nXPibcYo81fuh-5FHP7l-14" style="edgeStyle=orthogonalEdgeStyle;rounded=0;orthogonalLoop=1;jettySize=auto;html=1;" parent="1" edge="1">
          <mxGeometry relative="1" as="geometry">
            <mxPoint x="703" y="617" as="targetPoint" />
            <mxPoint x="703" y="576" as="sourcePoint" />
          </mxGeometry>
        </mxCell>
        <mxCell id="BdLatCg9BbqUcsyY0hFM-1" style="edgeStyle=orthogonalEdgeStyle;rounded=0;orthogonalLoop=1;jettySize=auto;html=1;entryX=0.5;entryY=1;entryDx=0;entryDy=0;" parent="1" target="BdLatCg9BbqUcsyY0hFM-3" edge="1">
          <mxGeometry relative="1" as="geometry">
            <mxPoint x="961.7500000000001" y="480.25" as="targetPoint" />
            <mxPoint x="733" y="561" as="sourcePoint" />
          </mxGeometry>
        </mxCell>
        <mxCell id="1JpbRREw6tEgYacLIVVX-33" value="UI" style="whiteSpace=wrap;html=1;aspect=fixed;strokeColor=#00FF00;" parent="1" vertex="1">
          <mxGeometry x="1000" y="416" width="53" height="53" as="geometry" />
        </mxCell>
        <mxCell id="9oATrExKtBssEQJZHfy2-18" style="edgeStyle=orthogonalEdgeStyle;rounded=0;orthogonalLoop=1;jettySize=auto;html=1;entryX=0.5;entryY=0;entryDx=0;entryDy=0;" parent="1" source="9oATrExKtBssEQJZHfy2-2" target="BdLatCg9BbqUcsyY0hFM-3" edge="1">
          <mxGeometry relative="1" as="geometry">
            <mxPoint x="924.7499999999999" y="339.25" as="targetPoint" />
          </mxGeometry>
        </mxCell>
        <mxCell id="9oATrExKtBssEQJZHfy2-2" value="Thermocouples" style="rounded=1;whiteSpace=wrap;html=1;strokeColor=#00FF00;" parent="1" vertex="1">
          <mxGeometry x="703" y="282.5" width="93" height="23" as="geometry" />
        </mxCell>
        <mxCell id="9oATrExKtBssEQJZHfy2-7" value="Uart" style="rounded=1;whiteSpace=wrap;html=1;strokeColor=#00FFFF;" parent="1" vertex="1">
          <mxGeometry x="885" y="430.5" width="56" height="24" as="geometry" />
        </mxCell>
        <mxCell id="nXPibcYo81fuh-5FHP7l-6" style="edgeStyle=orthogonalEdgeStyle;rounded=0;orthogonalLoop=1;jettySize=auto;html=1;entryX=0;entryY=0.5;entryDx=0;entryDy=0;dashed=1;" parent="1" target="1JpbRREw6tEgYacLIVVX-33" edge="1">
          <mxGeometry relative="1" as="geometry">
            <mxPoint x="940.9999999999998" y="442.54166666666674" as="sourcePoint" />
          </mxGeometry>
        </mxCell>
        <mxCell id="9oATrExKtBssEQJZHfy2-22" value="" style="endArrow=none;html=1;rounded=0;" parent="1" edge="1">
          <mxGeometry width="50" height="50" relative="1" as="geometry">
            <mxPoint x="673" y="303.25" as="sourcePoint" />
            <mxPoint x="689" y="284.75" as="targetPoint" />
          </mxGeometry>
        </mxCell>
        <mxCell id="9oATrExKtBssEQJZHfy2-23" value="4" style="text;html=1;align=center;verticalAlign=middle;resizable=0;points=[];autosize=1;strokeColor=none;fillColor=none;" parent="1" vertex="1">
          <mxGeometry x="660" y="264" width="30" height="30" as="geometry" />
        </mxCell>
        <mxCell id="nXPibcYo81fuh-5FHP7l-5" value="&lt;h1&gt;Legend&lt;/h1&gt;&lt;p&gt;&lt;font color=&quot;#00ff00&quot;&gt;&lt;b&gt;Must have&lt;/b&gt;&lt;/font&gt;&lt;/p&gt;&lt;p&gt;&lt;font color=&quot;#00ffff&quot;&gt;&lt;b&gt;Should have&lt;/b&gt;&lt;/font&gt;&lt;/p&gt;&lt;p&gt;&lt;b style=&quot;&quot;&gt;&lt;font color=&quot;#ffff00&quot;&gt;Could have&lt;/font&gt;&lt;/b&gt;&lt;/p&gt;" style="text;html=1;strokeColor=none;fillColor=none;spacing=5;spacingTop=-20;whiteSpace=wrap;overflow=hidden;rounded=0;" parent="1" vertex="1">
          <mxGeometry x="420" y="80" width="100" height="140" as="geometry" />
        </mxCell>
        <mxCell id="nXPibcYo81fuh-5FHP7l-8" value="Low voltage" style="rounded=1;whiteSpace=wrap;html=1;dashed=1;" parent="1" vertex="1">
          <mxGeometry x="420" y="444" width="80" height="20" as="geometry" />
        </mxCell>
        <mxCell id="nXPibcYo81fuh-5FHP7l-9" value="" style="shape=cylinder3;whiteSpace=wrap;html=1;boundedLbl=1;backgroundOutline=1;size=15;" parent="1" vertex="1">
          <mxGeometry x="576" y="501" width="60" height="80" as="geometry" />
        </mxCell>
        <mxCell id="nXPibcYo81fuh-5FHP7l-11" style="edgeStyle=orthogonalEdgeStyle;rounded=0;orthogonalLoop=1;jettySize=auto;html=1;entryX=0;entryY=0.5;entryDx=0;entryDy=0;" parent="1" source="nXPibcYo81fuh-5FHP7l-10" edge="1">
          <mxGeometry relative="1" as="geometry">
            <mxPoint x="673" y="561" as="targetPoint" />
          </mxGeometry>
        </mxCell>
        <mxCell id="nXPibcYo81fuh-5FHP7l-10" value="00000" style="rounded=0;whiteSpace=wrap;html=1;" parent="1" vertex="1">
          <mxGeometry x="586" y="551" width="40" height="20" as="geometry" />
        </mxCell>
        <mxCell id="nXPibcYo81fuh-5FHP7l-12" style="edgeStyle=orthogonalEdgeStyle;rounded=0;orthogonalLoop=1;jettySize=auto;html=1;entryX=0.5;entryY=0;entryDx=0;entryDy=0;entryPerimeter=0;" parent="1" source="1JpbRREw6tEgYacLIVVX-3" target="nXPibcYo81fuh-5FHP7l-9" edge="1">
          <mxGeometry relative="1" as="geometry" />
        </mxCell>
        <mxCell id="nXPibcYo81fuh-5FHP7l-19" value="" style="triangle;whiteSpace=wrap;html=1;rotation=90;" parent="1" vertex="1">
          <mxGeometry x="733" y="640" width="25" height="30" as="geometry" />
        </mxCell>
        <mxCell id="nXPibcYo81fuh-5FHP7l-22" value="70-180kV" style="text;html=1;align=center;verticalAlign=middle;whiteSpace=wrap;rounded=0;" parent="1" vertex="1">
          <mxGeometry x="430" y="244" width="60" height="30" as="geometry" />
        </mxCell>
        <mxCell id="BdLatCg9BbqUcsyY0hFM-2" value="SPI" style="rounded=1;whiteSpace=wrap;html=1;strokeColor=#00FF00;" parent="1" vertex="1">
          <mxGeometry x="885" y="397" width="56" height="24" as="geometry" />
        </mxCell>
        <mxCell id="BdLatCg9BbqUcsyY0hFM-3" value="" style="whiteSpace=wrap;html=1;aspect=fixed;fillColor=none;" parent="1" vertex="1">
          <mxGeometry x="855" y="367" width="120" height="120" as="geometry" />
        </mxCell>
        <mxCell id="BdLatCg9BbqUcsyY0hFM-4" value="STM32F4" style="text;html=1;align=center;verticalAlign=middle;whiteSpace=wrap;rounded=0;" parent="1" vertex="1">
          <mxGeometry x="885" y="457" width="60" height="30" as="geometry" />
        </mxCell>
        <mxCell id="kBjZPdsEtZqQsk2jcfXA-1" value="ADC" style="rounded=1;whiteSpace=wrap;html=1;strokeColor=#00FF00;" parent="1" vertex="1">
          <mxGeometry x="810" y="282.5" width="93" height="23" as="geometry" />
        </mxCell>
        <mxCell id="8dxnqMXUy1nN5bHWlTAt-1" value="0 power consumption" style="text;html=1;align=center;verticalAlign=middle;resizable=0;points=[];autosize=1;strokeColor=none;fillColor=none;" parent="1" vertex="1">
          <mxGeometry x="652" y="526" width="140" height="30" as="geometry" />
        </mxCell>
      </root>
    </mxGraphModel>
  </diagram>
  <diagram id="xkafgQ1l26xYQeOJRVFB" name="Signal processing">
    <mxGraphModel dx="778" dy="1173" grid="1" gridSize="10" guides="1" tooltips="1" connect="1" arrows="1" fold="1" page="1" pageScale="1" pageWidth="1169" pageHeight="827" math="0" shadow="0">
      <root>
        <mxCell id="0" />
        <mxCell id="1" parent="0" />
        <mxCell id="zzq129CO2og8Jjxutfad-1" value="#" style="whiteSpace=wrap;html=1;aspect=fixed;" parent="1" vertex="1">
          <mxGeometry x="480" y="122" width="140" height="140" as="geometry" />
        </mxCell>
        <mxCell id="zzq129CO2og8Jjxutfad-4" value="UART" style="text;html=1;align=center;verticalAlign=middle;resizable=0;points=[];autosize=1;" parent="1" vertex="1">
          <mxGeometry x="515" y="102" width="50" height="20" as="geometry" />
        </mxCell>
        <mxCell id="zzq129CO2og8Jjxutfad-5" value="ReceiveBufferFull" style="endArrow=classic;html=1;exitX=1.007;exitY=0.307;exitDx=0;exitDy=0;exitPerimeter=0;" parent="1" source="zzq129CO2og8Jjxutfad-1" edge="1">
          <mxGeometry x="1" y="50" width="50" height="50" relative="1" as="geometry">
            <mxPoint x="640" y="162" as="sourcePoint" />
            <mxPoint x="680" y="165" as="targetPoint" />
            <mxPoint x="50" y="50" as="offset" />
          </mxGeometry>
        </mxCell>
        <mxCell id="zzq129CO2og8Jjxutfad-6" value="TransmitBufferFull" style="endArrow=classic;html=1;exitX=1.007;exitY=0.307;exitDx=0;exitDy=0;exitPerimeter=0;" parent="1" edge="1">
          <mxGeometry x="1" y="50" width="50" height="50" relative="1" as="geometry">
            <mxPoint x="620" y="191.5" as="sourcePoint" />
            <mxPoint x="679.02" y="191.51999999999998" as="targetPoint" />
            <mxPoint x="50" y="50" as="offset" />
          </mxGeometry>
        </mxCell>
        <mxCell id="zzq129CO2og8Jjxutfad-7" value="DataReady" style="endArrow=classic;html=1;exitX=1.007;exitY=0.307;exitDx=0;exitDy=0;exitPerimeter=0;" parent="1" edge="1">
          <mxGeometry x="1" y="31" width="50" height="50" relative="1" as="geometry">
            <mxPoint x="620" y="222" as="sourcePoint" />
            <mxPoint x="679.02" y="222.01999999999998" as="targetPoint" />
            <mxPoint x="31" y="31" as="offset" />
          </mxGeometry>
        </mxCell>
        <mxCell id="zzq129CO2og8Jjxutfad-8" value="ReceiveBufferEmpty" style="endArrow=classic;html=1;exitX=1.007;exitY=0.307;exitDx=0;exitDy=0;exitPerimeter=0;" parent="1" edge="1">
          <mxGeometry x="1" y="50" width="50" height="50" relative="1" as="geometry">
            <mxPoint x="620" y="142" as="sourcePoint" />
            <mxPoint x="679.02" y="142.01999999999998" as="targetPoint" />
            <mxPoint x="50" y="50" as="offset" />
          </mxGeometry>
        </mxCell>
        <mxCell id="zzq129CO2og8Jjxutfad-9" value="Data[7..0]" style="edgeStyle=orthogonalEdgeStyle;rounded=0;orthogonalLoop=1;jettySize=auto;html=1;" parent="1" edge="1">
          <mxGeometry relative="1" as="geometry">
            <mxPoint x="890" y="641.0899999999999" as="sourcePoint" />
            <mxPoint x="960" y="641.0899999999999" as="targetPoint" />
          </mxGeometry>
        </mxCell>
        <mxCell id="zzq129CO2og8Jjxutfad-10" value="RX FIFO" style="rounded=0;whiteSpace=wrap;html=1;" parent="1" vertex="1">
          <mxGeometry x="770" y="628" width="120" height="60" as="geometry" />
        </mxCell>
        <mxCell id="zzq129CO2og8Jjxutfad-11" value="Tx[7..0]" style="edgeStyle=orthogonalEdgeStyle;rounded=0;orthogonalLoop=1;jettySize=auto;html=1;" parent="1" source="zzq129CO2og8Jjxutfad-12" target="zzq129CO2og8Jjxutfad-18" edge="1">
          <mxGeometry relative="1" as="geometry" />
        </mxCell>
        <mxCell id="zzq129CO2og8Jjxutfad-12" value="TX FIFO" style="rounded=0;whiteSpace=wrap;html=1;" parent="1" vertex="1">
          <mxGeometry x="570" y="708" width="120" height="60" as="geometry" />
        </mxCell>
        <mxCell id="zzq129CO2og8Jjxutfad-15" value="Rx[7..0]" style="edgeStyle=orthogonalEdgeStyle;rounded=0;orthogonalLoop=1;jettySize=auto;html=1;" parent="1" source="zzq129CO2og8Jjxutfad-16" target="zzq129CO2og8Jjxutfad-10" edge="1">
          <mxGeometry relative="1" as="geometry" />
        </mxCell>
        <mxCell id="zzq129CO2og8Jjxutfad-16" value="SIPO" style="rounded=0;whiteSpace=wrap;html=1;" parent="1" vertex="1">
          <mxGeometry x="570" y="628" width="120" height="60" as="geometry" />
        </mxCell>
        <mxCell id="zzq129CO2og8Jjxutfad-17" value="TX" style="edgeStyle=orthogonalEdgeStyle;rounded=0;orthogonalLoop=1;jettySize=auto;html=1;" parent="1" source="zzq129CO2og8Jjxutfad-18" edge="1">
          <mxGeometry relative="1" as="geometry">
            <mxPoint x="960" y="738" as="targetPoint" />
          </mxGeometry>
        </mxCell>
        <mxCell id="zzq129CO2og8Jjxutfad-18" value="PISO" style="rounded=0;whiteSpace=wrap;html=1;" parent="1" vertex="1">
          <mxGeometry x="770" y="708" width="120" height="60" as="geometry" />
        </mxCell>
        <mxCell id="zzq129CO2og8Jjxutfad-20" value="Baud setting" style="rounded=0;whiteSpace=wrap;html=1;" parent="1" vertex="1">
          <mxGeometry x="650" y="528" width="120" height="60" as="geometry" />
        </mxCell>
        <mxCell id="zzq129CO2og8Jjxutfad-21" value="Baudrate" style="endArrow=classic;html=1;entryX=0;entryY=0.25;entryDx=0;entryDy=0;" parent="1" target="zzq129CO2og8Jjxutfad-20" edge="1">
          <mxGeometry x="0.0159" width="50" height="50" relative="1" as="geometry">
            <mxPoint x="580" y="543" as="sourcePoint" />
            <mxPoint x="670" y="638" as="targetPoint" />
            <mxPoint as="offset" />
          </mxGeometry>
        </mxCell>
        <mxCell id="zzq129CO2og8Jjxutfad-23" value="UartClk" style="endArrow=block;html=1;exitX=1;exitY=0.5;exitDx=0;exitDy=0;entryX=0;entryY=0.75;entryDx=0;entryDy=0;rounded=0;endFill=0;" parent="1" source="zzq129CO2og8Jjxutfad-20" target="zzq129CO2og8Jjxutfad-18" edge="1">
          <mxGeometry x="-0.814" width="50" height="50" relative="1" as="geometry">
            <mxPoint x="630" y="728" as="sourcePoint" />
            <mxPoint x="680" y="678" as="targetPoint" />
            <Array as="points">
              <mxPoint x="790" y="558" />
              <mxPoint x="790" y="598" />
              <mxPoint x="710" y="598" />
              <mxPoint x="710" y="688" />
              <mxPoint x="710" y="753" />
            </Array>
            <mxPoint as="offset" />
          </mxGeometry>
        </mxCell>
        <mxCell id="zzq129CO2og8Jjxutfad-24" value="UartClk" style="endArrow=block;html=1;rounded=0;endFill=0;entryX=1;entryY=0.75;entryDx=0;entryDy=0;exitX=1;exitY=0.5;exitDx=0;exitDy=0;" parent="1" source="zzq129CO2og8Jjxutfad-20" target="zzq129CO2og8Jjxutfad-16" edge="1">
          <mxGeometry x="-0.7037" width="50" height="50" relative="1" as="geometry">
            <mxPoint x="790" y="568" as="sourcePoint" />
            <mxPoint x="740" y="670" as="targetPoint" />
            <Array as="points">
              <mxPoint x="790" y="558" />
              <mxPoint x="790" y="598" />
              <mxPoint x="710" y="598" />
              <mxPoint x="710" y="673" />
            </Array>
            <mxPoint as="offset" />
          </mxGeometry>
        </mxCell>
        <mxCell id="zzq129CO2og8Jjxutfad-25" value="ReceiveBufferFull" style="endArrow=classic;html=1;exitX=1;exitY=0.75;exitDx=0;exitDy=0;" parent="1" source="zzq129CO2og8Jjxutfad-10" edge="1">
          <mxGeometry x="1" y="50" width="50" height="50" relative="1" as="geometry">
            <mxPoint x="900" y="688" as="sourcePoint" />
            <mxPoint x="960" y="673" as="targetPoint" />
            <mxPoint x="50" y="50" as="offset" />
          </mxGeometry>
        </mxCell>
        <mxCell id="zzq129CO2og8Jjxutfad-26" value="ReceiveBufferEmpty" style="endArrow=classic;html=1;exitX=1;exitY=0.5;exitDx=0;exitDy=0;" parent="1" source="zzq129CO2og8Jjxutfad-10" edge="1">
          <mxGeometry x="1" y="50" width="50" height="50" relative="1" as="geometry">
            <mxPoint x="895" y="657.5799999999999" as="sourcePoint" />
            <mxPoint x="960" y="658" as="targetPoint" />
            <mxPoint x="50" y="50" as="offset" />
          </mxGeometry>
        </mxCell>
        <mxCell id="zzq129CO2og8Jjxutfad-27" value="&#xa;&#xa;&lt;span style=&quot;color: rgb(0, 0, 0); font-family: helvetica; font-size: 11px; font-style: normal; font-weight: 400; letter-spacing: normal; text-align: center; text-indent: 0px; text-transform: none; word-spacing: 0px; background-color: rgb(255, 255, 255); display: inline; float: none;&quot;&gt;TransmitBufferFull&lt;/span&gt;&#xa;&#xa;" style="endArrow=classic;html=1;exitX=0.75;exitY=1;exitDx=0;exitDy=0;rounded=0;" parent="1" source="zzq129CO2og8Jjxutfad-12" edge="1">
          <mxGeometry x="1" y="50" width="50" height="50" relative="1" as="geometry">
            <mxPoint x="740" y="568" as="sourcePoint" />
            <mxPoint x="970" y="778" as="targetPoint" />
            <Array as="points">
              <mxPoint x="660" y="778" />
            </Array>
            <mxPoint x="50" y="50" as="offset" />
          </mxGeometry>
        </mxCell>
        <mxCell id="zzq129CO2og8Jjxutfad-28" value="" style="endArrow=classic;html=1;exitX=0;exitY=0.25;exitDx=0;exitDy=0;entryX=1;entryY=0.25;entryDx=0;entryDy=0;" parent="1" source="zzq129CO2og8Jjxutfad-18" target="zzq129CO2og8Jjxutfad-12" edge="1">
          <mxGeometry width="50" height="50" relative="1" as="geometry">
            <mxPoint x="740" y="748" as="sourcePoint" />
            <mxPoint x="790" y="698" as="targetPoint" />
          </mxGeometry>
        </mxCell>
        <mxCell id="zzq129CO2og8Jjxutfad-29" value="Ready" style="edgeLabel;html=1;align=center;verticalAlign=middle;resizable=0;points=[];" parent="zzq129CO2og8Jjxutfad-28" vertex="1" connectable="0">
          <mxGeometry x="-0.175" y="-1" relative="1" as="geometry">
            <mxPoint as="offset" />
          </mxGeometry>
        </mxCell>
        <mxCell id="zzq129CO2og8Jjxutfad-30" value="Ready" style="endArrow=classic;html=1;exitX=1.006;exitY=0.171;exitDx=0;exitDy=0;exitPerimeter=0;" parent="1" source="zzq129CO2og8Jjxutfad-16" edge="1">
          <mxGeometry width="50" height="50" relative="1" as="geometry">
            <mxPoint x="740" y="688" as="sourcePoint" />
            <mxPoint x="770" y="638" as="targetPoint" />
          </mxGeometry>
        </mxCell>
        <mxCell id="zzq129CO2og8Jjxutfad-31" value="dataReady" style="endArrow=classic;html=1;exitX=1;exitY=0;exitDx=0;exitDy=0;entryX=0;entryY=0;entryDx=0;entryDy=0;" parent="1" source="zzq129CO2og8Jjxutfad-12" target="zzq129CO2og8Jjxutfad-18" edge="1">
          <mxGeometry width="50" height="50" relative="1" as="geometry">
            <mxPoint x="700" y="688" as="sourcePoint" />
            <mxPoint x="750" y="638" as="targetPoint" />
          </mxGeometry>
        </mxCell>
        <mxCell id="zzq129CO2og8Jjxutfad-33" value="Signal Proeccesing" style="text;html=1;align=center;verticalAlign=middle;resizable=0;points=[];autosize=1;strokeColor=none;fillColor=none;" parent="1" vertex="1">
          <mxGeometry x="515" width="130" height="30" as="geometry" />
        </mxCell>
        <mxCell id="0Dvgkc9hBeByU5-sjNYJ-2" value="" style="rounded=0;whiteSpace=wrap;html=1;fontSize=12;" parent="1" vertex="1">
          <mxGeometry x="200.62" y="142" width="120" height="260" as="geometry" />
        </mxCell>
        <mxCell id="0Dvgkc9hBeByU5-sjNYJ-3" value="sys_clk" style="text;html=1;strokeColor=none;fillColor=none;align=center;verticalAlign=middle;whiteSpace=wrap;rounded=0;" parent="1" vertex="1">
          <mxGeometry x="210.62" y="342" width="50" height="20" as="geometry" />
        </mxCell>
        <mxCell id="0Dvgkc9hBeByU5-sjNYJ-4" value="R/W" style="text;html=1;strokeColor=none;fillColor=none;align=center;verticalAlign=middle;whiteSpace=wrap;rounded=0;" parent="1" vertex="1">
          <mxGeometry x="200.62" y="302" width="40" height="20" as="geometry" />
        </mxCell>
        <mxCell id="0Dvgkc9hBeByU5-sjNYJ-5" value="EN" style="text;html=1;strokeColor=none;fillColor=none;align=center;verticalAlign=middle;whiteSpace=wrap;rounded=0;" parent="1" vertex="1">
          <mxGeometry x="200.62" y="272" width="40" height="20" as="geometry" />
        </mxCell>
        <mxCell id="0Dvgkc9hBeByU5-sjNYJ-6" value="Reg" style="text;html=1;strokeColor=none;fillColor=none;align=center;verticalAlign=middle;whiteSpace=wrap;rounded=0;" parent="1" vertex="1">
          <mxGeometry x="200.62" y="232" width="40" height="20" as="geometry" />
        </mxCell>
        <mxCell id="0Dvgkc9hBeByU5-sjNYJ-7" value="Data" style="text;html=1;strokeColor=none;fillColor=none;align=center;verticalAlign=middle;whiteSpace=wrap;rounded=0;" parent="1" vertex="1">
          <mxGeometry x="200.62" y="192" width="40" height="20" as="geometry" />
        </mxCell>
        <mxCell id="HDrPP6P477nyxnWkKe1h-8" value="" style="edgeStyle=orthogonalEdgeStyle;rounded=0;orthogonalLoop=1;jettySize=auto;html=1;" parent="1" source="0Dvgkc9hBeByU5-sjNYJ-8" target="HDrPP6P477nyxnWkKe1h-7" edge="1">
          <mxGeometry relative="1" as="geometry" />
        </mxCell>
        <mxCell id="0Dvgkc9hBeByU5-sjNYJ-8" value="sample_clk" style="text;html=1;strokeColor=none;fillColor=none;align=center;verticalAlign=middle;whiteSpace=wrap;rounded=0;" parent="1" vertex="1">
          <mxGeometry x="210.62" y="372" width="70" height="20" as="geometry" />
        </mxCell>
        <mxCell id="0Dvgkc9hBeByU5-sjNYJ-9" value="Input" style="text;html=1;strokeColor=none;fillColor=none;align=center;verticalAlign=middle;whiteSpace=wrap;rounded=0;fontSize=12;" parent="1" vertex="1">
          <mxGeometry x="200.62" y="152" width="40" height="20" as="geometry" />
        </mxCell>
        <mxCell id="0Dvgkc9hBeByU5-sjNYJ-11" value="Signal processor" style="text;html=1;strokeColor=none;fillColor=none;align=center;verticalAlign=middle;whiteSpace=wrap;rounded=0;fontSize=12;" parent="1" vertex="1">
          <mxGeometry x="190" y="122" width="141.25" height="20" as="geometry" />
        </mxCell>
        <mxCell id="0Dvgkc9hBeByU5-sjNYJ-12" value="" style="triangle;whiteSpace=wrap;html=1;fontSize=12;" parent="1" vertex="1">
          <mxGeometry x="200.62" y="372" width="10" height="20" as="geometry" />
        </mxCell>
        <mxCell id="n3wjfGPKKDRVGjBtguXL-10" style="edgeStyle=orthogonalEdgeStyle;rounded=0;orthogonalLoop=1;jettySize=auto;html=1;entryX=0.5;entryY=1;entryDx=0;entryDy=0;" parent="1" source="0Dvgkc9hBeByU5-sjNYJ-13" target="zzq129CO2og8Jjxutfad-1" edge="1">
          <mxGeometry relative="1" as="geometry">
            <mxPoint x="120" y="458" as="targetPoint" />
            <Array as="points">
              <mxPoint x="120" y="352" />
              <mxPoint x="120" y="442" />
              <mxPoint x="550" y="442" />
            </Array>
          </mxGeometry>
        </mxCell>
        <mxCell id="0Dvgkc9hBeByU5-sjNYJ-13" value="" style="triangle;whiteSpace=wrap;html=1;fontSize=12;" parent="1" vertex="1">
          <mxGeometry x="200.62" y="342" width="10" height="20" as="geometry" />
        </mxCell>
        <mxCell id="0Dvgkc9hBeByU5-sjNYJ-30" value="" style="endArrow=none;html=1;fontSize=12;" parent="1" edge="1">
          <mxGeometry width="50" height="50" relative="1" as="geometry">
            <mxPoint x="331.25" y="272" as="sourcePoint" />
            <mxPoint x="341.25" y="252" as="targetPoint" />
          </mxGeometry>
        </mxCell>
        <mxCell id="0Dvgkc9hBeByU5-sjNYJ-31" value="8" style="text;html=1;strokeColor=none;fillColor=none;align=center;verticalAlign=middle;whiteSpace=wrap;rounded=0;fontSize=12;" parent="1" vertex="1">
          <mxGeometry x="331.25" y="242" width="10" height="10" as="geometry" />
        </mxCell>
        <mxCell id="0Dvgkc9hBeByU5-sjNYJ-38" value="" style="rounded=0;whiteSpace=wrap;html=1;rotation=90;" parent="1" vertex="1">
          <mxGeometry x="-10" y="566" width="90" height="60" as="geometry" />
        </mxCell>
        <mxCell id="0Dvgkc9hBeByU5-sjNYJ-39" value="FRONT END" style="text;html=1;align=center;verticalAlign=middle;whiteSpace=wrap;rounded=0;" parent="1" vertex="1">
          <mxGeometry x="5" y="92" width="60" height="30" as="geometry" />
        </mxCell>
        <mxCell id="n3wjfGPKKDRVGjBtguXL-14" style="edgeStyle=orthogonalEdgeStyle;rounded=0;orthogonalLoop=1;jettySize=auto;html=1;entryX=0;entryY=0.5;entryDx=0;entryDy=0;" parent="1" source="n3wjfGPKKDRVGjBtguXL-4" target="zzq129CO2og8Jjxutfad-12" edge="1">
          <mxGeometry relative="1" as="geometry">
            <mxPoint x="410" y="642" as="targetPoint" />
            <Array as="points">
              <mxPoint x="415" y="262" />
              <mxPoint x="415" y="738" />
            </Array>
          </mxGeometry>
        </mxCell>
        <mxCell id="n3wjfGPKKDRVGjBtguXL-4" value="&lt;span style=&quot;color: rgb(240, 240, 240); font-family: Helvetica; font-size: 11px; font-style: normal; font-variant-ligatures: normal; font-variant-caps: normal; font-weight: 400; letter-spacing: normal; orphans: 2; text-align: center; text-indent: 0px; text-transform: none; widows: 2; word-spacing: 0px; -webkit-text-stroke-width: 0px; white-space: nowrap; background-color: rgb(24, 20, 29); text-decoration-thickness: initial; text-decoration-style: initial; text-decoration-color: initial; display: inline !important; float: none;&quot;&gt;Data[7..0]&lt;/span&gt;" style="text;whiteSpace=wrap;html=1;" parent="1" vertex="1">
          <mxGeometry x="270" y="242" width="50" height="40" as="geometry" />
        </mxCell>
        <mxCell id="uheD39VHHG5a54oGaYyE-6" style="edgeStyle=orthogonalEdgeStyle;rounded=0;orthogonalLoop=1;jettySize=auto;html=1;entryX=0;entryY=0.5;entryDx=0;entryDy=0;" parent="1" source="n3wjfGPKKDRVGjBtguXL-17" target="zzq129CO2og8Jjxutfad-1" edge="1">
          <mxGeometry relative="1" as="geometry">
            <mxPoint x="460" y="270" as="targetPoint" />
          </mxGeometry>
        </mxCell>
        <mxCell id="HDrPP6P477nyxnWkKe1h-2" style="edgeStyle=orthogonalEdgeStyle;rounded=0;orthogonalLoop=1;jettySize=auto;html=1;entryX=0;entryY=0.5;entryDx=0;entryDy=0;" parent="1" source="n3wjfGPKKDRVGjBtguXL-17" target="HDrPP6P477nyxnWkKe1h-1" edge="1">
          <mxGeometry relative="1" as="geometry" />
        </mxCell>
        <mxCell id="n3wjfGPKKDRVGjBtguXL-17" value="Linear mapping" style="rounded=0;whiteSpace=wrap;html=1;" parent="1" vertex="1">
          <mxGeometry x="145.62" y="568" width="120" height="60" as="geometry" />
        </mxCell>
        <mxCell id="uheD39VHHG5a54oGaYyE-4" style="edgeStyle=orthogonalEdgeStyle;rounded=0;orthogonalLoop=1;jettySize=auto;html=1;entryX=0;entryY=0.5;entryDx=0;entryDy=0;" parent="1" source="n3wjfGPKKDRVGjBtguXL-18" target="n3wjfGPKKDRVGjBtguXL-17" edge="1">
          <mxGeometry relative="1" as="geometry" />
        </mxCell>
        <mxCell id="n3wjfGPKKDRVGjBtguXL-18" value="&lt;span style=&quot;color: rgb(236, 236, 236); font-family: ui-monospace, SFMono-Regular, &amp;quot;SF Mono&amp;quot;, Menlo, Consolas, &amp;quot;Liberation Mono&amp;quot;, monospace; font-size: 14px; font-weight: 600; text-align: left; white-space-collapse: preserve; background-color: rgb(33, 33, 33);&quot;&gt;ADC_Value&lt;/span&gt;" style="text;html=1;align=center;verticalAlign=middle;whiteSpace=wrap;rounded=0;" parent="1" vertex="1">
          <mxGeometry x="17.5" y="588" width="35" height="20" as="geometry" />
        </mxCell>
        <mxCell id="uheD39VHHG5a54oGaYyE-5" value="&lt;font color=&quot;#ff0000&quot;&gt;(ADC VALUE/ADC MAX)x Max Output Range&lt;/font&gt;" style="text;html=1;align=center;verticalAlign=middle;whiteSpace=wrap;rounded=0;" parent="1" vertex="1">
          <mxGeometry x="175.62" y="652" width="60" height="30" as="geometry" />
        </mxCell>
        <mxCell id="uheD39VHHG5a54oGaYyE-7" value="&lt;span style=&quot;border: 0px solid rgb(227, 227, 227); box-sizing: border-box; --tw-border-spacing-x: 0; --tw-border-spacing-y: 0; --tw-translate-x: 0; --tw-translate-y: 0; --tw-rotate: 0; --tw-skew-x: 0; --tw-skew-y: 0; --tw-scale-x: 1; --tw-scale-y: 1; --tw-pan-x: ; --tw-pan-y: ; --tw-pinch-zoom: ; --tw-scroll-snap-strictness: proximity; --tw-gradient-from-position: ; --tw-gradient-via-position: ; --tw-gradient-to-position: ; --tw-ordinal: ; --tw-slashed-zero: ; --tw-numeric-figure: ; --tw-numeric-spacing: ; --tw-numeric-fraction: ; --tw-ring-inset: ; --tw-ring-offset-width: 0px; --tw-ring-offset-color: #fff; --tw-ring-color: rgba(69,89,164,.5); --tw-ring-offset-shadow: 0 0 transparent; --tw-ring-shadow: 0 0 transparent; --tw-shadow: 0 0 transparent; --tw-shadow-colored: 0 0 transparent; --tw-blur: ; --tw-brightness: ; --tw-contrast: ; --tw-grayscale: ; --tw-hue-rotate: ; --tw-invert: ; --tw-saturate: ; --tw-sepia: ; --tw-drop-shadow: ; --tw-backdrop-blur: ; --tw-backdrop-brightness: ; --tw-backdrop-contrast: ; --tw-backdrop-grayscale: ; --tw-backdrop-hue-rotate: ; --tw-backdrop-invert: ; --tw-backdrop-opacity: ; --tw-backdrop-saturate: ; --tw-backdrop-sepia: ; --tw-contain-size: ; --tw-contain-layout: ; --tw-contain-paint: ; --tw-contain-style: ; color: rgb(223, 48, 121); font-family: ui-monospace, SFMono-Regular, &amp;quot;SF Mono&amp;quot;, Menlo, Consolas, &amp;quot;Liberation Mono&amp;quot;, monospace; font-size: 14px; text-align: left; white-space: pre; background-color: rgb(13, 13, 13);&quot; class=&quot;hljs-type&quot;&gt;int&lt;/span&gt;&lt;span style=&quot;color: rgb(255, 255, 255); font-family: ui-monospace, SFMono-Regular, &amp;quot;SF Mono&amp;quot;, Menlo, Consolas, &amp;quot;Liberation Mono&amp;quot;, monospace; font-size: 14px; text-align: left; white-space: pre; background-color: rgb(13, 13, 13);&quot;&gt; adcValue = readADC();  &lt;/span&gt;&lt;span style=&quot;border: 0px solid rgb(227, 227, 227); box-sizing: border-box; --tw-border-spacing-x: 0; --tw-border-spacing-y: 0; --tw-translate-x: 0; --tw-translate-y: 0; --tw-rotate: 0; --tw-skew-x: 0; --tw-skew-y: 0; --tw-scale-x: 1; --tw-scale-y: 1; --tw-pan-x: ; --tw-pan-y: ; --tw-pinch-zoom: ; --tw-scroll-snap-strictness: proximity; --tw-gradient-from-position: ; --tw-gradient-via-position: ; --tw-gradient-to-position: ; --tw-ordinal: ; --tw-slashed-zero: ; --tw-numeric-figure: ; --tw-numeric-spacing: ; --tw-numeric-fraction: ; --tw-ring-inset: ; --tw-ring-offset-width: 0px; --tw-ring-offset-color: #fff; --tw-ring-color: rgba(69,89,164,.5); --tw-ring-offset-shadow: 0 0 transparent; --tw-ring-shadow: 0 0 transparent; --tw-shadow: 0 0 transparent; --tw-shadow-colored: 0 0 transparent; --tw-blur: ; --tw-brightness: ; --tw-contrast: ; --tw-grayscale: ; --tw-hue-rotate: ; --tw-invert: ; --tw-saturate: ; --tw-sepia: ; --tw-drop-shadow: ; --tw-backdrop-blur: ; --tw-backdrop-brightness: ; --tw-backdrop-contrast: ; --tw-backdrop-grayscale: ; --tw-backdrop-hue-rotate: ; --tw-backdrop-invert: ; --tw-backdrop-opacity: ; --tw-backdrop-saturate: ; --tw-backdrop-sepia: ; --tw-contain-size: ; --tw-contain-layout: ; --tw-contain-paint: ; --tw-contain-style: ; color: rgba(255, 255, 255, 0.5); font-family: ui-monospace, SFMono-Regular, &amp;quot;SF Mono&amp;quot;, Menlo, Consolas, &amp;quot;Liberation Mono&amp;quot;, monospace; font-size: 14px; text-align: left; white-space: pre; background-color: rgb(13, 13, 13);&quot; class=&quot;hljs-comment&quot;&gt;// Function to read an ADC value&lt;/span&gt;&lt;span style=&quot;color: rgb(255, 255, 255); font-family: ui-monospace, SFMono-Regular, &amp;quot;SF Mono&amp;quot;, Menlo, Consolas, &amp;quot;Liberation Mono&amp;quot;, monospace; font-size: 14px; text-align: left; white-space: pre; background-color: rgb(13, 13, 13);&quot;&gt;&lt;br/&gt;&lt;/span&gt;&lt;span style=&quot;border: 0px solid rgb(227, 227, 227); box-sizing: border-box; --tw-border-spacing-x: 0; --tw-border-spacing-y: 0; --tw-translate-x: 0; --tw-translate-y: 0; --tw-rotate: 0; --tw-skew-x: 0; --tw-skew-y: 0; --tw-scale-x: 1; --tw-scale-y: 1; --tw-pan-x: ; --tw-pan-y: ; --tw-pinch-zoom: ; --tw-scroll-snap-strictness: proximity; --tw-gradient-from-position: ; --tw-gradient-via-position: ; --tw-gradient-to-position: ; --tw-ordinal: ; --tw-slashed-zero: ; --tw-numeric-figure: ; --tw-numeric-spacing: ; --tw-numeric-fraction: ; --tw-ring-inset: ; --tw-ring-offset-width: 0px; --tw-ring-offset-color: #fff; --tw-ring-color: rgba(69,89,164,.5); --tw-ring-offset-shadow: 0 0 transparent; --tw-ring-shadow: 0 0 transparent; --tw-shadow: 0 0 transparent; --tw-shadow-colored: 0 0 transparent; --tw-blur: ; --tw-brightness: ; --tw-contrast: ; --tw-grayscale: ; --tw-hue-rotate: ; --tw-invert: ; --tw-saturate: ; --tw-sepia: ; --tw-drop-shadow: ; --tw-backdrop-blur: ; --tw-backdrop-brightness: ; --tw-backdrop-contrast: ; --tw-backdrop-grayscale: ; --tw-backdrop-hue-rotate: ; --tw-backdrop-invert: ; --tw-backdrop-opacity: ; --tw-backdrop-saturate: ; --tw-backdrop-sepia: ; --tw-contain-size: ; --tw-contain-layout: ; --tw-contain-paint: ; --tw-contain-style: ; color: rgb(223, 48, 121); font-family: ui-monospace, SFMono-Regular, &amp;quot;SF Mono&amp;quot;, Menlo, Consolas, &amp;quot;Liberation Mono&amp;quot;, monospace; font-size: 14px; text-align: left; white-space: pre; background-color: rgb(13, 13, 13);&quot; class=&quot;hljs-type&quot;&gt;int&lt;/span&gt;&lt;span style=&quot;color: rgb(255, 255, 255); font-family: ui-monospace, SFMono-Regular, &amp;quot;SF Mono&amp;quot;, Menlo, Consolas, &amp;quot;Liberation Mono&amp;quot;, monospace; font-size: 14px; text-align: left; white-space: pre; background-color: rgb(13, 13, 13);&quot;&gt; maxADCValue = &lt;/span&gt;&lt;span style=&quot;border: 0px solid rgb(227, 227, 227); box-sizing: border-box; --tw-border-spacing-x: 0; --tw-border-spacing-y: 0; --tw-translate-x: 0; --tw-translate-y: 0; --tw-rotate: 0; --tw-skew-x: 0; --tw-skew-y: 0; --tw-scale-x: 1; --tw-scale-y: 1; --tw-pan-x: ; --tw-pan-y: ; --tw-pinch-zoom: ; --tw-scroll-snap-strictness: proximity; --tw-gradient-from-position: ; --tw-gradient-via-position: ; --tw-gradient-to-position: ; --tw-ordinal: ; --tw-slashed-zero: ; --tw-numeric-figure: ; --tw-numeric-spacing: ; --tw-numeric-fraction: ; --tw-ring-inset: ; --tw-ring-offset-width: 0px; --tw-ring-offset-color: #fff; --tw-ring-color: rgba(69,89,164,.5); --tw-ring-offset-shadow: 0 0 transparent; --tw-ring-shadow: 0 0 transparent; --tw-shadow: 0 0 transparent; --tw-shadow-colored: 0 0 transparent; --tw-blur: ; --tw-brightness: ; --tw-contrast: ; --tw-grayscale: ; --tw-hue-rotate: ; --tw-invert: ; --tw-saturate: ; --tw-sepia: ; --tw-drop-shadow: ; --tw-backdrop-blur: ; --tw-backdrop-brightness: ; --tw-backdrop-contrast: ; --tw-backdrop-grayscale: ; --tw-backdrop-hue-rotate: ; --tw-backdrop-invert: ; --tw-backdrop-opacity: ; --tw-backdrop-saturate: ; --tw-backdrop-sepia: ; --tw-contain-size: ; --tw-contain-layout: ; --tw-contain-paint: ; --tw-contain-style: ; color: rgb(223, 48, 121); font-family: ui-monospace, SFMono-Regular, &amp;quot;SF Mono&amp;quot;, Menlo, Consolas, &amp;quot;Liberation Mono&amp;quot;, monospace; font-size: 14px; text-align: left; white-space: pre; background-color: rgb(13, 13, 13);&quot; class=&quot;hljs-number&quot;&gt;1023&lt;/span&gt;&lt;span style=&quot;color: rgb(255, 255, 255); font-family: ui-monospace, SFMono-Regular, &amp;quot;SF Mono&amp;quot;, Menlo, Consolas, &amp;quot;Liberation Mono&amp;quot;, monospace; font-size: 14px; text-align: left; white-space: pre; background-color: rgb(13, 13, 13);&quot;&gt;;    &lt;/span&gt;&lt;span style=&quot;border: 0px solid rgb(227, 227, 227); box-sizing: border-box; --tw-border-spacing-x: 0; --tw-border-spacing-y: 0; --tw-translate-x: 0; --tw-translate-y: 0; --tw-rotate: 0; --tw-skew-x: 0; --tw-skew-y: 0; --tw-scale-x: 1; --tw-scale-y: 1; --tw-pan-x: ; --tw-pan-y: ; --tw-pinch-zoom: ; --tw-scroll-snap-strictness: proximity; --tw-gradient-from-position: ; --tw-gradient-via-position: ; --tw-gradient-to-position: ; --tw-ordinal: ; --tw-slashed-zero: ; --tw-numeric-figure: ; --tw-numeric-spacing: ; --tw-numeric-fraction: ; --tw-ring-inset: ; --tw-ring-offset-width: 0px; --tw-ring-offset-color: #fff; --tw-ring-color: rgba(69,89,164,.5); --tw-ring-offset-shadow: 0 0 transparent; --tw-ring-shadow: 0 0 transparent; --tw-shadow: 0 0 transparent; --tw-shadow-colored: 0 0 transparent; --tw-blur: ; --tw-brightness: ; --tw-contrast: ; --tw-grayscale: ; --tw-hue-rotate: ; --tw-invert: ; --tw-saturate: ; --tw-sepia: ; --tw-drop-shadow: ; --tw-backdrop-blur: ; --tw-backdrop-brightness: ; --tw-backdrop-contrast: ; --tw-backdrop-grayscale: ; --tw-backdrop-hue-rotate: ; --tw-backdrop-invert: ; --tw-backdrop-opacity: ; --tw-backdrop-saturate: ; --tw-backdrop-sepia: ; --tw-contain-size: ; --tw-contain-layout: ; --tw-contain-paint: ; --tw-contain-style: ; color: rgba(255, 255, 255, 0.5); font-family: ui-monospace, SFMono-Regular, &amp;quot;SF Mono&amp;quot;, Menlo, Consolas, &amp;quot;Liberation Mono&amp;quot;, monospace; font-size: 14px; text-align: left; white-space: pre; background-color: rgb(13, 13, 13);&quot; class=&quot;hljs-comment&quot;&gt;// Maximum ADC value for a 10-bit ADC&lt;/span&gt;&lt;span style=&quot;color: rgb(255, 255, 255); font-family: ui-monospace, SFMono-Regular, &amp;quot;SF Mono&amp;quot;, Menlo, Consolas, &amp;quot;Liberation Mono&amp;quot;, monospace; font-size: 14px; text-align: left; white-space: pre; background-color: rgb(13, 13, 13);&quot;&gt;&lt;br/&gt;&lt;/span&gt;&lt;span style=&quot;border: 0px solid rgb(227, 227, 227); box-sizing: border-box; --tw-border-spacing-x: 0; --tw-border-spacing-y: 0; --tw-translate-x: 0; --tw-translate-y: 0; --tw-rotate: 0; --tw-skew-x: 0; --tw-skew-y: 0; --tw-scale-x: 1; --tw-scale-y: 1; --tw-pan-x: ; --tw-pan-y: ; --tw-pinch-zoom: ; --tw-scroll-snap-strictness: proximity; --tw-gradient-from-position: ; --tw-gradient-via-position: ; --tw-gradient-to-position: ; --tw-ordinal: ; --tw-slashed-zero: ; --tw-numeric-figure: ; --tw-numeric-spacing: ; --tw-numeric-fraction: ; --tw-ring-inset: ; --tw-ring-offset-width: 0px; --tw-ring-offset-color: #fff; --tw-ring-color: rgba(69,89,164,.5); --tw-ring-offset-shadow: 0 0 transparent; --tw-ring-shadow: 0 0 transparent; --tw-shadow: 0 0 transparent; --tw-shadow-colored: 0 0 transparent; --tw-blur: ; --tw-brightness: ; --tw-contrast: ; --tw-grayscale: ; --tw-hue-rotate: ; --tw-invert: ; --tw-saturate: ; --tw-sepia: ; --tw-drop-shadow: ; --tw-backdrop-blur: ; --tw-backdrop-brightness: ; --tw-backdrop-contrast: ; --tw-backdrop-grayscale: ; --tw-backdrop-hue-rotate: ; --tw-backdrop-invert: ; --tw-backdrop-opacity: ; --tw-backdrop-saturate: ; --tw-backdrop-sepia: ; --tw-contain-size: ; --tw-contain-layout: ; --tw-contain-paint: ; --tw-contain-style: ; color: rgb(223, 48, 121); font-family: ui-monospace, SFMono-Regular, &amp;quot;SF Mono&amp;quot;, Menlo, Consolas, &amp;quot;Liberation Mono&amp;quot;, monospace; font-size: 14px; text-align: left; white-space: pre; background-color: rgb(13, 13, 13);&quot; class=&quot;hljs-type&quot;&gt;int&lt;/span&gt;&lt;span style=&quot;color: rgb(255, 255, 255); font-family: ui-monospace, SFMono-Regular, &amp;quot;SF Mono&amp;quot;, Menlo, Consolas, &amp;quot;Liberation Mono&amp;quot;, monospace; font-size: 14px; text-align: left; white-space: pre; background-color: rgb(13, 13, 13);&quot;&gt; maxOutputRange = &lt;/span&gt;&lt;span style=&quot;border: 0px solid rgb(227, 227, 227); box-sizing: border-box; --tw-border-spacing-x: 0; --tw-border-spacing-y: 0; --tw-translate-x: 0; --tw-translate-y: 0; --tw-rotate: 0; --tw-skew-x: 0; --tw-skew-y: 0; --tw-scale-x: 1; --tw-scale-y: 1; --tw-pan-x: ; --tw-pan-y: ; --tw-pinch-zoom: ; --tw-scroll-snap-strictness: proximity; --tw-gradient-from-position: ; --tw-gradient-via-position: ; --tw-gradient-to-position: ; --tw-ordinal: ; --tw-slashed-zero: ; --tw-numeric-figure: ; --tw-numeric-spacing: ; --tw-numeric-fraction: ; --tw-ring-inset: ; --tw-ring-offset-width: 0px; --tw-ring-offset-color: #fff; --tw-ring-color: rgba(69,89,164,.5); --tw-ring-offset-shadow: 0 0 transparent; --tw-ring-shadow: 0 0 transparent; --tw-shadow: 0 0 transparent; --tw-shadow-colored: 0 0 transparent; --tw-blur: ; --tw-brightness: ; --tw-contrast: ; --tw-grayscale: ; --tw-hue-rotate: ; --tw-invert: ; --tw-saturate: ; --tw-sepia: ; --tw-drop-shadow: ; --tw-backdrop-blur: ; --tw-backdrop-brightness: ; --tw-backdrop-contrast: ; --tw-backdrop-grayscale: ; --tw-backdrop-hue-rotate: ; --tw-backdrop-invert: ; --tw-backdrop-opacity: ; --tw-backdrop-saturate: ; --tw-backdrop-sepia: ; --tw-contain-size: ; --tw-contain-layout: ; --tw-contain-paint: ; --tw-contain-style: ; color: rgb(223, 48, 121); font-family: ui-monospace, SFMono-Regular, &amp;quot;SF Mono&amp;quot;, Menlo, Consolas, &amp;quot;Liberation Mono&amp;quot;, monospace; font-size: 14px; text-align: left; white-space: pre; background-color: rgb(13, 13, 13);&quot; class=&quot;hljs-number&quot;&gt;200&lt;/span&gt;&lt;span style=&quot;color: rgb(255, 255, 255); font-family: ui-monospace, SFMono-Regular, &amp;quot;SF Mono&amp;quot;, Menlo, Consolas, &amp;quot;Liberation Mono&amp;quot;, monospace; font-size: 14px; text-align: left; white-space: pre; background-color: rgb(13, 13, 13);&quot;&gt;;  &lt;/span&gt;&lt;span style=&quot;border: 0px solid rgb(227, 227, 227); box-sizing: border-box; --tw-border-spacing-x: 0; --tw-border-spacing-y: 0; --tw-translate-x: 0; --tw-translate-y: 0; --tw-rotate: 0; --tw-skew-x: 0; --tw-skew-y: 0; --tw-scale-x: 1; --tw-scale-y: 1; --tw-pan-x: ; --tw-pan-y: ; --tw-pinch-zoom: ; --tw-scroll-snap-strictness: proximity; --tw-gradient-from-position: ; --tw-gradient-via-position: ; --tw-gradient-to-position: ; --tw-ordinal: ; --tw-slashed-zero: ; --tw-numeric-figure: ; --tw-numeric-spacing: ; --tw-numeric-fraction: ; --tw-ring-inset: ; --tw-ring-offset-width: 0px; --tw-ring-offset-color: #fff; --tw-ring-color: rgba(69,89,164,.5); --tw-ring-offset-shadow: 0 0 transparent; --tw-ring-shadow: 0 0 transparent; --tw-shadow: 0 0 transparent; --tw-shadow-colored: 0 0 transparent; --tw-blur: ; --tw-brightness: ; --tw-contrast: ; --tw-grayscale: ; --tw-hue-rotate: ; --tw-invert: ; --tw-saturate: ; --tw-sepia: ; --tw-drop-shadow: ; --tw-backdrop-blur: ; --tw-backdrop-brightness: ; --tw-backdrop-contrast: ; --tw-backdrop-grayscale: ; --tw-backdrop-hue-rotate: ; --tw-backdrop-invert: ; --tw-backdrop-opacity: ; --tw-backdrop-saturate: ; --tw-backdrop-sepia: ; --tw-contain-size: ; --tw-contain-layout: ; --tw-contain-paint: ; --tw-contain-style: ; color: rgba(255, 255, 255, 0.5); font-family: ui-monospace, SFMono-Regular, &amp;quot;SF Mono&amp;quot;, Menlo, Consolas, &amp;quot;Liberation Mono&amp;quot;, monospace; font-size: 14px; text-align: left; white-space: pre; background-color: rgb(13, 13, 13);&quot; class=&quot;hljs-comment&quot;&gt;// The range you want to map to&lt;/span&gt;&lt;span style=&quot;color: rgb(255, 255, 255); font-family: ui-monospace, SFMono-Regular, &amp;quot;SF Mono&amp;quot;, Menlo, Consolas, &amp;quot;Liberation Mono&amp;quot;, monospace; font-size: 14px; text-align: left; white-space: pre; background-color: rgb(13, 13, 13);&quot;&gt;&lt;br/&gt;&lt;br/&gt;&lt;/span&gt;&lt;span style=&quot;border: 0px solid rgb(227, 227, 227); box-sizing: border-box; --tw-border-spacing-x: 0; --tw-border-spacing-y: 0; --tw-translate-x: 0; --tw-translate-y: 0; --tw-rotate: 0; --tw-skew-x: 0; --tw-skew-y: 0; --tw-scale-x: 1; --tw-scale-y: 1; --tw-pan-x: ; --tw-pan-y: ; --tw-pinch-zoom: ; --tw-scroll-snap-strictness: proximity; --tw-gradient-from-position: ; --tw-gradient-via-position: ; --tw-gradient-to-position: ; --tw-ordinal: ; --tw-slashed-zero: ; --tw-numeric-figure: ; --tw-numeric-spacing: ; --tw-numeric-fraction: ; --tw-ring-inset: ; --tw-ring-offset-width: 0px; --tw-ring-offset-color: #fff; --tw-ring-color: rgba(69,89,164,.5); --tw-ring-offset-shadow: 0 0 transparent; --tw-ring-shadow: 0 0 transparent; --tw-shadow: 0 0 transparent; --tw-shadow-colored: 0 0 transparent; --tw-blur: ; --tw-brightness: ; --tw-contrast: ; --tw-grayscale: ; --tw-hue-rotate: ; --tw-invert: ; --tw-saturate: ; --tw-sepia: ; --tw-drop-shadow: ; --tw-backdrop-blur: ; --tw-backdrop-brightness: ; --tw-backdrop-contrast: ; --tw-backdrop-grayscale: ; --tw-backdrop-hue-rotate: ; --tw-backdrop-invert: ; --tw-backdrop-opacity: ; --tw-backdrop-saturate: ; --tw-backdrop-sepia: ; --tw-contain-size: ; --tw-contain-layout: ; --tw-contain-paint: ; --tw-contain-style: ; color: rgb(223, 48, 121); font-family: ui-monospace, SFMono-Regular, &amp;quot;SF Mono&amp;quot;, Menlo, Consolas, &amp;quot;Liberation Mono&amp;quot;, monospace; font-size: 14px; text-align: left; white-space: pre; background-color: rgb(13, 13, 13);&quot; class=&quot;hljs-type&quot;&gt;int&lt;/span&gt;&lt;span style=&quot;color: rgb(255, 255, 255); font-family: ui-monospace, SFMono-Regular, &amp;quot;SF Mono&amp;quot;, Menlo, Consolas, &amp;quot;Liberation Mono&amp;quot;, monospace; font-size: 14px; text-align: left; white-space: pre; background-color: rgb(13, 13, 13);&quot;&gt; mappedValue = (adcValue * maxOutputRange) / maxADCValue;&lt;br/&gt;&lt;br/&gt;&lt;/span&gt;&lt;span style=&quot;border: 0px solid rgb(227, 227, 227); box-sizing: border-box; --tw-border-spacing-x: 0; --tw-border-spacing-y: 0; --tw-translate-x: 0; --tw-translate-y: 0; --tw-rotate: 0; --tw-skew-x: 0; --tw-skew-y: 0; --tw-scale-x: 1; --tw-scale-y: 1; --tw-pan-x: ; --tw-pan-y: ; --tw-pinch-zoom: ; --tw-scroll-snap-strictness: proximity; --tw-gradient-from-position: ; --tw-gradient-via-position: ; --tw-gradient-to-position: ; --tw-ordinal: ; --tw-slashed-zero: ; --tw-numeric-figure: ; --tw-numeric-spacing: ; --tw-numeric-fraction: ; --tw-ring-inset: ; --tw-ring-offset-width: 0px; --tw-ring-offset-color: #fff; --tw-ring-color: rgba(69,89,164,.5); --tw-ring-offset-shadow: 0 0 transparent; --tw-ring-shadow: 0 0 transparent; --tw-shadow: 0 0 transparent; --tw-shadow-colored: 0 0 transparent; --tw-blur: ; --tw-brightness: ; --tw-contrast: ; --tw-grayscale: ; --tw-hue-rotate: ; --tw-invert: ; --tw-saturate: ; --tw-sepia: ; --tw-drop-shadow: ; --tw-backdrop-blur: ; --tw-backdrop-brightness: ; --tw-backdrop-contrast: ; --tw-backdrop-grayscale: ; --tw-backdrop-hue-rotate: ; --tw-backdrop-invert: ; --tw-backdrop-opacity: ; --tw-backdrop-saturate: ; --tw-backdrop-sepia: ; --tw-contain-size: ; --tw-contain-layout: ; --tw-contain-paint: ; --tw-contain-style: ; color: rgba(255, 255, 255, 0.5); font-family: ui-monospace, SFMono-Regular, &amp;quot;SF Mono&amp;quot;, Menlo, Consolas, &amp;quot;Liberation Mono&amp;quot;, monospace; font-size: 14px; text-align: left; white-space: pre; background-color: rgb(13, 13, 13);&quot; class=&quot;hljs-comment&quot;&gt;// Now you can use &#39;mappedValue&#39; for further processing, such as setting motor speed&lt;/span&gt;" style="whiteSpace=wrap;html=1;" parent="1" vertex="1">
          <mxGeometry x="1190" y="7" width="650" height="250" as="geometry" />
        </mxCell>
        <mxCell id="HDrPP6P477nyxnWkKe1h-1" value="&lt;span style=&quot;color: rgb(0, 0, 0); font-family: Helvetica; font-size: 11px; font-style: normal; font-variant-ligatures: normal; font-variant-caps: normal; font-weight: 400; letter-spacing: normal; orphans: 2; text-align: center; text-indent: 0px; text-transform: none; widows: 2; word-spacing: 0px; -webkit-text-stroke-width: 0px; white-space: nowrap; background-color: rgb(255, 255, 255); text-decoration-thickness: initial; text-decoration-style: initial; text-decoration-color: initial; display: inline !important; float: none;&quot;&gt;RX&lt;/span&gt;" style="text;whiteSpace=wrap;html=1;" parent="1" vertex="1">
          <mxGeometry x="570" y="647" width="50" height="40" as="geometry" />
        </mxCell>
        <mxCell id="HDrPP6P477nyxnWkKe1h-3" value="&lt;span style=&quot;color: rgb(0, 0, 0); font-family: Helvetica; font-size: 11px; font-style: normal; font-variant-ligatures: normal; font-variant-caps: normal; font-weight: 400; letter-spacing: normal; orphans: 2; text-align: center; text-indent: 0px; text-transform: none; widows: 2; word-spacing: 0px; -webkit-text-stroke-width: 0px; white-space: nowrap; background-color: rgb(255, 255, 255); text-decoration-thickness: initial; text-decoration-style: initial; text-decoration-color: initial; display: inline !important; float: none;&quot;&gt;Sysclk&lt;/span&gt;" style="text;whiteSpace=wrap;html=1;" parent="1" vertex="1">
          <mxGeometry x="530" y="232" width="70" height="40" as="geometry" />
        </mxCell>
        <mxCell id="HDrPP6P477nyxnWkKe1h-4" value="&lt;span style=&quot;color: rgb(0, 0, 0); font-family: Helvetica; font-size: 11px; font-style: normal; font-variant-ligatures: normal; font-variant-caps: normal; font-weight: 400; letter-spacing: normal; orphans: 2; text-align: center; text-indent: 0px; text-transform: none; widows: 2; word-spacing: 0px; -webkit-text-stroke-width: 0px; white-space: nowrap; background-color: rgb(255, 255, 255); text-decoration-thickness: initial; text-decoration-style: initial; text-decoration-color: initial; display: inline !important; float: none;&quot;&gt;Sysclk&lt;/span&gt;" style="text;whiteSpace=wrap;html=1;" parent="1" vertex="1">
          <mxGeometry x="650" y="560" width="70" height="40" as="geometry" />
        </mxCell>
        <mxCell id="HDrPP6P477nyxnWkKe1h-7" value="TO DO" style="rounded=1;whiteSpace=wrap;html=1;" parent="1" vertex="1">
          <mxGeometry x="17.500000000000004" y="197" width="120" height="60" as="geometry" />
        </mxCell>
        <mxCell id="gj49K_5yhVnI_QWJfe2c-1" value="I2C&amp;nbsp;&lt;div&gt;Module for LCD&lt;/div&gt;" style="whiteSpace=wrap;html=1;" parent="1" vertex="1">
          <mxGeometry x="17.5" y="122" width="120" height="60" as="geometry" />
        </mxCell>
      </root>
    </mxGraphModel>
  </diagram>
  <diagram id="v6L94En3D3QT13XdJzGF" name="Front-end">
    <mxGraphModel dx="1775" dy="1028" grid="1" gridSize="10" guides="1" tooltips="1" connect="1" arrows="1" fold="1" page="1" pageScale="1" pageWidth="1169" pageHeight="827" math="0" shadow="0">
      <root>
        <mxCell id="0" />
        <mxCell id="1" parent="0" />
        <mxCell id="b5R-I5D2KCiA1L1ULsF7-14" style="edgeStyle=orthogonalEdgeStyle;rounded=0;orthogonalLoop=1;jettySize=auto;html=1;entryX=-0.08;entryY=0.496;entryDx=0;entryDy=0;entryPerimeter=0;" parent="1" source="ibTHIfwo59z3VQzriFzZ-75" target="b5R-I5D2KCiA1L1ULsF7-30" edge="1">
          <mxGeometry relative="1" as="geometry">
            <mxPoint x="918.3799999999999" y="594.25" as="targetPoint" />
          </mxGeometry>
        </mxCell>
        <mxCell id="ibTHIfwo59z3VQzriFzZ-75" value="&lt;font color=&quot;#ff0000&quot;&gt;Leakage current input voltage&lt;/font&gt;" style="text;html=1;strokeColor=none;fillColor=none;align=center;verticalAlign=middle;whiteSpace=wrap;rounded=0;fontSize=12;" parent="1" vertex="1">
          <mxGeometry x="763.38" y="584.25" width="60" height="20" as="geometry" />
        </mxCell>
        <mxCell id="BDEl4wCOTAzzYAKLuccR-25" style="edgeStyle=orthogonalEdgeStyle;rounded=0;orthogonalLoop=1;jettySize=auto;html=1;entryX=0;entryY=0.5;entryDx=0;entryDy=0;" parent="1" source="ibTHIfwo59z3VQzriFzZ-77" target="b5R-I5D2KCiA1L1ULsF7-23" edge="1">
          <mxGeometry relative="1" as="geometry" />
        </mxCell>
        <mxCell id="LIqWwvvCg4B5OJfIvF68-13" style="edgeStyle=orthogonalEdgeStyle;rounded=0;orthogonalLoop=1;jettySize=auto;html=1;entryX=0.5;entryY=1;entryDx=0;entryDy=0;" parent="1" source="ibTHIfwo59z3VQzriFzZ-77" target="BDEl4wCOTAzzYAKLuccR-20" edge="1">
          <mxGeometry relative="1" as="geometry">
            <Array as="points">
              <mxPoint x="700.75" y="340" />
              <mxPoint x="925.75" y="340" />
            </Array>
          </mxGeometry>
        </mxCell>
        <mxCell id="ibTHIfwo59z3VQzriFzZ-77" value="Thermocouple(-)" style="text;html=1;strokeColor=#00FF00;fillColor=none;align=center;verticalAlign=middle;whiteSpace=wrap;rounded=0;fontSize=12;" parent="1" vertex="1">
          <mxGeometry x="645.75" y="398.25" width="110" height="20" as="geometry" />
        </mxCell>
        <mxCell id="BDEl4wCOTAzzYAKLuccR-26" style="edgeStyle=orthogonalEdgeStyle;rounded=0;orthogonalLoop=1;jettySize=auto;html=1;entryX=0;entryY=0.5;entryDx=0;entryDy=0;" parent="1" source="ibTHIfwo59z3VQzriFzZ-79" target="b5R-I5D2KCiA1L1ULsF7-23" edge="1">
          <mxGeometry relative="1" as="geometry" />
        </mxCell>
        <mxCell id="ibTHIfwo59z3VQzriFzZ-79" value="Thermocouple(+)" style="text;html=1;strokeColor=#00FF00;fillColor=none;align=center;verticalAlign=middle;whiteSpace=wrap;rounded=0;fontSize=12;" parent="1" vertex="1">
          <mxGeometry x="645.75" y="418.25" width="110" height="20" as="geometry" />
        </mxCell>
        <mxCell id="b5R-I5D2KCiA1L1ULsF7-1" value="Secondary output" style="rounded=0;whiteSpace=wrap;html=1;" parent="1" vertex="1">
          <mxGeometry x="503" y="480" width="120" height="40" as="geometry" />
        </mxCell>
        <mxCell id="b5R-I5D2KCiA1L1ULsF7-2" style="edgeStyle=orthogonalEdgeStyle;rounded=0;orthogonalLoop=1;jettySize=auto;html=1;" parent="1" source="b5R-I5D2KCiA1L1ULsF7-3" target="b5R-I5D2KCiA1L1ULsF7-11" edge="1">
          <mxGeometry relative="1" as="geometry" />
        </mxCell>
        <mxCell id="b5R-I5D2KCiA1L1ULsF7-3" value="Earth, ground" style="rounded=1;whiteSpace=wrap;html=1;" parent="1" vertex="1">
          <mxGeometry x="370" y="636.75" width="80" height="20" as="geometry" />
        </mxCell>
        <mxCell id="BDEl4wCOTAzzYAKLuccR-15" style="edgeStyle=orthogonalEdgeStyle;rounded=0;orthogonalLoop=1;jettySize=auto;html=1;entryX=0;entryY=0.5;entryDx=0;entryDy=0;" parent="1" source="b5R-I5D2KCiA1L1ULsF7-5" target="BDEl4wCOTAzzYAKLuccR-10" edge="1">
          <mxGeometry relative="1" as="geometry" />
        </mxCell>
        <mxCell id="BDEl4wCOTAzzYAKLuccR-16" style="edgeStyle=orthogonalEdgeStyle;rounded=0;orthogonalLoop=1;jettySize=auto;html=1;entryX=0;entryY=0.5;entryDx=0;entryDy=0;" parent="1" source="b5R-I5D2KCiA1L1ULsF7-5" target="b5R-I5D2KCiA1L1ULsF7-11" edge="1">
          <mxGeometry relative="1" as="geometry" />
        </mxCell>
        <mxCell id="b5R-I5D2KCiA1L1ULsF7-5" value="Rogowski coil" style="text;html=1;align=center;verticalAlign=middle;whiteSpace=wrap;rounded=0;strokeColor=#00FF00;" parent="1" vertex="1">
          <mxGeometry x="623" y="597" width="60" height="30" as="geometry" />
        </mxCell>
        <mxCell id="b5R-I5D2KCiA1L1ULsF7-6" value="Low voltage" style="rounded=1;whiteSpace=wrap;html=1;dashed=1;" parent="1" vertex="1">
          <mxGeometry x="377" y="490" width="80" height="20" as="geometry" />
        </mxCell>
        <mxCell id="b5R-I5D2KCiA1L1ULsF7-7" value="" style="shape=cylinder3;whiteSpace=wrap;html=1;boundedLbl=1;backgroundOutline=1;size=15;" parent="1" vertex="1">
          <mxGeometry x="533" y="547" width="60" height="80" as="geometry" />
        </mxCell>
        <mxCell id="b5R-I5D2KCiA1L1ULsF7-8" style="edgeStyle=orthogonalEdgeStyle;rounded=0;orthogonalLoop=1;jettySize=auto;html=1;entryX=0;entryY=0.5;entryDx=0;entryDy=0;" parent="1" source="b5R-I5D2KCiA1L1ULsF7-9" target="b5R-I5D2KCiA1L1ULsF7-5" edge="1">
          <mxGeometry relative="1" as="geometry">
            <mxPoint x="740" y="452.75" as="targetPoint" />
            <Array as="points">
              <mxPoint x="587.75" y="611.75" />
            </Array>
          </mxGeometry>
        </mxCell>
        <mxCell id="b5R-I5D2KCiA1L1ULsF7-9" value="00000" style="rounded=0;whiteSpace=wrap;html=1;" parent="1" vertex="1">
          <mxGeometry x="543" y="597" width="40" height="20" as="geometry" />
        </mxCell>
        <mxCell id="b5R-I5D2KCiA1L1ULsF7-10" style="edgeStyle=orthogonalEdgeStyle;rounded=0;orthogonalLoop=1;jettySize=auto;html=1;entryX=0.5;entryY=0;entryDx=0;entryDy=0;entryPerimeter=0;" parent="1" source="b5R-I5D2KCiA1L1ULsF7-1" target="b5R-I5D2KCiA1L1ULsF7-7" edge="1">
          <mxGeometry relative="1" as="geometry" />
        </mxCell>
        <mxCell id="b5R-I5D2KCiA1L1ULsF7-11" value="" style="triangle;whiteSpace=wrap;html=1;rotation=90;" parent="1" vertex="1">
          <mxGeometry x="640.5" y="686.75" width="25" height="30" as="geometry" />
        </mxCell>
        <mxCell id="b5R-I5D2KCiA1L1ULsF7-19" value="X4" style="text;html=1;align=center;verticalAlign=middle;whiteSpace=wrap;rounded=0;" parent="1" vertex="1">
          <mxGeometry x="623" y="220" width="60" height="30" as="geometry" />
        </mxCell>
        <mxCell id="b5R-I5D2KCiA1L1ULsF7-22" value="" style="group;fontSize=9;fillColor=#00FF00;fontColor=#ffffff;strokeColor=#00FF00;" parent="1" vertex="1" connectable="0">
          <mxGeometry x="824.75" y="380" width="91" height="71.75" as="geometry" />
        </mxCell>
        <mxCell id="b5R-I5D2KCiA1L1ULsF7-23" value="&amp;nbsp;MAX" style="rounded=0;whiteSpace=wrap;html=1;fontSize=12;strokeColor=#00FF00;" parent="b5R-I5D2KCiA1L1ULsF7-22" vertex="1">
          <mxGeometry width="91" height="71.45104166666667" as="geometry" />
        </mxCell>
        <mxCell id="b5R-I5D2KCiA1L1ULsF7-25" value="AVDD" style="text;html=1;align=center;verticalAlign=middle;whiteSpace=wrap;rounded=0;fontSize=6;strokeColor=#FFFFFF;" parent="b5R-I5D2KCiA1L1ULsF7-22" vertex="1">
          <mxGeometry x="5.75" y="29.75" width="24.25" height="11.96" as="geometry" />
        </mxCell>
        <mxCell id="b5R-I5D2KCiA1L1ULsF7-28" value="&lt;span style=&quot;&quot; lang=&quot;NL&quot;&gt;&lt;font color=&quot;#ff0000&quot; style=&quot;font-size: 11px;&quot;&gt;Op-amp for amplifing the 90mA to 1 – 1.5A&amp;nbsp;&lt;/font&gt;&lt;/span&gt;" style="text;html=1;align=center;verticalAlign=middle;whiteSpace=wrap;rounded=0;" parent="1" vertex="1">
          <mxGeometry x="985.75" y="636.5" width="60" height="30" as="geometry" />
        </mxCell>
        <mxCell id="b5R-I5D2KCiA1L1ULsF7-30" value="&lt;span style=&quot;border: 0px solid rgb(227, 227, 227); box-sizing: border-box; --tw-border-spacing-x: 0; --tw-border-spacing-y: 0; --tw-translate-x: 0; --tw-translate-y: 0; --tw-rotate: 0; --tw-skew-x: 0; --tw-skew-y: 0; --tw-scale-x: 1; --tw-scale-y: 1; --tw-pan-x: ; --tw-pan-y: ; --tw-pinch-zoom: ; --tw-scroll-snap-strictness: proximity; --tw-gradient-from-position: ; --tw-gradient-via-position: ; --tw-gradient-to-position: ; --tw-ordinal: ; --tw-slashed-zero: ; --tw-numeric-figure: ; --tw-numeric-spacing: ; --tw-numeric-fraction: ; --tw-ring-inset: ; --tw-ring-offset-width: 0px; --tw-ring-offset-color: #fff; --tw-ring-color: rgba(69,89,164,.5); --tw-ring-offset-shadow: 0 0 transparent; --tw-ring-shadow: 0 0 transparent; --tw-shadow: 0 0 transparent; --tw-shadow-colored: 0 0 transparent; --tw-blur: ; --tw-brightness: ; --tw-contrast: ; --tw-grayscale: ; --tw-hue-rotate: ; --tw-invert: ; --tw-saturate: ; --tw-sepia: ; --tw-drop-shadow: ; --tw-backdrop-blur: ; --tw-backdrop-brightness: ; --tw-backdrop-contrast: ; --tw-backdrop-grayscale: ; --tw-backdrop-hue-rotate: ; --tw-backdrop-invert: ; --tw-backdrop-opacity: ; --tw-backdrop-saturate: ; --tw-backdrop-sepia: ; --tw-contain-size: ; --tw-contain-layout: ; --tw-contain-paint: ; --tw-contain-style: ; font-weight: 600; color: rgb(236, 236, 236); font-family: ui-sans-serif, -apple-system, system-ui, &amp;quot;Segoe UI&amp;quot;, Roboto, Ubuntu, Cantarell, &amp;quot;Noto Sans&amp;quot;, sans-serif, Helvetica, &amp;quot;Apple Color Emoji&amp;quot;, Arial, &amp;quot;Segoe UI Emoji&amp;quot;, &amp;quot;Segoe UI Symbol&amp;quot;; font-size: 16px; text-align: left; white-space-collapse: preserve; background-color: rgb(33, 33, 33);&quot;&gt;LM324&lt;/span&gt;&lt;span style=&quot;color: rgb(236, 236, 236); font-family: ui-sans-serif, -apple-system, system-ui, &amp;quot;Segoe UI&amp;quot;, Roboto, Ubuntu, Cantarell, &amp;quot;Noto Sans&amp;quot;, sans-serif, Helvetica, &amp;quot;Apple Color Emoji&amp;quot;, Arial, &amp;quot;Segoe UI Emoji&amp;quot;, &amp;quot;Segoe UI Symbol&amp;quot;; font-size: 16px; text-align: left; white-space-collapse: preserve; background-color: rgb(33, 33, 33);&quot;&gt; &lt;/span&gt;" style="triangle;whiteSpace=wrap;html=1;strokeColor=#00FF00;" parent="1" vertex="1">
          <mxGeometry x="933.88" y="569.75" width="45.75" height="49" as="geometry" />
        </mxCell>
        <mxCell id="BDEl4wCOTAzzYAKLuccR-8" value="&lt;span style=&quot;&quot; lang=&quot;NL&quot;&gt;&lt;font color=&quot;#ff0000&quot; style=&quot;font-size: 11px;&quot;&gt;Gain: =1+R2/R1&amp;nbsp;&lt;/font&gt;&lt;/span&gt;" style="text;html=1;align=center;verticalAlign=middle;whiteSpace=wrap;rounded=0;" parent="1" vertex="1">
          <mxGeometry x="875.75" y="651.5" width="60" height="10" as="geometry" />
        </mxCell>
        <mxCell id="BDEl4wCOTAzzYAKLuccR-17" style="edgeStyle=orthogonalEdgeStyle;rounded=0;orthogonalLoop=1;jettySize=auto;html=1;" parent="1" source="BDEl4wCOTAzzYAKLuccR-10" edge="1">
          <mxGeometry relative="1" as="geometry">
            <mxPoint x="1325.75" y="611.75" as="targetPoint" />
          </mxGeometry>
        </mxCell>
        <mxCell id="kmtLrXUKIpIDMKzzeOlv-4" value="&lt;span style=&quot;color: rgb(236, 236, 236); font-family: ui-monospace, SFMono-Regular, &amp;quot;SF Mono&amp;quot;, Menlo, Consolas, &amp;quot;Liberation Mono&amp;quot;, monospace; font-size: 14px; font-weight: 600; text-align: left; white-space: pre-wrap; background-color: rgb(33, 33, 33);&quot;&gt;ADC_Value&lt;/span&gt;" style="edgeLabel;html=1;align=center;verticalAlign=middle;resizable=0;points=[];" parent="BDEl4wCOTAzzYAKLuccR-17" vertex="1" connectable="0">
          <mxGeometry x="-0.1576" y="-3" relative="1" as="geometry">
            <mxPoint y="-3" as="offset" />
          </mxGeometry>
        </mxCell>
        <mxCell id="kmtLrXUKIpIDMKzzeOlv-1" style="edgeStyle=orthogonalEdgeStyle;rounded=0;orthogonalLoop=1;jettySize=auto;html=1;" parent="1" source="BDEl4wCOTAzzYAKLuccR-10" target="BDEl4wCOTAzzYAKLuccR-23" edge="1">
          <mxGeometry relative="1" as="geometry" />
        </mxCell>
        <mxCell id="BDEl4wCOTAzzYAKLuccR-10" value="" style="rounded=0;whiteSpace=wrap;html=1;fontColor=default;fillColor=none;" parent="1" vertex="1">
          <mxGeometry x="735.75" y="540.5" width="320" height="143" as="geometry" />
        </mxCell>
        <mxCell id="BDEl4wCOTAzzYAKLuccR-12" value="&lt;span style=&quot;&quot; lang=&quot;NL&quot;&gt;&lt;font color=&quot;#ff0000&quot; style=&quot;font-size: 11px;&quot;&gt;G= V_outmax/V0.9mA&lt;/font&gt;&lt;/span&gt;" style="text;html=1;align=center;verticalAlign=middle;whiteSpace=wrap;rounded=0;" parent="1" vertex="1">
          <mxGeometry x="755.75" y="636.5" width="90" height="40" as="geometry" />
        </mxCell>
        <mxCell id="BDEl4wCOTAzzYAKLuccR-20" value="LED" style="rounded=0;whiteSpace=wrap;html=1;fontSize=12;fillColor=none;strokeColor=#00FF00;" parent="1" vertex="1">
          <mxGeometry x="905.75" y="260" width="40" height="40" as="geometry" />
        </mxCell>
        <mxCell id="BDEl4wCOTAzzYAKLuccR-23" value="LED" style="rounded=0;whiteSpace=wrap;html=1;fontSize=12;fillColor=none;strokeColor=#00FF00;" parent="1" vertex="1">
          <mxGeometry x="1015.75" y="260" width="40" height="40" as="geometry" />
        </mxCell>
        <mxCell id="LIqWwvvCg4B5OJfIvF68-14" value="" style="rounded=0;whiteSpace=wrap;html=1;fillColor=none;" parent="1" vertex="1">
          <mxGeometry x="630.37" y="250" width="325.25" height="210.5" as="geometry" />
        </mxCell>
        <mxCell id="kmtLrXUKIpIDMKzzeOlv-2" value="Display" style="rounded=0;whiteSpace=wrap;html=1;" parent="1" vertex="1">
          <mxGeometry x="1255.75" y="240" width="120" height="60" as="geometry" />
        </mxCell>
        <mxCell id="kmtLrXUKIpIDMKzzeOlv-3" value="Display" style="rounded=0;whiteSpace=wrap;html=1;fillColor=none;" parent="1" vertex="1">
          <mxGeometry x="895.75" y="220" width="500" height="100" as="geometry" />
        </mxCell>
        <mxCell id="kvs4yBrG4ke7z4ZtqHeN-1" value="" style="endArrow=classic;html=1;rounded=0;entryX=1;entryY=0.5;entryDx=0;entryDy=0;" parent="1" target="kmtLrXUKIpIDMKzzeOlv-3" edge="1">
          <mxGeometry width="50" height="50" relative="1" as="geometry">
            <mxPoint x="1605.75" y="270" as="sourcePoint" />
            <mxPoint x="1555.75" y="260" as="targetPoint" />
          </mxGeometry>
        </mxCell>
        <mxCell id="kvs4yBrG4ke7z4ZtqHeN-2" value="I2C MODULE" style="edgeLabel;html=1;align=center;verticalAlign=middle;resizable=0;points=[];" parent="kvs4yBrG4ke7z4ZtqHeN-1" vertex="1" connectable="0">
          <mxGeometry x="-0.5333" relative="1" as="geometry">
            <mxPoint x="-51" as="offset" />
          </mxGeometry>
        </mxCell>
      </root>
    </mxGraphModel>
  </diagram>
  <diagram id="_jHgzHqUKjuUYQ-4PCpJ" name="Back-end">
    <mxGraphModel dx="778" dy="806" grid="1" gridSize="10" guides="1" tooltips="1" connect="1" arrows="1" fold="1" page="1" pageScale="1" pageWidth="1169" pageHeight="827" math="0" shadow="0">
      <root>
        <mxCell id="0" />
        <mxCell id="1" parent="0" />
        <mxCell id="qrxT75n_yjTuzWgX0_lb-1" value="GUI" style="rounded=0;whiteSpace=wrap;html=1;" parent="1" vertex="1">
          <mxGeometry x="480" y="128" width="120" height="60" as="geometry" />
        </mxCell>
        <mxCell id="qrxT75n_yjTuzWgX0_lb-5" value="" style="endArrow=none;dashed=1;html=1;dashPattern=1 3;strokeWidth=2;rounded=0;exitX=0.5;exitY=0;exitDx=0;exitDy=0;" parent="1" source="qrxT75n_yjTuzWgX0_lb-1" edge="1">
          <mxGeometry width="50" height="50" relative="1" as="geometry">
            <mxPoint x="550" y="54" as="sourcePoint" />
            <mxPoint x="540" y="44" as="targetPoint" />
          </mxGeometry>
        </mxCell>
        <mxCell id="qrxT75n_yjTuzWgX0_lb-14" value="Set:&amp;nbsp; &amp;nbsp; &amp;nbsp; &amp;nbsp; &amp;nbsp; &amp;nbsp; &amp;nbsp; &amp;nbsp; &amp;nbsp; &amp;nbsp; &amp;nbsp;" style="rounded=0;whiteSpace=wrap;html=1;strokeColor=#00FFFF;" parent="1" vertex="1">
          <mxGeometry x="272.5" y="517.5" width="120" height="60" as="geometry" />
        </mxCell>
        <mxCell id="qrxT75n_yjTuzWgX0_lb-18" value="on&amp;nbsp; &amp;nbsp; &amp;nbsp; &amp;nbsp; &amp;nbsp; &amp;nbsp;" style="rounded=0;whiteSpace=wrap;html=1;strokeColor=#00FFFF;" parent="1" vertex="1">
          <mxGeometry x="77.5" y="512.5" width="80" height="30" as="geometry" />
        </mxCell>
        <mxCell id="qrxT75n_yjTuzWgX0_lb-19" value="off" style="rounded=0;whiteSpace=wrap;html=1;strokeColor=#00FFFF;" parent="1" vertex="1">
          <mxGeometry x="117.5" y="512.5" width="40" height="30" as="geometry" />
        </mxCell>
        <mxCell id="oqiv_rRMKMGtEA998aUq-7" value="" style="edgeStyle=orthogonalEdgeStyle;rounded=0;orthogonalLoop=1;jettySize=auto;html=1;" parent="1" source="qrxT75n_yjTuzWgX0_lb-21" target="oqiv_rRMKMGtEA998aUq-6" edge="1">
          <mxGeometry relative="1" as="geometry" />
        </mxCell>
        <mxCell id="qrxT75n_yjTuzWgX0_lb-21" value="Window 1" style="text;html=1;align=center;verticalAlign=middle;whiteSpace=wrap;rounded=0;strokeColor=default;" parent="1" vertex="1">
          <mxGeometry x="175" y="250.36" width="60" height="30" as="geometry" />
        </mxCell>
        <mxCell id="qrxT75n_yjTuzWgX0_lb-24" value="Window 2" style="text;html=1;align=center;verticalAlign=middle;whiteSpace=wrap;rounded=0;strokeColor=default;" parent="1" vertex="1">
          <mxGeometry x="861" y="240" width="60" height="30" as="geometry" />
        </mxCell>
        <mxCell id="qrxT75n_yjTuzWgX0_lb-31" value="&lt;span style=&quot;color: rgb(0, 255, 0); text-align: left;&quot;&gt;I3&lt;/span&gt;" style="ellipse;whiteSpace=wrap;html=1;aspect=fixed;" parent="1" vertex="1">
          <mxGeometry x="247.5" y="630" width="40" height="40" as="geometry" />
        </mxCell>
        <mxCell id="oqiv_rRMKMGtEA998aUq-4" value="" style="edgeStyle=orthogonalEdgeStyle;rounded=0;orthogonalLoop=1;jettySize=auto;html=1;" parent="1" source="qrxT75n_yjTuzWgX0_lb-32" target="oqiv_rRMKMGtEA998aUq-1" edge="1">
          <mxGeometry relative="1" as="geometry" />
        </mxCell>
        <mxCell id="qrxT75n_yjTuzWgX0_lb-32" value="Record/Save" style="rounded=1;whiteSpace=wrap;html=1;strokeColor=#00FFFF;" parent="1" vertex="1">
          <mxGeometry x="750" y="371" width="100" height="40" as="geometry" />
        </mxCell>
        <mxCell id="oqiv_rRMKMGtEA998aUq-2" value="" style="edgeStyle=orthogonalEdgeStyle;rounded=0;orthogonalLoop=1;jettySize=auto;html=1;" parent="1" source="qrxT75n_yjTuzWgX0_lb-33" target="oqiv_rRMKMGtEA998aUq-1" edge="1">
          <mxGeometry relative="1" as="geometry" />
        </mxCell>
        <mxCell id="qrxT75n_yjTuzWgX0_lb-33" value="Analysis" style="rounded=1;whiteSpace=wrap;html=1;strokeColor=#00FFFF;" parent="1" vertex="1">
          <mxGeometry x="750" y="321" width="100" height="40" as="geometry" />
        </mxCell>
        <mxCell id="qrxT75n_yjTuzWgX0_lb-34" value="Function" style="text;html=1;align=center;verticalAlign=middle;whiteSpace=wrap;rounded=0;" parent="1" vertex="1">
          <mxGeometry x="861" y="300" width="60" height="30" as="geometry" />
        </mxCell>
        <mxCell id="qrxT75n_yjTuzWgX0_lb-36" value="Function" style="text;html=1;align=center;verticalAlign=middle;whiteSpace=wrap;rounded=0;" parent="1" vertex="1">
          <mxGeometry x="87.5" y="487.5" width="60" height="30" as="geometry" />
        </mxCell>
        <mxCell id="qrxT75n_yjTuzWgX0_lb-37" value="Function&lt;div&gt;0-60&lt;/div&gt;" style="text;html=1;align=center;verticalAlign=middle;whiteSpace=wrap;rounded=0;" parent="1" vertex="1">
          <mxGeometry x="302.5" y="482.5" width="60" height="30" as="geometry" />
        </mxCell>
        <mxCell id="oqiv_rRMKMGtEA998aUq-1" value="Data can analysed and stored/Exported&amp;nbsp;&amp;nbsp;" style="rounded=1;whiteSpace=wrap;html=1;strokeColor=#00FFFF;" parent="1" vertex="1">
          <mxGeometry x="910" y="331" width="100" height="60" as="geometry" />
        </mxCell>
        <mxCell id="oqiv_rRMKMGtEA998aUq-6" value="Data Indications/aquisition&amp;nbsp;" style="rounded=0;whiteSpace=wrap;html=1;" parent="1" vertex="1">
          <mxGeometry x="145" y="310.36" width="120" height="60" as="geometry" />
        </mxCell>
        <mxCell id="keqoN_Pa4e7u7h_AqavJ-1" value="&lt;span style=&quot;color: rgb(0, 255, 0); text-align: left;&quot;&gt;I1&lt;/span&gt;" style="ellipse;whiteSpace=wrap;html=1;aspect=fixed;" parent="1" vertex="1">
          <mxGeometry x="147.5" y="630" width="40" height="40" as="geometry" />
        </mxCell>
        <mxCell id="McnHk6KsDaR5aPjkhH1q-1" value="&lt;span style=&quot;color: rgb(0, 255, 0); text-align: left;&quot;&gt;I2&lt;/span&gt;" style="ellipse;whiteSpace=wrap;html=1;aspect=fixed;" parent="1" vertex="1">
          <mxGeometry x="197.5" y="630" width="40" height="40" as="geometry" />
        </mxCell>
        <mxCell id="w4E91_UoIqYPg0u4dptd-1" value="indications of sensor/power&amp;nbsp;" style="text;html=1;align=center;verticalAlign=middle;whiteSpace=wrap;rounded=0;" parent="1" vertex="1">
          <mxGeometry x="17.5" y="640" width="60" height="30" as="geometry" />
        </mxCell>
        <mxCell id="hOqm7g29kyDBXYdpewjI-1" value="&lt;span style=&quot;color: rgb(0, 255, 0); text-align: left;&quot;&gt;Power&lt;/span&gt;" style="ellipse;whiteSpace=wrap;html=1;aspect=fixed;" parent="1" vertex="1">
          <mxGeometry x="97.5" y="567.5" width="40" height="40" as="geometry" />
        </mxCell>
        <mxCell id="hOqm7g29kyDBXYdpewjI-3" value="graph 1" style="text;html=1;align=center;verticalAlign=middle;whiteSpace=wrap;rounded=0;" parent="1" vertex="1">
          <mxGeometry x="720.5" y="432.5" width="60" height="30" as="geometry" />
        </mxCell>
        <mxCell id="hOqm7g29kyDBXYdpewjI-4" value="" style="shape=image;verticalLabelPosition=bottom;labelBackgroundColor=default;verticalAlign=top;aspect=fixed;imageAspect=0;image=data:image/png,iVBORw0KGgoAAAANSUhEUgAAAh0AAAEWCAYAAADCTyW5AAAAAXNSR0IArs4c6QAAAARnQU1BAACxjwv8YQUAAAAJcEhZcwAAFxEAABcRAcom8z8AANIrSURBVHhe7J0HXFRX/vbZbHaz/Z/spttjjzX2GnuvMdFYYk/vscfeO72IiFgBBcVesIIICIiVJiIoFtoM0+jF5z3PGSavazQbG6KcJzmfQbhz586dO+d8769aQUlJSUlJSUmpFKSgQ0lJSUlJSalUpKBDSUlJSUlJqVSkoENJSUlJSUmpVKSgQ0lJSUlJSalUpKBDSUlJSUlJqVSkoENJSUlJSUmpVKSgQ0lJSUlJSalUpKBDSUlJSUlJqVSkoENJSUlJSUmpVKSgQ0lJSUlJSalUpKBDSUlJSUlJqVSkoENJSUlJSUmpVKSgQ0lJSUlJSalUpKBDSUlJSUlJqVSkoENJSUlJSUmpVKSgQ0lJSUlJSalUpKBDSUlJSUlJqVSkoENJSUlJSUmpVKSgQ0lJSUlJSalUpKBDSUlJSUlJqVSkoENJSUlJSUmpVKSgQ0lJSUlJSalUpKBDSUlJSUlJqVSkoENJSUlJSUmpVKSgQ0lJSUlJSalUpKBDSUlJSUlJqVSkoENJSUlJSUmpVKSgQ0lJSUlJSalUpKBDSUlJSUlJqVSkoENJSUlJSUmpVKSgQ+mp6Pbt2yguLkZRUREKCwvl4M/8vZKSkpLS8ykFHUpPRQSO/Px85OTkwGg0ysGfCR5KSkpKSs+nFHQoPRUVFBTAZDIhPT0d169fl0Oj0SAvL69kCyUlJSWl500KOpSeinJzc5GRkYHExERcuHBBjqtXr0oQUVJSUlJ6PqWgQ6nUxbiNrKws3Lx5ExcvXsTJkycRHByM2NhY6HS6kq2UlJSUlJ43KehQKnUROmjRSE5ORmRkJI4cOYKjR4/i/Pnz0Gq1JVspKT0dWYKc7xwqwLmsSHwOxUVAUaEY4vF2MT+wkr8pPQtS0KFU6roXdHAo6CiD4oRejiZ1XpsMZrYEOWdnZ0tXILOrFHg8XRUWFiMvOxe5eiPydQYUG00AY8AIIYQRpWdCCjqUSl2cvOleYfDo2bNncfz4cTkY15GZmVmylVKpi/O2uKuXd5BikUWR+Jn/LkeLLYGDkKHX65GWloaUlBQZ4EwAUdBRyhLn+7b4PArzCqDVmJB4JR1R56/hQsRlXD6XiLQrN5GbaWBUOjc2P0epzEtBh1KpywIdN27cwLlz5xAQECAH4zsUdDwd3S4oFHeORhRlZKAoLR3F2kzcFnf5KKQJu/xM6MyqMhgM8tq8dOkSoqOjZbAzY40UdJSWxHnOywV0mSi4lYL0uCREBEZh29ZwrFodCCfno9jiGYxTgdFIvSau1bz8kucpPQtS0KFU6lLQcQ9xQbOM0lRRMYr1BhReTUbB+YvIOxWO/IjTKIiLR3GGRqzChSUblg8xZZuWjfj4eISFhckAZ7r9aPVgbIfSExSv/RwBuulpQEI8iiJPw3jkOKK99sFrmS+m/LAZg0etw8CR6/H9VD94bAjBhfPJyM3KKdmB0rMgBR1Kpa5yCR3iPd/Oz0exwYii9HQUiTs4PhaLu+rb9EvLoLgnDB3F4hhyclEs7tqLUtNQcPUa8qOikRtwAtk+25HlthZGl9XI8vRGbmAQCq9dN1s6ypHoWklNTUVUVJS8Jg8fPizhg5lWCjoek8S1zmuelrVirVZei4XJN5B/KV4AbwQKDx5EoZcncp2ckb5wOYJ/WoKVw5dgULdlqNNyBSq3skGHjzzw82J/HA64JCDRJD6bUoZ1pYeWgg6lUld5hA76pot1ehSIiTXvZAhyxR1cXsgpFF6+LCdeAskT1e1iFGfqUHglEXkRkcg5fBQmARqGVWugmz0fmV98C+3IcdB+/jX0i5YiZ/deua2M6yhHInQwjoPxRceOHcNBsQCGhobKa1VBx+MRgYNuvIL4y8gPP43co8eRvWM3jOs3wWBjh6yff0bWZ5/D8PEw3Og3BMe7j8Gi9t+jd/PZqNBgCf5efwVqd12F0ZN2wWvnBSRe0yI3r3xZ5J5lKehQKnWVS+goLEJRSipyT5yEyWMDjA4uyPLagrywcPl7ae14XCq5k7ydlS1dJ9w/YSc3OFRM7rtgcl0Dw4Il0P0wCdoRY5DRuQdSGzVH6nstkd5nIHQzZiFnzz4UXr3GD6tkp+VDd1o6GNx86NAhnDp1Slk6HqOKxXe/IOGKhI2s9RthWLoCukk/QzP+S2g+/BiZnbpA914zaOvUR3Ktxgh8twtWNh6FQc1+RrX3luFvjWxRuaMrBny9HY4bI3AmKgV6Y664VkteQKlMS0GHUqmrXLpXim+j8MZNsZjvl5YE3bRZMDq7Ik+AQHFaOm7LCPxH122xMNJlU5h4FfkRkcg9dARZW7fBIEBDv2Q5Mif/DN24L6AbNBS6Lr2ga94WGdVqI+W1irhVvS7S+g2S2+WeCJLun/Im5V558qJbJf/8BWR5boF+xmwBvqOR0aU3Mlq0R0bDZsisUQfatytD8/pbuPlGFYRWbgrnuh9gRJMJqN10Kf7xnj3e7uCGruO2YYFzMAJOXUVahklc+4o6ngUp6FAqdZXPmA5I6Mj22wXdrHnInDhNWhzyz5431xt4TAsa3TiMFyHMZK3fBP3s+dB8+hXSBn2MtJ79kNaxGzQt20PXuCWM9d6DsWZ96CpUQ9qbVaSlI+Pzb2Dy2iJN38U55S9Aj9DBoFFmrQQGBsr6MeHh4Qo6HqOKTSbknzsP0/qN0H33EzK69UKGuBa11eog85060FWtCW3Fash8uxIyKlTBhaoNsbFOL3zR+Cs0brIA/2lK6HBH+5HbMGl5AHYfjsPV65myjodS2ZeCDqVSV7mEjqJiFF5LRvb2ndDNWQDdjDnI2uyNwoTEx2bloGRdg+s3kXPoKAzLbZDxyViktO6Am7XqI0VM6KlVayO9ipjUq9SCQQxTldrQV6qOdP6+ay/o5i1CblCwjD/h51TepKDjyeu2OMeFiYnI2btfQPE8aPp+gIx3GyNTXId6cW3qq9UWAFILumri39XeQUL1+thRuzMmNRiNdo1moGJTa1TssAYthvrg89mHsHH7ecRcSkOeiut4JqSgQ6nUVe6gQyxWt3NyUBifIKGDPmwCASddRu6LE1Ky4WOQeC3W2cgLCoHB3gkZI8YgpUkrpFR8B+lvVUXa2yWjQjVxN/kOdJVrIlNM9Ol1GyPjw6EwuKxGQdwl3GZxsHIoBR1PXjKo2mBAQVQ0TOs2IPPzr5DRqj200sohYEMMjYAO/Ts1kPXOO7jxTl0crtkO89/9GL0aTkTNpstQqb0rGgz0xJAf98DeIwxhZ67DmKXqdTwLUtChVOoqd9DBwlsaLQrOXZCpqUYHZ5jWeAgwCJb+7cet4uwcFAjAYXaK9sdJSO/YDek16yFTTOZaMTIEZKQK2EivVAOaqrWhqdVATPrvQ/vFN8ja4osiscCWVynoKCXRDSi+/9m7diNz8lSkd+6BjNr1zddo5RrIqEyrRzVkV6mCtGq1EVK7DRwaDsbwZhPQuOUSVGnnjOo9PNB1zFbMsj6OQ4EJ0GSqeh3PghR0KJW6yht00JxclHxdpsoyY8W0yg1Z3luRH3lW/O3RJ0qez7ttJcxayTkZDN3iZcjo/yE0DZpCX72uNF1rqtRCGqGjYnVxR1kHmobNoek9ALqZc5Hjf1hWIy2vUtDxGEULnmXcJVr+CmJiYdywCRlffovUNh0kXGgqvoOMt6oi4+0q0L1dCdlvVxDXaw2cq98Om9qMwLedf0b7jitQtb0T3mq/Ck0GrsfXM/bBd280bqQ8foBXevxS0KFU6ipv0FFsykJhbBxyD/hLc7LJzR05O3aj4GK0BJI7xenZPH49Ud9P94KO2+L85oZFQL/SFpqPhkLbuAV0Nd6FnneSVWqKO0lxN/l2VQkd2pbvQzdqPIxOq5AXfvqJWF+eFSnoeIy6H3CIc1xw6RKyfP2QOWW6DHBOebcRUivVkPFGzKbKYExH5XeQVbEStNVrI751d+z74BvMG74MfT5wRvVOznilhQPe6bwKQ7/dBnevSMQnalBU9Pu/N0pPRwo6lEpd5Q469AbkR55Btu92mFavQZYAj9xDh2VhMPY3uZ2XLyP6ZU0NVmkUk7KMqbjHhH0v3b2VdK8kXUX27n0wzJgDbZ+B0MrsAHEnKSb2DAaOVngH6a9VED/XgLZ9F+h/nCyOzw/5lxN+BULlSQo6HqPucf3yOidw5Ijvgm7aTGQQOOo2RgpdftXfRcZ7LaBp9T40LdtB17AJjDVrI7N+I9zo8yFOfTsXLtPWYcRnm1Cnx2r8o4kt3mzlgD6jPWHtFoIzF28hO6dAzi9KZVcKOpRKXeUNOoo0Whm/kbVuI4zOq5Dl5Y38kFAUXb9hLgXNeI+ERGluLkhIMDdcyxIwUvTgJciL8/IEOFxB9p79MC5YAv3Hn0DXqj00Neshndkr1esiVfycUrU2Ul6viDTGdXTtBcP8RcgNPIHC9IyHet3nRQo6Hk3S6lYy7haLguVHxyDbZxsM02ZIl1567QZIe6sq0sV1mdGmA7QfDkXm2M+QOWocdP0+gKFde+g7dELm+M8Rv8IVPs778M303Wg8cB3+KaDj1WZ26PTxBsyxPo6A0CRkaLNQVM6q6D5rUtChVOoqV9Ah3ivrZtC1YnR0gdHOAdnbtqPg/AUBGxoU6/Wy3DgrlebsPyiLchVcYmn0zAdOpWW3TVZ6zN65F4bZ86EbOBi691ois1Z9aOo0RFrztkjt1B2p3XojtW0ns0m73nvI+GCwDG5lwaZidpYtx1LQ8Wj6BTpK/i3Ff+eLazMuDlkCOPSTf4a2R19k1G2EjDdYi+MdaAUY68Z8Kivlsmie0d4ZxpmzYfr0M2SNH4+chQuR6rMbh3eEYYYAjHbDPfFqSwe83twebT5Yj5/m+WPHwVgkJquS6GVdCjqUSl3lCjqKClFIENjiC8OiZTAstxZQsAuFdGOIc1As3m/+2XNyMja6rUWW7zbZG+VBS6MTFvIErGT57YJx1nwYCBx0qbxZGRnMWGndAZoRY6AVE37mrLnQfvsjMsQ2aWLy137+FbI2ecraCbeLy6+Vg1LQ8WiyQMedki6V+MsCtv2gnzYT2u59oKleF5rXK0LzhhjiOtUN+wQmG3sZyMy4orzQMOTt3I08V1fkOzqgaJsPsk5FIOxkHJa7n0Lvz3xR5X0XvN3SEc36emDcpN1Yu+UMzkXfgtH0GFsKKD12KehQKnWVJ+hgdkr+xSiY1m2Ebs586JetRM7efTKbBew6q9OJSTYCxvUbZLMrBpqyOFfh9Ru/O7aCFo58psj67hCT+izo+w+C8b2W0DN+gzU5xM+aUeNgsLZH9q49cmJnFo1h0VJkTpoKw+JlyDlwUIBOygMFsD6PUtDxeFWcmyctHAQOulS0vQdAU6eBBI7Miu8gs1EzZH4wWF6LuUeOyqq97MTM+KbiK1dQHBaG4qBA3D5/RnZFjr5wHW4CLj6ZsAsNermjajsXNOrpjg8/98XyVScReCoJmszyba0r61LQoVTqKjfQIRYpFkGi5YJ1OXRzF4qF304s8P7mWhgsksSS0GfOwuTpBQPrd2zcjNzgkN8NHdJPzqJjO3bBMH029H0GQl+nIfSc0AkdYlLPGDICer7usQAUJV2V7h7Gj+QSPrb4IEfcUeaLz4GunvIegqeg4/GJWVvSwrFdwPDPM6VLRVO7PjRvVIL2zSrQNW4B/ZDhMC5YjJz9BwRUXBVzwx3nmJY+TQaQIr4r2gzcFt+lpKQM+OyLwvdzD6L94E2o3dkN73Zdgy7DPDF18WHsORyLlDRTyQ6UyqIUdCiVusoLdDADpUijkebirE0CKmwcYHJbi1wu/ikpEkpk+mCsuBPcvUf2omAaYV5YBIrEHd//gg66X/Lj4mHatkNmqRj7fwRTw2bQv1kZWtY6aNQcmsHDzdaVo8fMIMOJXBzXbQE7hdevy7tQ2WclNe2B3DnPqxR0PIDoRrGMu8S+PaxsK4FDwLC2zwBoatWD9vWK0L5dFZn1m0A/6GOYaOE4cFC2CLhnrx+6+wryxTVbIF2VaelGHA5KwDy7QPQf74OGPdehZkc36WL5dMpubPY7h2s39CVPViqLUtChVOoqN9BRUIAirRYFUTHSqkATM0ufsyhYUYa4g7NAx6V45OzbD9OGTcjask1murBLLMHgfiIgyKDR7bvEXeQsaeEw1m8KU9Va0FWsLoEjY/AI6AgcRwRwJF//FVQQivj6Em4YtMpF9R4LSHmSgo4H0L2AQ/xbXpsyhmMHdD/PhKbXABk0SgtHpgAOXZOW0H80DMb5i8V1fwCFV69Kq9/vEVvYh5+7DqcN4Rj5024067cRVdutQu1OrvjoSx84bwhDbEKGOIzyfR2XZSnoUCp1lSdLB03MdGcUiru+ggsXpVuDFge6VThByzbfZ84hy9MbBht7GJ1cS9wd5uwWCQJ3iUGj+ZzU/XbCOGMujP0GwSAmdf3rYlKv+A40tHAMEcCx1BrZh+knvyGzB36XyvlkXWahg5/L7/1sHmTbR9E9Xke6VC7TpbJTAMcsaHr2Q0aNetCIa1P7RmWzhYPAIeOI/FGQlCSuzbssbL9x7Dl5BYhLSIfXrov4ZrY/2nywGRVaOolhj24jNmKxY6CAkhtiO5XBUlaloEOp1FVuYjrE+zRbE/LMmSpGE26LSVlaForMk6Ks4XEyRLa5189ZAP3CpcjauBl5IadkBsvd0EHrScHlBGSJSV3/82wY+n0I03stYaxcQ95FpkuXygjoBXDkHKKFI/n3A4dS2YeO31iQpX7vdk9A0sIRF48cP8ZwzEJGn4FIr9MIGa8JGK7AoNHm0A8aYrZwHDiIgmvX5HfjV/qNY88vLML1W3rsOx6Pn5cdR8chnni7uT1ee2+lABB3TF3sD//Ay7JeR/FTOAdK/1sKOpRKXeUGOv6XxHkoSs9AXnCouXDYspUwrLRFltdW5IWFyyJhd6pIAAsrhjJo1Dh9NnQMGq3dCMZK1aGrUgua91ogg8XAlgngOHIMRddvPta2+eVBZR46iookRN5mUbkMjexSzGuIAcvSfUY3hWXbUtQvabHsoiyAg0Gj6TXrI+P1StC8Xhk6AseQETAtXCLr0dDCUSyA/Ff6H8deJD4DrS4HQRHXsMQ5GL1GeqFiC1u8Un8ZGvd0wRfTdsN71wUkXNUiN19ZO8qiFHQolboUdJSI2SvaTNniO+/QEeT4bJdxH7lHj8sATy4kFvGOMC/ukjloVACHYcBHMHAif7MKtBWqIaNJK2iGjYR+hS2yxfPNQaPKwvGgKusxHQQOplmzoFx+xGkZ/5MfHiH+fUX+/mlYtWTQKIOhxbVJ61umgGGNAA6mxTJoVFuvCXQfDIFxIYNG/WV80T2DRn+HOHew1Pm5mBQ4bwjH4C98UL2tvYCOpajTyRFDv/aF0/ownD5/EzpDbmmzl9LvkIIOpVKXgo4S8a5V3CHKmA9xl8jW9/nnz8vCYYznsPRfYS8WS2Ae63Doeg+EoUFTGKrVRiYbtwngyBg+CnprW5kZw1oHysLxcCrz0CGOj9dLfmgYsrx9ZDZU1tZtEkBoGStt6JAulUu8NksKf/XsD03dRtAyhoNBo++1hI4xHPMWIXvvfpkWe7fL8EFVWFgkLRmefucxftJONOjmgjfeW4ma7zuhzxhvLLA7gSMnEnAr1SBeSlFHWZOCDqVSl4IOSkyGnHxpKmefFRZD0mbKPiwsjmSJ5mcPljxxF5nlsx1GARzGvoNgrNtYpsVmVq4OTdOW0I4YDR0Lfx0PRNHNW2ZYUXoolXnoyMlB4dVryN3vL61aOsb12DshLzAIxeyb87g/e5oKLOMuMaBZwrDfTuinzzIDR/W6Mi02k0HN9d8TwDHUHDRKl0pikuwN9F+6x37/lzh/pGWYsO9IHCbNP4g2H6xF5VaOqNHBFZ0+9sSE+YexbW8UrggwoTtGqWxJQYdSqUtBR4k44XJS5CBkWEbJRMm7VqbTmsSdLPtVGHoNhKlRC5gq15SBebIj5/CRspJpjgAOZeF4dJV56BDfG1lW328XdLPnQ/vdBAkfdLMQXB9mEf9NcX/32Kc5LTYeOdvN7j5t34ElFo6K0FV8R8Zw6AYNgWHeIgkchQwavRs4qIc8XpY6DwpLwkK7APQa5YU6ndegVid3tBq4CeMm74W792lcjE1BfoEZ3pXKjhR0KJW6FHT8b7E9vUyL5aQ+dQb03fvCUKMejG9Vg6FSTWgbm4NG9SttkRsQKE3utwvVBPuoKvPQYTTK9OtsXz/o5i6AdtI0GJxckR955t6ZII+qu6CA/2KskaXwl4GVRpkWy6aCstJoZeibtIRh2Ehp4cguCRq9pwXmPkDze5SfX4SzUTfhtO4Uhn3rh6Z9NqB2Zw806rUeH36xHdargxEaeQ1Z2SquqaxJQYdSqUtBx2+LUf35lxNgKrmLNPb/EKb6TWGgyfqNytA0aAbtR8OgX7LCXPiLQaP5ysLxOFSmoUN8b2Tg8cUoc3zPChvoxDWQtcUXhZcu/+KSe5IqMppkL6EsH18Zw5HJXioCODJerwgNg0YbNoV+8HBkLVuB3EOH719p9BHF9vWs17Fx2zl8+fN+tPvQE7U7rUWtTmvQbYQnZq04ikMlqbNKZUsKOpRKXQo67i2eFwaNEjjYLfaXSqMNWGm0tmzgxsJfrDSqXyqA49BRFCYr4HicKtPQIV6ftVsYNJrtux3GVW4wrl2HnKPHUXQzpWSjJ6Pb4rXZ5yfvYrRsFqifOBXabr2hqc3mbZWgqVAN2qatoBs6EkZxbeYeOiKL0vGYn4T4WVy9nold/rGYtuQoenyyRUCHGyq1ckSLfu74dsZe+Oy+KLbRiWN/OGuK0pORgg6lUle5hw7x/u+lIqMReTGxMIkFxTB9jqw0aqz3HgxvVZV1OLTNWkM7bBT0bI/PSqMsba6A47GqLEMH3WeMjcgLPCEr2BrXeCBrq6+s6cIA5CepIjYupIXD8w7gqFYHmtcqyOZt2kbNBHB8AuMKG+SwWyyvTfZLeULiHJKWkYWA0CQsczmJQZ/5oE4nF7zaeCVqd3DAsG98sXpTBKLi0pCnqpOWKSnoUCp1Kej4NXTIbrHRMTBt8YVuys/Q9/kApsYtzL1UqtSEpkVbaEeOhdHGHjnHA1QdjiekMg0dBYXm4M19B2Bauw5Gdw9k79qD/PMXUKx7ck3OmDGTHxWNrM1e0P00GZnd+0BbuwG0r1WEtmJ1ZDZpBf3HI8wWjsNmC0dppO7qjXk4F50CN6/TGP2jH+p3dcHL9ZaiYgtr9B69GUsFjIRGXodOnys+O2XtKCtS0KFU6lLulf+WtHBwUvf2gWHKdOh79YOhVgMYK1SDvlotaJu3hWb0eOjtHZEbGISilFviSeru7UmorENHflQUsn22wejsAqPHOuQcPiYb/7G8vjhAudjfzsk1Dy78jPO4j2Xt94jp27Lw1xYf6CdMhrZTD2jfYVpsJWS+WQWZTQVwjBgN03JrARy0cCTjdinEllC5+UW4ekOP7fuj8f2svWja2xUv11+KN5pYo+OQjZi+/Dj8AxNwM9WIwsKn7BpT+kUKOpRKXQo6/r+KxeKQRwuH91YYJk2Dqc9AmBo2hYET+ttVoWlirsNhsHNEjgCOQtbhYKtvpSeiMg0defnIj4yEaf1GGGztYWKPnlPhMs6D1ojbOdkoytCg8PpNeZ0Uie+S/P1vQQCBxDLu0m1mUIlrM3urr4ThzJ59oa3xLrSvVhDXZjVkNmwmLRym5SuRy4BmpmyL8/dfus++H4eKim8jU5+LY8GJmLXiCN7/yAOvC+B4s6k92gzaiO/nHILv3mjEJ2qQk6vckGVFCjqUSl0KOsznQKbFsvCXmNT1k6ZC3603THUbSZeKvnJNARwllUZt7JF74iQKubiIu12lJ6eyDB3s4JoXdBJG51UwrLBG1hYfAQWx0hpxO1sAx61byD9/EbknQ5EXfhoFv5RG/40F9x5QIINGWfjLYuEQMJwprk1t7follUarQdesNfTDRsHIPj+HD5vdffc6P/fY/+MUU2fPXLwFa7eT6DvGC9XaOqFSKxe06L8J4ybtwxqvM4i8eBMG410wpPTUpKBDqdSloEPcpXEBiYmTMRy8izT2HgBj7QYwvGYurqQVwKElcKy0Rc6xgJI6HAo4nrTKLHQUFcnGbmwHb1hhAwOzl3bsQuHVZGkBKdYbZCpr9p79MG30Qtb2HchjafRUAaq/Vb/jHlBAd5+0cPhsM1s4evSB5h1z0KiGQaO0cAwdWeJSMXcyLr4X2Fj2fdf+H6e4a1oyWAxs+HfbUb+bG6q1W433em/AR1/6YblLMAJCE5GuUamzZUUKOpRKXeUdOuhS4R1qlrevzATQ9+wPU6NmMFWpKYCjOjKatoJm+GgYbByQe/yEqjRaiiqr0EG3RcGVRJkqq1+4REJHrgAMulZQVIyiTJ10tZjWbxKgagej21px7TDg+Lp0sfxeSesb44uYFjtpqgCOvtDWaSibt2kEDNP6lskslaV0qRwtuTafrruPre599l7ENzP3oc0HG1C70xrU67oWXYd7Yeqiw9jpHyu2+f/NE5WerhR0KJW6yjN0FIk70ryoGBk0apw8HYYeJUGjlapDz74VDBodORZ6ARw5ASekhQPKwlFqKpPQUVQk3ST5Z8/JeA6WP2dhuNy9B2Rre6rYaEJe5FlkbfKS1jGj6xpZv0MGdgqQ+D0qpoUjJlbGcEjg6NILWl6Tb1SC5q0qZuBgfBHTYks5aPS3lKbJgn/AZcxaeQy9R29Bg+5rUfP91WjWZy3GT9qF9b5nEJ+olfOO0tOXgg6lUld5hQ7pk79wESaxMBh+mgJTr/7IatAMxgrvmNNiW7VH5ujPYHB0Mcdw3Lql6nCUssoidPAaoJskLzQMprXroV+wBAbG+ez3R1GKuSgYt2EWS87efTCuWQvThs3IDTxhdn1kZ/NLJ7eTusfiaw4ajUY2M6gm/2y2cNSoB+2rFaEV16e2cUtkMoZjpQCOYwJmaOG4Vy+VpyCmxIZGJsPOPRTDv9uBpn08UKWVE2q0d8LA8d6wdQ+RqbUFqk1AmZCCDqVSlwU6OJGXB+jg+2W3WPrJpdn6x0nQd+oBU636yKpSCwYWWWrZHpqxn8PgtAq5YnGRbcrLwF1keVOZhI68fAkX+afPIHv7Tpjc18siXXknQ1Ccnl6y0W3ZYTj36HGYNm6CabMXcgICzZ1djUb593uK12ZJ0CgDU/UTpiCza29kimtTdop9qxoym7aB7pOxMFrbyf0XinNxz6DRpyT2V4mJT8Pm7efx9Yz9aNXfA282scXr761Eh488MMf6KE6GX4NJ9WEpE1LQofRUlC0mulviTv78+fNycn+eoUOavu8MGu3ZH8aa9WF49W0ZNJrZtLUs/GWwd0ZOULAMGBQrXMmzlUpTZdXSUSy+F+wumx9+GnmBJ2X8RuHlBNkATkocG/ucsKOrcfUaGN3ckb3/APJjY1GkE9+p+xw7r026VLJ8tkE/dTq03fqY63Cw8BfTths0g+7jT2BaKYBDxhfd+HV80f2AppTETrI3bumx/2g8pi05jHaDPPCfBsvx91qL8F7PVfhh7n7sPxaPdI1JtbovA1LQofRUROhIEXdvFy5ceK6hg63I8xnDIYCD7en1vQbA1LA5TJVrILNCNWS81xKa4aPMQaNiMVFZKk9XZTWmg4GkrDpanJaO4pRUFKdrzMBRcq0wQ6VAgC0zThjTwSFLpEeeERCbLvdxtyx1OBhfpJs0TXaLtfRSoUuFlUZ1lkqjR4+Z64HcK6D5KUMHq43q9DkIPp2MxY6B6DpsPV5tuAx/qb4AdTs6YuzEHfDacR6XkzTIzVPuyqctBR1K/1OcbB/3hJuTk4PU1FQJGidOnJAT/PMGHUUGo8wEyPbaCqOsNDoAhjqNYKxQHTpWGm1aUoeDabHHzWmxKmj06apMQodY1KU7g+Agh/j5znVe/K5YZ0C+DCT1hH7JcugXL0PWhk3ICw5FkTh2cfAlG5sl29OXBI2yKJ22a29oqr9rbt7GtFgBw+Y6HCuRw+ZtydfFk+6CC8KGZTxlsb/KxbhUOK0/hYHjvVCh2Upp6ajZ3gGDv/KB8/ownD5/EzpDrjjcp3+85VkKOpR+0b2+jPn5+TCZTDCKuyqCQtE97pgs4t+4Pbfj5H2/bQvE3ZJer0dycjLOnj0rrRzPLHTcZ9JlmiI7cpo2e8Pw42QYpYWjGQy8g2RaLJu3jRgjC3/lHA80m61ZtlrpqapMQsf/EK0PrEQqYz4IEQ7OsoJttqe3GTrEtXUndDCGQ5ZTFzBsmDwNup79oK1Z3+xSYdBoo+Zml4oADnNaLPv8lI2g0fuJ1o6k5Exs9juPsRN24N3Ozni10QrUeN8JvUd7Y75dIA6dSMCNVKPcVunpSUFHORKhgiCQJyYQggQXfsIEJ1pOqBboKBR32wQHAgAzTBISEnDp0iVcuXJFxmHweYQLi/hcukvS09Nx9epVuf21a9eg0Wjka8lASrENYYOvy0md+2I8x8mTJ3H48GEJHpzodTpdyV6fEd0FHPK9clKPvWTupTJhKgyde8rCX6YqNaGvWgsZTVsj4xMCB10q5rRYVYejbOiZhA7xXSzSaFEQG4vcYwHI3rEL2dv8kOt/BAUXLqJYAIl5w/8fNGrupcKg0V7IrNUAma9XhlYGjbaGbqjZwpF7iJVGr5epoNHfUlq6CXuOXMLEhf5oN2gdqrZxRK2Orug4ZDN+mHMQW3ZfxOUkrZgDn43387xKQUc5kgUOCA6cVCMiImRMBcHCAgcUM0uui8mGlofQ0FAJBIcOHZKDkBATE4OMjAwJJxQnau4jMjJSTtL79++XE3aUuJsiiBBgLBBDKLFYNw4cOIDdu3dj165dOH78OGLFpEmgeZbFbrFsT89MAOOkn2Fi4S9xF2lk0GiFatKlohkxGnpbcx2OQhXDUab0TEKHuH543RWJ4y68koiC6BgUXIxG4aXLMv7DYqUoFsBvqcNhmPIzZGnzd+og89WKsnmblkGjQ0fCyEqj7KXC9vTPkPXNYMpFUPhVLHY+gf7jt6J+tzWo1ckNzfqtx8gfdmDVxnCcj0lBoYKOpyoFHeVItDRotVoJGlzsN2zYgO3bt0sIoAXCIm5DYCAYHDx4EHv37sWWLVuwdu1abNq0Cf7+/nJSJkQQYjhJM/WV261fv15ut3XrVjlh87XoRiHoJCYm4syZM/L5Xl5ecjsO/sxt4+LipOXlWVVxLnupxMLEu8iJU2Ho0VfW4ciqXBN6Wc2xJGjU1t7cLfamsnCUNT2L0CGtbUVF8loiYJibv5V0mSXQ8m/idzJLZctWeW2yDkdmSXv6zArm9vSZH38Cg4zhOGpOi33Grs3cvEKci74FV88IjJ64Gy0HbEStzu6o23UN+o71xmKnQFnPg9spPT0p6CgnohWDEyozRoKCgrBq1SrMmTMHtra2OHr06H/FUtCKQYig9YETLwM9d+zYAWdnZ1hbW2PdunXyObRMECQIKMeOHZNg4u7uLkHC09NTAg2hJTg4WIINLSF8be5r9erVWLlypRx8DkGELpxnFTpYaZTAYenIqe/ZD0bZnv4dWYeDZmsChwwaDQhE0a1UsSDcPz5G6enomYSO/yFaOKRLhZktk6dBa6k0yiyVN6rIwl86Bo0ut0bOkaMouFY2Ko0+qGjBYIbK1r0X8eO8Q+g01Bs1O7mjartVeP+j9Zi62B+HT1yGXjV/e6pS0FFOxAmTLg5OngQELvY//PAD5s6diz179siJ1iICCK0OBA/GZyQlJUlwIEwsXboUTk5O8PPzk5MyIYITM10kPj4+8vf79u2T+/T29paWD8IIoYKuGW5PK4ubm5vc1+LFiyUAEU6eVehgpdH8C1EweW+BYdJUGHozaLQpjKzBwW6xLdshk3U4bO8IGlUWjjKp5w06isX7yY8xp8Xqp/wMba9+0NSsV2LhENdno+bIHDLCHMNx5JgsMMbn3Ck6XS2u17IsBojeTDHgYOBlzLU9gT5jfVGr0xq81dwBTXq54cufd2Pbvii5TfEz8H6eVynoKCdiACknVMZYhISEwN7eHj/++CNmz54tgYHuD8vEQlcLLSIcdJ9wML6DrpXly5dLSNi5c6cEBVotCBcEC8IE4YSwQsCgtcPGxkZaSLg9/xYWFiYBhK4dWlkIPwQQ7uuZc6+I0yWBIyrGnAkwaRr03frAUKchjAwaFXeTLG2eMeZT6O2dSlwq4jwr4Cizep6gQwY0yxgOs7uPMRya2vXNdTjeqmquNDp0FAxLS9Jir98wu2ruEP/FeeFZgA4eoyYzGyGR12HrfgqDv/JDnc6r8Wpja9Tu6IRh3/pijVcEYuLTkZdfePdb/S/xT4QYWk8KCopkATKOwkKWD+D5MG+n9OBS0FFOxAnTkj3CQFAu+jNnzsTChQulVYKBoJYUV2amMJiUwaUUoYPuEVot7OzsJGDQ5cKYD8ZjuLq6yr8RHDhZMwiV22/evFlaMvgcWj8II4zxoNuGVhFaTggc3I6T+7MGHSxtLpu3sQ6HAA5j74Ew1WkE/etsT18d2hbtoB37GfROq2Sl0UIBcShQ/uSyrOcFOmTQKAt/bfExB412Z6VRtqevCI0ADranNweN2iCHQaPMUrlH0KgFOJ4F6CApsNR51KU0eGw9i7ETd6NBd1e80mAZKrW0Qe/Rm7DMOQghp5ORqc9B0W+kztISkp9fBINR3KhpspCSZkRaRpas85GTW6gqmz6CFHSUI3Hi4MRJCwZBY8WKFdLaQFggdFiyUSyTDLflJMwJl24RwgGtF7RiMOWVQaH8N/exZs0aOUHTFcNAVE7a3H7RokXSHcMJnGm0/Pvp06dlmiyPgZYSWkEIIoQOg+HZaEHNgL0CpsWytLkADkvQqKlKLQkc7MipGTnO3LwtJFRmFqgslbKv5wE6WL30v4JGe/ZFZp2G5hiOkrL7rMPxS+Ev6e57Pq7NPAEKV2/osX1/DH6YcwAt+rnh1UbL8VazlegweB2mLj6MvUfjkXyTaf/3j1vhZ23KysO1GzpciE1FxPkbOB+disRkHTJ1OdLqofRwUtBRDsVaGJxMHR0dJRDwZ7pXLNBhES0j/D2tFoQEWiuYQssJmJYQWkzocmFshouLiwwuJbzQWsH4DAIJLSn8G90qfF0CCcGD7hqm7HJiZyouH7m/ZyFltkiAUT4D87Zuk5VGjT37wcC02DerQi+gQ0vgYFqsnSNyLb1UnoU7RaVnHjqKDUYUxF2S1+avgkbZS6VxS+iHj5YWDpkW+4wGjd5PtF5oBRQcC76COdbH0GXoelRoYYO3m9uhZf91+PLnfdjkdwHRl9KQnXN/NyctHdzP2ahb2Hf0Enz2XMTeI5cQce4mbqQYkaMyYB5aCjrKoRgoyoWebg8HBwcJFLR+3DmpEkBYppwTLmGD8Rq0cDD9lW4X/p3ZK7RmMM6DcRu0mDCbhUXBLJaOJUuWyEwVWkU4oVsqnHJip7WEGS2WLBlmwZT14mDSpXIxWrpUaOEw9hqIrIbNYHy7GjLfrirTYrWyl4o5LVbV4Xi29ExABwH2HhBbXNJLhRlU7POT2bP/L5VGzUGjLaArCRqVLhXxnu6sNMo9PjOulPuIR56XV4TIizdh5x6CDz7bglodXVCljQua9NmA4d/vhOO6cISdSYbecP8sFu4nNd2E4yGJcPeOhO2aEHhsPSNgJklaO34LWJR+Wwo6yqE4qRIiaKEgMBAqaKGwTDYEA1o4aNWgtYLWEMZfEE4IFQQDDsZnbNu2TQIHg0uZIkuLBt0kp06dklYQul74yEn8zkmbk7ul9wond46yXAZdupvYkbOkl4oMGu3eB8Y6jWCqyvb0tSVwyF4q1rbIlWmxqg7Hs6ZnBjrukLw2BQwXxMWbu8XSwsHCX6zD8QYrjVY1N29jDMfSFdKlUsDCX3e9H+71WYcOiod/KTED63zOYMzEnQI2PFCjgzsa9dyA/p9uw0KHEzgSlIAMTVbJM+6tmylG2Z3Wxi0Y8+2OY9WmCBwNSkTSdb2M61B6OCnoKGfihEJrBQM5Wadj3rx58PX1lTDBSZV/58LPuAvCAv8+ZcoU+UjwYLotA0LpCqGVghYTBpZ6eHjI4FTGaHCiZrVRPp81OFg0jC6VO0XXDSd3gkaZavh2nwm3yJSFPKbFbvaCccIUcy+Vuo1geLMydFVqQtu8LbR0qcheKgEySwXKwvHM6Vl0r5grjcYhy9cPumkzoenRFxnMnHq9IjIJHPWbQDd4OExLViBXZqlcR/G9gkY5xPX/rEMHlXyLcR1R+GHuAbw/2BN1u6zDu13XofMwL0xaeAg7DkTjxs37u3JvF4t58qYBuw/HYYXrSSxwCJSWjtDT15GSLs63iul4aD1T0CG/FPI/pYcRJxMu9vHx8TLrhNDBQTcIIcLiNqHVg1YNWikmTpyIb775BhMmTJDxGYQIWkkICnSZcHByppWDRcMIH4QQWkAIM9yWsRtM1b1TrBlCawr7rzALhqOsQoesdRArJnWvrdD/OAmGrr1hEhM5LRy6qjWhadEWmlHjYLBlL5WStNh7TOpKZV/PGnQUl1QazfbZDv3UGdD0HoCMOg2RIYCDQaO6Jq2g/2gYjAuXIveAv7m0eTmA4dQMEw4FXsZs6+PoM8YH9buvQ80Obmjebx0+nbIb633O4FJCxn37sDBNNilZhx3+sbB2C8ZKMfwOxCBOPMdgyhPXglqFHlbPBHTkFRXAlJ8DY342sgvEAlBUqNDjIUSgYKAmF3qCAV0rdLEQOmi14IJPGKAlhNDBQFOm1dLSMXXqVFlIjDEgfK6lVwrTYy9fvizjPQgZhI6NGzfKImGcsAkl3IZpt3eKgaiEG1pNyhR03KUicReZF3cJWWJSN07+GYbufWAQd5GGNypBL4BD26INtAI4WIcjh8CRoiqNPst6lqCD7elllgpjOARwaMW1ycJfGbI9fWXZLVY/9BOYFi9HzsFDKExKKjfuPqbEsuS5rXsohn3rh8a91qJSSwcBHs4Y9PkW2K4Jlq3uc3J/fT5435GTUyAAQwOfPVHS0uHgcQqHg64oK8djUJmFDt6VZwnASM3KxBXdLcRpruFy5g3cMmkkgBTfLpumzrIsWjI4oXKhp8uD7hBaJ+gSoTWClgemrPKR/6b1gpYNxmwQQJiFQpcJG7oRJjgREx4ICgQPS7VRFhtjJgtjPhigSpC5s829/GyfAeighSMv9hJMvtthmDoTxj4fIJtBozRZv1XFHDT6yWgYbB2ReyIIharw1zOvZwU6pIWjpA6HjkGjvQeYYzgsabGNmkH34VAYFy9DjrRwJMv+K+VFpuwCmaGycds5fPHzXjTvtwZvNlmJN5uuRKeP12HWyqM4FpwIjS5bfK4lTypRUdFtWY/jXHQKNvqew2KnE3BaH4aT4ddgzPr/jTGVHk5PDTqKBDRYLBiZuUakCbi4aczANX0qLmvFYpR6GcevnsXOS0Hwjj6CrdHHcCgxAlHpicjMMSroeAgROujmYDorocJS4IsBo3SvEBCY7sogUUs3WFowaNWg5YODzyEo0BrCLBR+AWlB4XOYjcLncN+ctBkoemcLfIueBeiQlUZLLByGaTOh7zkAxrqNkVWllmxPr3mvJGi0JEulSLxXFcPx7KvMQ4f47sj29Ja02IlToe3SUwBHfWjfqASdAGLpUhn6CYyLBHAc9EeB+C4/T2mxv0es13H9lkGmu05bchjvf7QWb7y3HC/XW4pmfdzw3ewD2HEwTtbrKCj478+VlgxaNFhEzM3zNBY6BGLVpnBEnLvxX1YOzmOKPx5cpQQd4osiPp2i4iLkFubDkJctISNRdxMX0hJwMvkCDiScgm/McWw4fxCrTu/EkuDNmHDYCeP3LsO4vUsxUfzsErkTQWLbjGydcq88hAgHBAU2dKM1g24PwgMXf060tHJw0iWcED7u3I4QwmBQbs9t+XfuzyL+zOfzb4QXps1yX/dSWYcO2Z4+KkZ2i2XzNkPfD2Cs1wSGN6tAV7kGtM3aQDt8NPTW9shmlooKGn1uVCaggyuZZdwlZqkQhrO3+UkY1vboCw3b079eQVrfdPWbQD94GExLlyPX/xAKxPf17l4q5WGlZL0OgzEPoZHXscwlCL1GbcTbzVbiX+8uRf1uqzF20h5s2HYesZfTkZ3z3zdGTIdNSs7E0ZNX4LIhHEucTmDtljPS8sEy6BRjOvLyCmUWC0uq3y82ROnXKhXoKCwSC1JeFq4b0nAxPRHB1y/i4JUw+MQcw5qzu7E8xBPTjq/GVwds8MmuhRi4bQY6ef6A+m6jUc35Y7zrNgp9tk7F3BPrcDTpNLQ5z0bVyrImLvZ0cxAQLIOBpRz8mX/jxMrt+HjntpbtLNveawK+8zl85H7upbIMHTRbsyOnbJA1kWmxfWFs0BTGarWhq1ILmuZtoGHzNlo4Ak5Il4o4KSXPVnrWVaag4y4x46TgUjyytu+AbtoMaHsPgKZuI2iZpVKhGnRNWppdKgsWI+fAQXPhL/Fd/JXu87183sRg0NjLGXDzjMCQr7binXb2eKXBStTt4oaPv2G9jgiEn70Bre6/480YKBoTnyaLgTkL6LBdE4otuy8iRgAKLSgEGtb4uJFikNVPb9wyyFLpfF6eeE0VZPrbKhXoMOVlI16bjAOXT8HptB+mB6zBN/52GLt3CT72m43eWyaj3aZv0djjU9Ry+wSVVg3Bv+374cVlHWC1pD3+z7Y32m76BjPE8wKunpWxHkrPrsoqdBQZjciTDbJ8zUGjPfvDUKOe2cJRtZa5l8ro8dA7OJuDRmXhLxVU9jypzEDHXaL1rSDhCrL8diJz+ixkMC22xrvm5m3s9VNi4TAuXIKc/QdRkHT13vFF9wGa51U3U42ymuink3eifrdVeKOpHWp3WoN+41ivIwhHTlwR2/z3TSwrkUZeuInt+6PhujkC7l6ROHj8Mq5cy4QpK18GqcYlpONkxFUcDU5E4KkkhJ27LgGHWTPZ9whOVfr/euLQwQWGlolTN6LgFL4dY3YvRpuN36D26pGo6jwEFR0G4Q37ARIy/mnXB3+17Yk/23THH1Z0gtXi1gI62uBf9gI6Nn+Ln4+74dCVcGRkl/1S2Ur3V1mEjtu5ebLWgcnbBwYBHEZxF5ndsDlMstJoNWQ0bS2zVIzspXIyxFxpNF9NLs+bygR03CXZ5yc+Htk7dkM/YzYy+n6AtNoNkPFaRWgriOuzQVPoBnwE47yFyNm7TwLHr1wq5VSZhlwcOB6PiQsOos0Ha1GljZOADjd0HuaNCQsOw3dvNBKuaku2NovxHASJjdvOylgOzx3nERxxTVo29MZcXL+lR8jpa7JN/nqxzQYxtgiwOXQiQTabI7SUI657YJUKdDDwM/xmDJwi/DBsxzzUcv0Ef17WFVbzW8FqXjNYLRSPi9vCaml7WC17H1bLO4hH8bMADj7+y74Pmqz/TMZ3MN4j8Oo5JGTekEGnKSathBoGpOYXqUXgWREnd8Z+EDSY9cIAVU70T6MMehHvIi+JSZ1BozItti+MtRogq3JNGOhSYdDoiDHm9vTBIeZeKk9pAVJ6sipr0CEtHPGXke23E/rps6Hp1Q/pAjjSX6+EDGZRNW0FPZu3zV+MnD0COBKuqAyqO8T4DFokGAzaZ4wX3u3qhlod3dCi/waMnrALqzdH4GJsqlynKD5eTtLAVwAFU2WXugRh0/ZzCDvLomBGGE15uC7gg0GlOw7GwH1LJJzWn4LThjB4CTg5KeDkZppBQcdvqFTcK9kFeUjS3cLBhDAsCNqAnt6T8LrdADN0zGksHpsK8GgBq0WtxRCgsbhdyRA/CxD588puqOj0Edps+Bqjdi7C7IC1WB25C14XD2NvfAiCks/jQtoVJBvSZOwIg1aVyraY1WKZ3IODg2WWDOt+lHbDN5kWyyyVbX4wTpsFk7iLNL37HgxiUtdVeAdaARxaManrV9oiJyDQ3J5eAcdzq7IEHcxSkY0Ft++AYcZsZPYZaK7D8VoFaJiy3bCZBA4Te6kc8DdbOO6qh1PexRiLc9G3sGpjOEb9uBPN+6+X0FG3sxv6jPWWQaKnIpNRWOImZTwGm7y5iO0nzj+IyYsOyZiQELENoYNBo4znoLWDILLjYKwAj9MCOk5hg+9Z2auF1VAtEKP0a5UKdBAC8grzcdOUIdNgl4d4YaDvDFRfNQx/se4OKxm70VYAhxgL+SiAY1F7AR1iyMf38eKSTnh5ZR9Udx6KVuu/RD/fnzF67xJMOOqMxSGbsPrsbuy4dEJmwsRmXJMWEL0AEBYTY8ZMQVGhSrMtRfFLZxmcrC3DEmjK7BdmxdC9QisHrR1M2y1NS0dxXh7y4xMkcDATwNBrgGzellW1NvSVa0LTtDU0zFJZYYOcYwHmBlnqLvK5VlmBDnltEoZ9zZVGtb36Q1sSNEqXiq55G+iGjYRpuTVyDh8tN5VGH1QFAiZouWCRrwnzD6HTUC/UeN8VlVo6ovVAD0xe6I/DJxJgyjZnsPAzZjwH63IQOqYuOSwbvp0SgJGuzZLzGTNVCB/XbuilZWPb/mhs8jsnS6tzO8KJgo77q1SgwyKmuTJVNuT6RTif3oGxe5ai6frP8R+H/mbwoJVjIUcJdCx6H1YLxM/zWsNqTnNYzW0hoeTPK7riVaeBqL72EzTd/AW6+EzAhztm44sDKzErwB0O4dux6cIh7L4UjGNJZxB+MxZxAkRYB4SWkMJi9eV8UuKXjRkunLxZFIyVSJmmy3RaWjEYs8FaIdeuXZOuFVo4/P39ZTExVkplqm1pqMhYUml02w4Yf54lC38ZajeE8e2q0FerA22L9uZKo7aOyD6ugKO8qCxAh+ylwiwVcW3KXird+yDjnbqyWywbuGU2bgHDJ6NhYmNBAcMF128o4LiP+JndSjPiyMkrWOgYhL5jfVC9vQv+zSyWzs74dPIuGZuRlmFu/sb5K+5KBrbvj5FVSJm9sudwHGLi06E3mTvykieYxULoCIm8jn3H4uUIPp2MhGtaGIyMp1HQcT+VKnRQBWLBZ4zH+dQEbLzgj28O2qLVhq9kIOkflneE1RICR1tp5fjD4g54YZF5/GGhABCCyBIxlot/23bFS0698E+XfviPywC87fwhaqwajmYen6Gb5wR8tG02Ptu7AlOPumJFqLd8Labpnr4Vhyu6m0jP1sksGBYpU3p0WWCDAaJarVYWBmONDw4GjBIyWOeDBcToRmHZdU7qe/bskc3ndu7ciZCQELkd64Q8FnF24LhLxTnmXiom9qsQk7qx7yBkiYncWKmGrMOhadkO2jGfmYNGg4LNwKF6qZQLlRZ08PsiR8m/LbotXp8p26zDoZs2C5q+A5HBoNFXBXAwqFlcp7qPR0gLR+7R4ygU3y9aRX6le1z35VE8C6wuevrCTQEQERjy9XbUeN8Z/6izFFVa22Hwlz5w9zqNS1c0sNTgyMjMxoXYNASeuooTYVdxMS4VqQJKLOmyWdn5Mq6D+2Tw6P7jl3EyIhnxSVr5WkzVVbq/Sh06LGL/lEuaZGyNOiqLgLX3/B5vOg/Ci8xaYWzH4rb449KOeHllb1R1HIJ6q0ehwZoxqL1mJCqsHoyXBWj81bkP/mjfTUCIAJKF4jnzWkpg+dPyLnjFti+qrBqKJus+R0+fKdIVM+WYK5af8sba8/uwPS4QR5MiJYSwxHqyPg3pWTroc03SJUN3jNJvi5MwJ2laMVhIjBMzoSIqKkpWJrU0hLMMy+9YAZWWDYIGS7GzLT472PLfnOAJHrSGEF4sBcseasK/x8TLXirMUmE1R8PUGdD36g9jnYYwVa4JPe8mW7WHZtxn0Du7Ii8ktCRoVE0i5UWlCh0lP1tEC4cMaBbAIZu3de8rgKN+SS8VBo22hn7EGJhW2CD3yDEUCpjnfv5L/LdlKEnl5hYiPlGDzTsuYOzEXajb2UVAxxK83cwavUZtxvJVQbKImMGULz5jcfMk4IOFxWj9SEs3QafPQW5eoQQOumESkzNlSfSdB2PgszdaQEe8AJBbEkRYLIxl1H/1uSj9oqcGHRQDTFnyfNelk/j5+Gp08v4RrzsOMFs7lrbD36y7o47rJ+i3ZSq+3L8SPx1xwpf+1hi4cyZae32LOuvG4C2Xj/BXxoXQJTOnmRjvmQNTF7eC1YqO+Jt9b7yx6kPUch+JZus/R0evH9F/23SM3LUIPx5ywMKgjXCL3I1tMQE4migg5KYZQuiKMeZli4tHWULuJ7pPmIHCrrV0jXByZmwGJ+qDBw/Kwdb3bIfPuA1aMsLCwuQ2dKnQwuHqKkBw+XKsXLlS9nmh5YNQQksIe7dw33wNWlAe9YvMwl950bGy0qhxygwZNJpVvymMNFlXrA5Ni3bIHPspDM6rkBMsgCM1TVCKAo7ypKflXpGVRmNjZXyR/udZsvBXRg0GjVaE5q2q0FqCRlfYIvcogUMcj7K+/S4RAlivg23qv599AE16r8bL9ZfKPiwdhqzDtKWHsfdovIQGS5lzzjW0fDDAlDEcnHq4HxYBYwDp1j0XscbrNDZuPyehI+LCTSRe18kUXVYq5bZK99ZThQ6KpdG5wO+/HIrpAW7o4PUDXnMciL/b9UKlVYPRc8skGafhFXUYB66cksGiTpE75LafH1iJj7bPQcfN36PhmrGo5DwY/3boj78L0PirQy+85NATf7LvgRdtu+GP1l3wx+Wd8OLyLvjrim541aYfaq0ajjYbvsGH22fhq4O2mH3CA3YR27Dx4kHsiQ+WsSdxmqu4JY7PYgEp70GpDARl5gktECyJTjBg9gnBgr1ZCBpsCLdv3z75SLhg7xYCx+nTp2XgKB8JIQQMdqW1trbGihUrsHr1atmdllYQ7o+D++Zr0PrBeBC+9gNP/mLGkC4VxnBs8ZX9KpgWm1W/CbKr1YG+Sk1kNG8LzZhPYRTAkRt6CkVsxa/85OVOpQ4d4tpkHQ5zn59t0E+ZDm3PftDUaSgLf2kqvIPMZgwaHWV2qRw5hiJxLOJgSnag9HvEgl7HQ5Iwe+UxdPp4PSq0sBHDDi0HrpUN4db7nsPFuDTpOrmfCCGs1REYyhoe5+BaUsODLpawczcQm5CBm2lGWUBMlUW/v546dFiUrE/F/oRQ/BywBl22TEADj3Fos/kbfHnQGhsvHMTZ1HiZ/cLaHJEpl+B/JVz2anE/sxfLgj0x5egqfLp/BT7eNR+9tk9D+60/oOHGT1HR7WP8Q0CIrAEytymsZjSA1fR3xWNDWC1ohb+s7I4KAm4abBiP97f+iH47ZuCTvQvxnb8d5gV6wCXCD1uijuCAgKKga+dxRrz25czrSM3SypiQR7z5fqbEmA1ml1iCQAkSBARaMzg5c5ImJNCawYmajd/oTuG2cXFxSExM/CW2g5M6LRrsSrt+/XoJH9u2bZP7IJScOnVKQofFUsLXInwQdAg8D2L1oNk6LyZOTuqGKTNg6NUfhloNZKVRQ9XayGzRDppR46FnDIeswyGAozx9sEq/qLShQ7pULl+WabGML5Lt6d+pCw0tHG+Y29Prho+CcWWJheO6ylJ5GNE9wqwU2zUhGPTZFtTu5IwqbZ3xXu+1+Pib7bBxC5GBoEyHvZ/YGC4lzYSwMzewyz8WW3ZdwK5DcRJCGN8Rm5COG6mGEuhQ88f9VGagg4W9bgmo2H8lDHNPrsO4fUulJcM6bIvst3LdmC634aDbg4GgtJBcybyJsynxCLh2Frvig+EZfQTOZ3ZifshGfH3YFgO3z0TLjV+hqouAj5U9zcGojP2YV1IXZFkHvGjXDX937oOXXQfgddcPUcl1CGqv/gQtPT5Hb+/J+GTXAgkhc054wD7CF17iNRgPcj4tAdcN6bKBXeFz7vcncDDGgi3sCQu0aBAYaM1gNVECBgNELQ3hmIXCwecQVAgKzGKxZLMwZoPxHwQUWkM4+DOBxJLdwhgQ7vvAgQOyFT9fkzBCeKG75W4RRO7+qrPSKAPzWGlUP2maTIs1NWwug0YzK1WHpnlbaMd8CoOjxaWSqib1cqwnAR3yurzntZmLAgHj2dv9JHD80p7+1QrQltSIyRwyAkamxR47Lvv83M5TLpWHEWM1Ll3JwHrfMzJjpcWAdajZ0Q31uq9Fz1HemLniGPwDLiND8+t5xSJaOhgomnhNJ2t5EFLYiTbywi1EX0pH0nUdMrTZEnDUPcv9VWagw6IbAiQOJ0Vg3fn98Di3T1o/YjRJ0OeZSrb4tejqMOWbO9cm6VJkW/yjV89gS/RR2If5YsbxNfh87wp8sG2GdMW85z4eNV2Ho6LzR/iP4wD8zaG3OSDVpqOAENYKEVAyn0Gp7SWoVHD5CO96jEZbz+/Q3286Pt2/XPaBsQ/fBq+oIzIrJuRGFC6mJSJRd0vWCNFJd0weCp/xmABOtJbYDU7EjMcgaFiAg/+mJYNdaAkZvzfzxDK5E1QIEgQOAg2BhOJrMuuF+6b1hFDC1ySAEHoSEhIk0BBi6PKh+D2/87suUw/jLiHbd7vspcLmbbRwGEuCRpmlkjF6PHROq5BL4FCVRsu9nhh0lPxs0Z1Bo7J5Gy0cNc3t6TPfrCKDRnUjxsDIGjFHj6Hgxk3cVtfmI+n6LR12HYrBlEWH0W2EN97ttg61Ormj7aCN+HbmfmzbGyWbt91LhAi6THLzimSQKWM7WCAsMVmHJDHYRj9dAAcDTS1ZMEr31lOHjrvN5LQY0I0SnZEkq4zSkqHJMfyuEufcJjPXKLvZMjPmXIq4K78ejWNJkdh96SQ2XfCHXbivjBH56oA1PvKbLWNI6nmMxdurPsI/7HuZ64XQCjK7CazmiLGoFaysO+JPDt3xskt/VFw9GHXXjELLdV+ih/ckDN0xT+5rugAbm1Nb5WuwTX/YjRjEiWNgPAgBJO93HH9ZFBd1Tri0OnACpsWBsMGYDMZn0OpAywQtGYy3+L0inPB5hA5CBMGD0MHXo3hd0JphsXowUJWLAF+b8SK0gNDdwpTce4EOA/PYvC1r6zYYxV2krDRa39yePpNpsb80b3NC9slgFKak4rYKGi33Kg33iqw0ysaCvn7QT58FjQwafRcamRZbFZkNm0P3S9AoLRzitVXQ6CMrXWPCsZArWOJ0EoO+8EOjXhtQrZ0bGvVwx6gf/eCxJRKXEzUyS+Ve4pxEtwmhIj+/SJZYZ2dZQojRlI+c3AKZ+aIqYv+2ygZ03PUh0XJRIBZpVjHlKBAg8r8CNwkrtHREZSTi1M1onE6Jw2Xtdfk7Viblwp9i0sjMFLbW33kpCK6Ru2S7/K8P2mDIjjno5j1B1vmo4TwMb9gNwL9se+MvAkRecuyJPzn3wIsCPP5o0wUvLOuEPy7phJeWdcUrNn1Q2WkwGrqPQ1evCRi5exGmHHeFdZgP1l88iF3xJxFw7RzOpMab64Nk6WDMz0ZOQZ54bwXyuMviRcoJlgDAqqGMy2CQ6L0sDVzwf6uN/f1kgRmCAwGGgxP9nWXQzV9ycwVTvhYzWVhMjMexY8cOHD12TMaKmO5ytdzmpB4dg6wt5uZtjOFglkoWg0ar1kJGy/YyaNTgxOZtAjhS03C7QLlUlJ4sdPB6/qUOB1O2p8yQQaPpdRqa02JLgkb1w0ebXSoMGr2hgkYfl/TGHEScvwGXjacxesIeNOu7AZVauaBGe2cMHO8FW7dgGfdBePi9kp/pL6Pkl0q/qTIBHZbxKDLkZ8kgT2a5OJ/2g7d45L8Z/3GnCC+EEAak0g3DiqV+sYFYd24/7AQozA5wx9cHbPCx3xx03zoJLT2/Qb2N41HFYzj+7TIQf7LuIgNQrWY2htWM+rCa3RBW85vDaun7eNm+L6qvGSGe8zV6b5+GYXsXyBTfaQGrsSzUE2vP7sXOuBMIuHoGETdjEZ2eJI9Dk61HblHZuZPhQs8y5YzPYFAngzlp4WDQKFNZad0gHDyKufnOLrPMbuEggNyvyyyPiX8jeNDKQfCgy4XuF53J9Iv5+jZTDwVwmDy3wDhpGowldTiMb1aRwKFt2U4CB4NGcwRwMIZD1eFQsuhJQkeR+M5ICwcDmqfOgK57P2iqvyvTYjNk0GgL6Agc7PPDoFFV2vyxipYJBnt67byIb2cdROuBG/B2MzsxbNBpiAdmrziCYyevQJNJl60iiCelMhfT8TAiSNwyabA7/iSmHXPFuL1LMDdwbUkb/Hv38mBxMnamZYdaxmBw8Wd6bNjNaOxPOIUNFw7IINbpgWsEONhgyO656MysGvcxeNN+oLRyyMqpspCZuRvuH6w74yX7HviXc1+8KgDlLdePUHX1UDRYOwbtN32LQb4z8MW+FTLGxPrUFhmzQosLG9bFaq7J4Fhadp62GFdBlwaDQxm8ydRWZpCwNwrjNggMtD48rO6GDkIEBwHit1rbM5iVsEPrBrNZgkNDEScgRCcAidjAMuWFLB/ttQW6HybC0K0Psho0ld1idRWrI0PcRdKlYiiJ4TBbOFRpc6X/rycFHewWm3fhorw29ZOmQidgWCdgWJY2Lwka1X08EsbljOEwu1RUFdzHK1YKZewF62pMX34UnT8W0NHcGq82WobmfVzx3cy92LYvWhb/YjCo0pPRcwEdLK1+VZ+CzRf98dm+ZRjg8zMmH3GWAZ5cyIseYLJgXEhGjh7x2utgO36m5m6NPobVZ3Zh0clNsqAY2/N3956IFhu+RD2PMajuNhxvC8B4xam/hA7GgFgtFSCyqAWsFjSXlhE2rHvVth9qu32C1p7foM/2afhk7yL8cMQRC05uEPvfjR1xJ3Di6jmcTbks3UB8T6kljevoinlUa9D/EidVuksIAxbgoEWBEy+B4HH1RXlY6KD4XG6TmJSE+MRE3ExPl+6VfAEe7FeRy14qk6ZB17knDOIu0lSxhnisC61Mix0HvaOzOUslPQO3VS690l163NDB67WY8U5RUTB5eUM3cQq0XXois2Y9ZNK68VYVZDZpBf2I0bLSKF0qspfKI1pVlH4tZrCweBc7xrJtfb+xm1GltQ3+03AZGnRbhdE/7oS7VyTORafIWA2lJ6PnAjpYsOtK5g3pWvnB3x5jdy+WnWwjbsUiqyDnoRZr7lOXa8Qto0YGs0anJ+LUjWgBIWFmF07kDiwK2YTJx1fh04Mr8MGOWWjr9R1quo/Evx364YVlAjwWsnV/E1jNaiweWSW1DV606Yp/ufTHW2sGo7rHJ2i0fjzab/4W/X2mYYw47omHnGT7f8eI7fJ1/BPM/WKYFcOAWh7X7V/Fwj+6eI5oSeCCzgmXLhWWJecjYYBlzh8kUPS39CjQQfE4jSaTdKtkCUjKFc/JuSgmdVlpdDpMvQfAVLcRDK9Xhq5SDVnaPHPMZzDQpRJcEsOhgkaV7qGHgg7OL5Zxl4oFDOedvwDTZk8BHJOh7dEHWkLwaxWR+VY1WWlUBo2utEHeUTYWvE8vFaVHFj8eBoDGXk7H2i2nMeJ7X9Tt7ITXm9iKRzd8+MV2rFwdiqBTV2XQ6T0+TqXHoGceOriAGfOyEKu5iq3RRzH/xDoZl+EddQRXDamPvEDLO5XbxTLgM6cwTwak3jCmI057TcLAkaRI+MQeh9NpP8wIXINx+5ahnwCI1uu/wrurR6KSw4d4xboP/raiB16y7oY/2XfHi0498EfH7njBriteWNkFLy3vgn+t6Im37AeijnhOq41fo6/vNIwX+5oesAYOEdtk+u+hxAiEC5Die002pEGbo0dWfk5JsO2jVUnl++SEy0ZtzFQhbDBmgkGkzCB5VH/2nXpU6KD4qRYLcJC9VKKikeW9VVYa1XfvA1O995BVrTb0VWvLtFhz0Oiqkl4q6QwQMe9ESekuPRJ03CFaKm5n5yBfwHDWJi/ofpggLRyyDsfrlZBZ8R1kNm0D3dCRMC5dgdzDR1XQaCnpRooe2/dH4ZuZe9CivzsqtXZBnc4e6DXaFzNXBGDfkThcu6mTlhGlx69nHjosWSunxWLsefEQloVshu2pLTJtlW6SJyUu8DkFucjI1uOK7pYMWj2SdBo+0cdlL5elwZsx5cgqfLpnGQb6zMD7m75Ho3XjUW3NcLzqOkiWaWdvGKsFLcyWkJkNYTW3iew582fbbnjNeSBqu4+SVVn7CQAZtWcRvvO3x5xAD9iH+8r3yvd46nqUDEhlfZK0kswYnpMHFSdUZpSwHgdjN+heIXwwe+VxWTgsehzQIZWTg0JmAnj7yDochp79YKhVH4Y3Kv8SNMrCX2aXSgiKWYfjrsVBSelOPTR03KUinc4MHJu9of9pMjI79YBWXJOsNKp9swq07BY7zBw0Kpu3qaDRUhNLoh8+cRnTlx1G52GbUbPjGgEd6/D+EG98N/sgvHacx6Ur6arexhPSMw8drH+RqLuJI4kRcDuzG8tDPOEauUNmiGhz713o5XGK8MF4i/8flKrBVQEAUemJOJl8QWar8LjoMvnukD2G7pqPHlsnyXiQmq4j8G/bfjLew2phW1gtEcO6A6xsO+OPdl3xF/ue+Jd9H7zq0B9vOX6Aas4fo9Gaceji+SNG7FyAiUecBGR5Yu25ffATr3NMvOfI1EtIkLVN9L+rtskvEhNnbk6uXPQJHjcFEKSnpUs4ICQ8Tj0W6BCLQyFLm3tthWHCFAkcWQ2byW6xmZVqIKNFW3PQqACO3JMnZR0OZeFQ+l96HDEdt8W1nXf+PEwbNkH/w0RkduuDTBb+kkGj1aFt0koAhzloNPfYcdlLRQWNlp6ycvIREnkNy12C8MFnvmjYYx1qd/JA077r8ckPO+CyIQxnLj5Y6qzS79czDx2s+nkh/Yrsw2IbthUrQr2w6cJBGQSqzzPJhnLskUIgoFWCcRps3PYw1oAHFWtxMKsmKj0JgdfOYXtsINac2YMVIV6Yfmw1vti3EoN8Z6IDrSBrx6PW2pGovHYYXnf7EP906os/2nSVlg+ZkjurkTlNd24LvLSsi2xu13TD5+jhOwUj9i7EN0fsMDNoLWwitmLDxYPYlxCK0BIrSIL2Bm4Y0uX7Jxzd972LXxfm5SM/Nw+F+QVPLNDyUaGjyGAUd5HRZuCgS6VbbxjEpG6qVB0Gtqdn0GhJ4S8Ch0qLVfq9ehTooCuXQaMF4rnZXt7Qfz8BmR26mWM4Xq8ELbvFEjhkpVFbGTTK9vRixyV7UCoN5eUX4nxMCtw2R2DsxD1o2X8DanZwQ51Orugz2hML7QMQeCoJOkNOyTOUHqeeeejgIsoAT/eze7E4eKMEj11xQYjNuCprdGTl58q+LaxuevrWJWmBuGZIkxkhD5LV8rCiJYTQwywaWkBi0q8i8mYcApPOyuNkfZAVod6Ydnw1vjpkI2t79Ng2Bc02foHKq4bg79Y9YLWwtQAOAR0/1zM3rJvXDFbLOuLvDr3xxuoPUc1jBOqtH4vmm79E160T8PHOubLgGSuv2p3yEa+xDzvFaxF8LorzwFLzPC/3VCl4Hx4FOopNvIu8CONGTxh+mgxjz/4yhoMuFV3Fd6Bt3haZo80xHLLwV0oKmyaUPFtJ6bf1KNAhGwuKazjbizViCMO9kPlOHWhffRuat6uZm7cN/cTsUjkWgMJbt5SF4ymIbpOEqxr47o3ChPmH0GnIZtR43wUVW9qh9UB3/DRvP3YfjsWtNONjt/IqPQfQQXhgmXPCxtwTHnA5vQPHk87IdNPMHKNMOb2YfkU2jdsTHyJrdzAYMzHzFvS5WfKuv7QuLL5OkYAQtsZnACirk9I1dCYlXrpG/C4Fwv3cXiwN9cSEI84YvnM+unj+hIbuY1HJ8SP8x7Yv/rmyhwCR7viLbXf8mUGpDiUBqdad8Ucx/ib+9rrDANlbpvm6z9FzyySM2L0APxx2xCIBZW5nd0sACU6+iJiMJNmwTpttgEGcR4IIg1JpHXqSehjoYGBekQAOaeGgn/yHidB36QVT3cbIqsqg0VrQNGsNzchxMDi4yKDR4jRze3p+ukXiNfPFz4xPYfbLw1RRVXr+9TDQwWtTljYXz8mihWPiFOi794auTgNkvlEJ2goCOJq1QeawUTAuXymDRgvZS0Vdf09F7KFCoDh68goWOZxA3zHeqNHeEf9puBzvdnHCmAk7sNHvHC5f1aq4jiegZx46tLlG7BUwsSBoPWYGrMG68/sQeStO3s2zC228Jln2Qdl3OURmt/iIsfdyMEKuR8lUWH2uqVRcLfcTTbJ0EdH1QVCKSktEiACCfZdDZR8XNqybHeiBb/3tMFLAQz+fqTLFtr7HWFRYPRj/dOwri5JZLWljrgnCYFRaQha3wZ9WdsG/nfujmvtwvLfxc3T2/gkf+s3C5/tWYNpRV+nmcT+zB9tjAnAk8bSskhqvTcatLK0MSGVGzJPQw0AHqznmnr8I00ZPGH+cDEO33jDVrA8jg0ar1TYHjbIOh70jcoKCS5q3mSd1frrZOTmylDrjVTj4Oo87QFbp2dfDQIesNMqg0ZLCX9quvaB9pw4yXzf3UtE2aWl2qVjbmXupqKDRpyrOP0ZTHs5GpWDVxgh8/LUvar3vgH/UWYzKreww6POtcNoQjnMxKcjOZX2kkicqPRY989CRIhZI35hj+Pn4ahkn4Rl1SN7BM6CTGR10pxA6WF9jS/QRrD+/H5svHsSe+GBEpsTJmIuy0IyNFhAGfmbn50oQYiZKsj4NsRnXECEgiq30fWOPwyVyh2yx/8WBlRi4fQbabf4O9daMRkWnwXjZtg9eXCYAZHF7cyyIdUf80aGb7B3zD8c+eMW+H95wGIiqjh+jnusotF3/NfpunYpxe5ZI945tmI84f4fhn2i2Bl0SAEJ4I9jJ+iCP6dv3oNAhm7ddMLtUdN9NgKFrb2TVbyIrjerZvI3AwaBRBycBHEG/cqkUFBXJSqbMxOFiwuZxbC7H11J3m0p36kGh45dKo5u8oJ8wGZk9+kJTu4HMUtHQ3de0lSxtbipxqRSxPb2C3acuVidNupaJLbsv4tMpu1CvizP+Xnsx3mpmix4jvbDE+SSCwq9Bq8suFTd8edIzCx20EPBOPCHzBtae24vv/e0w8bATNkf5I04slszeuGnUyL8znuO4WLTZj2XV6R0yu4WBpww2pTXkgbI8noIIJKaCHAFIGTIm4/jVM/CJPgaXCD8sDNog3/fYPUsx0Hc62m/8FvXXjEHV1R/jLdcP8bLrAPzFsResVjJDprW5WNnM90qKlbXHP216oarrULTY+CX6bv8ZYw8sxaTjq7AoZLMAnJ3wjj6KgwlhEtxi06/imi4VqaZMWa8kR4DIwzSruxM6mJb7X71XdP9dtp51OPJYh8PTC4YfJ0HfqYcMFjVVeAdG8Zhp6aXi4Cx7qRSm/bpbLN0p7ILLXjJcQFjSnWXU2UOGacL/y1evVH70K+g4fBjhYWFm6LjrWjdXGqVLZQv04trUduoug0Y1b1SC5s0q0BA4PhkDk409co8HytLmEN9lpbIhbWY2DgZcxsT5B9G8jxterr8cbza1Q4chmzFt2THsPRqP5Fs65AtAUXp8enahgwuXWIjPpyXIOI5vD9qKxdcRGy8elNDBAFMONlNjNU/2N9l44QBsTm2RdS62xQbIhm90azxN98qDSAalivfEuiRJmbekK4YuEcaw+MWaU3MXntyEHw454JM9CwVETENbr29R12M03nD8AC8uFeBB2JjeQIBHfVjNFz8vbYM/2HSWbpq3Vg9GTY+RskoqC5Sxdf/wHfPxk9jfErFft8hd8I0+jsNXIgSw0RVzXcalPGi/mHtCR0AALtDScSd05OXL9vRGTzGp/zQJRnEXmVW3MYxiUtexX0XzNsgcNU6mxeYEMS025Z5ma0IFy7uzqiob2LE9Pgd/pqslJydHgYeS1G9Bx53IwaDRfNlLxVu6VDK79YaGWSqvVoC2JGg0k4W/aOEQwFHEa1NZOMqUcnIKZEn0+XbH0Xko+7DYoUILR7QauBFfzTiATdvPIzo+TabYKj0+PbPQwQVYn58lwCEB688fkEGkzF7ZHheIBN1N2bWVZjFz2mqGbGe//tx+WdeCzdbokjkvnkuLyLMCHXeKCzfPgeU90h3Dfi2MVdkdH4x15/eL97kVMwLc8MWBFRjoOwNt1n8l2/a/bjcAL9v2xj8deuNvYrzk0AMv2nbDH2y7wMpagMmy92G15H3Z1O4N24FosGY0unj9ZM6K8bfFzMC1sA3zxaaLh+CfEC4rs7JtP2GIwbvMGuIxMWD2fpaQgtw8pKeKyf1iFIIFMJwMDkbMpUuytDl1W0BCYcIVZPluh27iVOi6Mmi0kQwaNVSrDU2zNtCMHAODnSNyxfPlpP4bfnKeL1o1YmNjZZv+Xbt2ya65XFwII4/SwE7p+dGd0HFCQAevkYjISNxKTzdDh7iOZHv6mBhkewsYnjAZWgIHXSpMixXAoWvaGnoGja6wNgeNSgvHg1sElZ6sGFB6ITYVDh6h+PALH9TptArV2rmgSZ91GPbdDtiuDUXomWToDffJ9FN6KD3T0GEUd/2XM2/ISqAsE749LgChN6MFZGhlnAY7ydIywJRZCR1iIWal0KXBntLqwToWz4J75feKizzdHiyRzrgWukRYNG1bzHGsjtyFRUEb8eMhR4zZs0QGlHb3nYQWnl+j5tqRsgIq+8LIgNQ5jWE1vZ7ZIjKnGayWdsTLDn1Rec3HqL9hHNp4fouePlMxYtdCub+FYr+r6IqJOiKDegOvnpNWpCTdLVkf5Z7nV6zxJq0eifEJOBMRicjIM0hIToZRTOgsH11wOQHZ23fCMG0mDL0G3FFptDYyW7WHdjRdKk7IORGEQtbhKPzf4Eiw4B0rXSwHDhyQ3XNPnDiBK1euyMVGSYlWL7YCiI6KQpC4NgIEeJwRP6cajaAtjIW/ClgFd6sPDJOnIVPAsIYQzBgONnBr0BT6j0eaYziOB5QEjaoiU2VVV65psWn7OXw+bQ9aDliHWp3cUK+bO3qM8saMFUfhH3AZ6Zqskq2VHoeeYei4LYMbM8SixrtsFuDinf5NUwYMAjSyS/qksGEb28YzDoKgQSvH8lAvGQfCVFumrHI/z4t4R0/4oKWBFgcu+rJXjCZZWiQYkMrqpR7n92HFKW9MPu6KUXsXyyqp73mMR2Xnwfg/617mKqmL2puDUpd3lBVSX3Lqib8598a/HPvg3w79UdHpI7y7ehTabPgavbZMkVVSv/e3x7yg9XA9s0u+TlDyBVkzhdYmxqUU835R/J+flwdthgYJCQI6zp7F2XPnkHTtKkzid8UCOPJ27Ibh51nQ9xkIU6MWMFWpCZ0YMmh07GcwOLkiNzgERSmpvzsTgOfGKBYPxnIEBwfLDrp0szCYlYGmSkq/QEd0tLS+BZ48iXOxsUgzGFDE+B92Mt7qCwPrcPTqB13thtC9Xgm6ijWge68l9INHIGvxCuQdOaZcKs+AbqYasOdIHKYvO4Ien3hL4KjRwRWtBIB8NX0vfHZfxPWb/x1npvRoeoYDSc0BlnligSVgsMYEG7IxuLSguEhaQZh5ES3u+ENuXMSey8FyoXWM2Abn037wijqEoOvncc2QgtznxNLxv0QYYSosa5cwHoOWkP0JpwSMHYQNXTHH3fDVAWt87DcH3b0moOX6L1HXfTQqrx6K11wH4R8uffEnh+6wWtFBAEkbWM1vCasFrfGHpR3xD5ueqOAyGA08xqGj948YvGsuvvG3xZygdbJj7mZxvg8mhiE8JVZmFMWkJuLC1ViciolE4JlghJ4+ifhz4TBEhOG23w4Uzp4PkwAOQ52GsrS5oUY9ZLZ+H9pxn8PgLIAj9BSKBaA8qNma1g4CBhcVNrSjtSM0NFQuNAw4VbEd5VsW6IgSoBEUFoZj4tqIjIpCSnIy8sXvinfuRvaU6dB17gFD9XowvlEV2RVqILdFB+SP+hyF1o64ffSEWM1SSvaoVJal0WUjKDwJ1m7BGPK1Hxr18kClVk6o23mVTKVl1dK4BDa8VO6xx6VnFjooXgb3uhR4N20Qi2uSAIqIlDgcSgqHT+wxWcOD4LEl5igOJ0VIIGFTuGcxpuNRxDt+WncYfyFrmQgAoTuE8SCHEsOxNeaYBDOm5n59yAZDds9DF5+JaLLpc7yzZgRedeyPP6/oKsCjrblEO+uD0C1j0xl/deiNV10+QFW3oai3dozsMcN4kA+3z8RXB20wL3i97Mi77uw+bIrYi40hu7ExcAd2HNqG8J3eSFm7GoUzZuH2R8OQ17gFTG9Xg55WjtYdoBv/OUyrViM35BSKWPjrIXupEDyYyXJS3MUePHgQQUFB0vrBDBeCh1L5FQOO2VU5Jj4eJ06fxuGTQQgT18n1E0HI9d2GojkLkd3nA+jeqQv9vyuI67MG8t9ri+JPPgfsXIHAECAlg4Rfskez+J3jUCpbMmblyZLoHlvP4NMp+9Cs33q82cxBgIc9eo3ahOWrgnD6/A3Vh+Ux6pmGjvuJX+2swlzcyMrAeU0iTtw4jwNJYdhzJRgHr4Yj9FY04nTJyMjVI6+44J7gUl5VcLsQ2jwjEvQ3ECLO066EYKy9uB9Lw7wwJcAV4/cvxwfbZ+B91gdxH40Kzh/iFcd++Jdjb/zNuQ9ecuqFF+264w8rO8NqKQNS2+OFZR3xfza98M7qYWjt+Q0G7JiOkXsX4fPdy/CNnw1+2uqIRe522LJkIc589yO0/T5EQZM2KKj+LrLfqQ19y/bQj/8C2avdUHQ6Esh8dHMnC4UxRddSI4Q/M5NFxXaUb9HSZTAYkZh0FeFh4QjcvReRGzbjlq0TCib+DPQbgrx6zWB4vQr0b74DQ9O2yBk+DgUrHZB/7ARyb5qD2PPE94gzi7KblW0VFN7GtZsG7D4cj4mLjqHthxvxehM7vNZ4BdoNcpedaI8EXYFWp/qwPC49l9BB5Ysvvb4gCzdztLhivIU4fTJixbhiSkFKbiYMhTliUihfFo4HVVZxnjxXlwSARKRdwtFrkdgWFyhTc1lS/YcjDhi+ewF6b5uK9t7foeGmT1HFfRj+T0CI1bIOsJrb1JyaO7MerOY1gdXy9vi7gJK313yEmutHosHaT9HE5Qe0WzEdg3+egVnjfoJP709wsXEHZFSph6xqdZDdvBWMo8Yh29kVReHhgFgQHoeYyRIv7mZp7WABKLpYGFDKVF6l8q3CwiJkXL+JuONBOOu8BnETpiNz6DigYx+gTlMUvF0ThgrVkdGwOdKGjEDaoqVI3bcHyfFRiNfdQFxuBq5kp4vvjl5+hxR4lG3pTYUIjryFhU6h6DbCC282tcEr9ZbgvZ4u+HrGXvjui5Zgojyvj0dPDTpoauRdBc3ZvLvkIvCgg/7Xew3+LUsMY7YJ+mwjdGJkZhugYzpnbhay8sQ2YuSI17Vs/zyPO89Nrhy5yBPvvSAvX3aTLaYpuOg2/VJmM5EY7CdRUFiI3II8mPKy5TlMNWhwJf06zibH4mh8OHwuHIFr2A4sCdyASf5OGLNrEXp5TUKzNZ+iku0g/HVhZ1jNaQWr2c3N8R9L28LKpgNedOiClxx74K/WA/CPuaPw+g/focHwyfiox4+Y12o0ttftirNV38N1MalrPvgQmYsWw3D4CHKTk1GUZ57E88X1k5OfL8ub3+s932vQdG657liNlHEdLBTG9Flms0RGRkprB90v3IZl0u+1n2dxyM9efOY8Bxx8b096WM6jxa1gcTGU5SFT0MV5Sr8Uj8u+frg4dSbi+n2E1KbtYazVCIZKNXCrWi3EN2mC8wP6ImzaTzi5eTWOhu7HrktB8LpyAp4JgdidGIrwW3Eyk4wZdL96LfE6PDd3j19tp8YTHTznBlM+Ii7cgvWaUPQb54XKLW3xSv0lqNfFCSO+2w6XjeGIFH/X6e/xOT7mUR701KCDExLvKpkTn5SUhEuXLiEuLu6XwX8/yrgcfxlXEhKQlJiE5KvXcONaMm4mX8cNMa5fTcZV8fsrCVfEdvG49Bhf91kavNPn+2cGCWMa+DlcTbqKa1evynN2XZ6zG0gRd31p128hNfkmriddw+XL8TgXcwHBFyLgf/oEtoUcgPtRXyzd446JW1ZilMdM9HT8Bs2WfYIaCwaiwtzeeG1ed/xzUWe8tKwDXljxvrkWyNzusPp+GP407Hu82XUGmrWYgaGNv8fC+kOwrUFXhHfpg7hvvsHlte5ICA1F0pUruHrjOpIEfCSIY42/fPme7+vuYfls+T4Zy3Ht2jVERUVJt4qPjw/c3d3h4eEh4SMiIkKeB25HywfP0fNwXfB98P3Iz1h8vjwHfI+WwX8/rmHZP7/b/I7zu04I0el0uHXrlixHz8HicGVi3LyJmzdvycdryeL6jo/FxSMHEW67AiGjRyK0bRuEv1sX4bVr4MS71bG/VQNsGdAB7t99DHubSViy3Rozj7vhu6BVGH/UBl/4W2Pu8bXwPH0QYZfPI/nWDWg1WmjSM5CakirTtvm6lvNQ5s5HORj8DDhu3bqJpKvXERAcjeUuh/HB+A2o2d4OrzdegdodnNF7tCdmLD8Ev/1nERWTJG9KUlNv4dYvn+G99/+/xp2fOb8TjCNiZl15iCl7KtBBorNUiOSETtM2i/AcOnRIFm7ioMmbv3vYwTvYgOPHcSIgECcDgxB84iRCgoLFOImTJ4Lk7/l3bnev5z+OwfdQloflOOW5KoltCBTnheNE4Al53kLEeQsV5y38ZCgigk8hXIxTJ0MQfPIkTpwMwvGgQBwMOIwdh/Zi4+6tcPLxwOKNjpjqtgRfOs3EcJsJ6LvsK3RYPAZNln2M2is/QGWbfnhjeV+8MutD/PPLz/B/H8zAG+2WoUajFWjbeA7GtvgO1l3GYtfor3BywQKEenvipDi2k2GncCIkBAEnTuCY+PfRB/zs+P7oTuHgtbZ161a4uLhg2bJlcri6umLHjh2yEiVTavn4JK+PJz3u/Kz5Pvh++N5ZAv7UqVMICwuTj4978Nzx0VJ4jd91TqiEHlaB5d85eBxPe3Du4bGGh0fIx8ATx3Fgnx+2r7aB99Qvsfnj7ljfuTFWt6sDm07vYn7P+pg8pDm++LorRswdjIFOn6Hrxu/Qyus71N/0KWp7fIL31o7HEM8ZWCIgfFfQIZw+ewax0TFgIbwzkWfkeefrWo6hLJ2P8jBCxeBnzc8hIkJ8FqdCsWPPMSyy2Y6PPl+Lht0cUamVA2p1cEW7Qesw9icf2LgewD7/YHn9njt7Wlwvp+S+goPv/Rr/a9z5mbNuEG+CCCDlwb371KDjzsp/zB5gFsG+fft+KVFNczd/9yjD/6C/TIvkOHTHsPyOf7/X8x7X4Hso64PnmuedqaMce8Xgv/k3vgd5DsU45C+A8NBhHD1yFMe5gBHmxOcWwi+d+PKcJAgcPYaD4rzu3rcHvrv9sMlvC1b7bMDKza6Yvd4GP25YiM82z8ZIr+kYvGEqetv9jLaT5qPeYBtUbeeMtxs4olZTa/TuvhjTxy6G1wIHHN8kgMP/AAKCxP5PBOKQWED5Gnef698zCBqWBZnvkdBB0Fi+fDmWLFkCR0dHeHt7y225SBN+eZ3cvZ9nZdz5OfN93Anzln43T2LwNfjIEvdMP+V33eLO4u8tx3T38f7yvSzFIW90eLzHAuRx79y9HR7rnLB88QTM+O4D/DiyNT4f0hAjhjdC//HN0fnrVmg5oT0azO6KGsv7oYL9B3jFsT9esukBq2Xt8Yel7fAf6z7otOorTPe2xZaDOxAUHITIsNOIDI2QEB8oXivgqDhX4vvCcfSwAEPebInvF79n9zpONR7vsNzgBhzntXoU23cewArHbRjz43q0/cANtTutRs2Oa9C4xxr0HeWBKfO9scFzn/juHBM3XOKzO3ZE7udBr1vLtX7n95LfRwIQoZwZdM+7nhp00Ixk6fzJ0tQs0ESf+pkzZ+TghMXfPcrgPv7XuNfzHte41+uVtUHK5t0vF1nLYsF/8/eWz+LOz+PC+QuIEndssTExiI+7hMTLCUi6fAVX468gMe4yrsTE43J0HC5FiTu7C1HyOaGR4TgWFoR9YUfhF+GPLaf3Y2PILtjv9MVPKzzRe4wHardfhX+/a4+3m9mh44erMXmmN3y3HMbp0EjExIp9xV/CRfGa586f/+XYz5Uc0+8d7C7LLBUOXmusRsoCYRs2bICbmxs2bdokJwS6WNjxltvfaz/PyrCcJw7L58j3zbu1Jzl47fCRbh1mCdG1wu86O/tKa0JgoBw8/3cO3nyU9uC1TqvD6fDTOBV6Cv6H9sPD0xXTV/6EoVP6o903LVD/6waoNaEJKs9ogzfmtscrCzriH0u74CXrHviDTTdYregIq8WtzcHS85vh5eU90WX115i1zQG+R/YgOCwE5yLPIiryPM5HnJHjQuQ5XDx7Xo5zp8+I149AmHh9QjyP6V7HqsbjHcHBJ3E64pS0XJwIOoWNW45g8gI/9B2zCY17rRfQsRa1O7qi40du+PbnzVi7cT8CAoJw9kwYIsJDpaXi5Ml77/t+w3KtW74D/B2vP841dHOaStpAPM96qoGk9PXyLogmJRLe0xo0/VrGvf7+PA/eiXIx4EXPBYkLMombv7/X9jxH/GJkmbKQnZWNnOwc5IqRV/KYm/X/R474e7bYzmQ0QS+eqzXokGHUIl2MW5oUXIi+jM1bg/HlxG14r6sLXqm3HG80s0GHYRsxZdkR7D4Si8tXM6ATzzdlZ8OYZXqoz+jOz9cyLPEFNGsStPbu3Suhi7BBC9zd299rv8/S4PslAPC90S9tiSuw+LYf57D4qTUajQxgLSoqko/0WzOmRMYSiWuuLAzG+TCOibFL165ew4Woc9gbsAcLvVZgoO14VJ/bDX+f2QIvzW+JF5e1xwsrOuAPywVkcKzoZH6UvYrawmqRAI/F7fGW7QB0X/c9pu12wLpAPxw4HYDg8xE4Ey0gIzYal68kIFncbKWKzyEtNQ1p4jFFnC/Gm/EYGG+WdCVRxpyZR4I8zgQB+An3eA9qPNzgOb154xoy0lNw9doNBIREw25tIEb/tAOtP9iMGh3dUbWNC9oMcMPX03ywaWsgzpyNFp9TEq4nX5VxcJwr77XvBxncD78ztAbSFfm866lBh1LZEBcDXvA0ffPumDE2XJRK4+LPy8xDyIkEzF3ijw4D3fDGe8vxZgsbtP14M75fHCDuEhORcCMb+U8os5nQy0WYwMW7D96FMwjyef7iEwBoeSDsWzJansTgOeTrWDIyeK75ehbgo+WjrAxCNKGZgJyeIa6Hyxex8YQfvtyyEI0dR+Mfy+g6EWBhLYZNe1itFI/LxSipQ8PmiJbxx6Wd8LptfzRbMx5DfGZiwj57LDm2AauD/bA10h8Ho4JxKvECYlPFwqVLQ0aWDsYcE3Lz81AgzldRXgGKcwtQlJOPgmxxHgnvJgHvBG+DAGBCpN5wz/ehxu8flmswNycLRYX54uYpF5eupGHrnguYMN8fnYZ64p32rrLVfZOeq/D5lO3w3B6BuPgb4noxiu3FzZS4bozGR/8seFPAG29+Z/j9fN6loKOcixc7SZvmcAY1ETyYecAF4knrdt5tnDt7AzYugeg7ar24q7BBhVb2aDZwI0ZNOQjXLRcRGZMBU86TSZDnYsi7f1o3CB18/zwXpfHen7b43ksjRdMi/swJlfBB1yof7x78fWkPvi6PS6awikdO/OnadATHRMLpiDdGbpqDxk5j8brdQPzRXsCHbScBHR1KrBsCONifSPYoEv8W4w9LOuKvK7qJ7fujhutwNPf4HN08J2DY9nn47qAtFpww9yXaFheAY9fOIDItHpf1N5Ceo5NtHO44ZWbx37z8i8X5LBLHWFgkFknzefzNUfB0zuezNAoLC8Tnbl7kWeY8Jc2EoyevYKHDCfQZ44132jnilfrLUbeTI0b/sB3rfc4g7nI6cgmG4nm8boqKHuw83/05WX7HfVm+j8+7FHSUc9GkFxMTI32LDGiif5HmbxL4k1ZBfiHOR1+Hk0cgBn++QXy5HVCljRMa9lyHfuO3Yb79CRwOuoIMbXbJMx6v+GWnyZ+gRRcLwYNxCLzz4ASgVP7EST83O1s2Hzx8KhB2u9bhq82L0HvDRDRYNx7/cfkAL1h3EcDRztx/iMCxkOBB6BAwIuGD/xZ/W9wWVks74G8re6KC80doJJ7f1Wcihu1biO+OO2B2yDrYntmGjdGHsL+kL9GlzOu4YcpAerYOmblGmPJzZMdsNrhUerIyGPNxJioFqzZGYOjXPqjd0QH/9+4SvNPWHoO/8IXzhtM4G52GrOzf12BS6d5S0FHOxTt9xjUwqInR3AyO4sJL8+OTpu78gnycj0mCy7ojGPrlWjToYodqbV1Qt6sHOg71kmZOvwPRuJX6eKqQ3im+N5r/6UpigCWhg+BF4KILQEFH+dRtccdLd8aNazdkjNPuowew1t8HS45swBcHrdHW+zv8x6F/CXS0EmDBR7Ol44XFHeWwWiR+N78FrOa8B6vZjWA1t5nYvi1esu2O110HocaGUXhvyxdo7/sDevlNw7A9C/DdYXssCN4Il8id8Io+jD3xwQi4ehZnUuORqL8FrQAQtihQenLKLyhGYrIOW/dcxBfTdqFxDxe80mAZKrd2QJ/RW7HEORQnwq4jIzNHzA8lT1J6YCnoKOcidDCeg3f5FksHg5to6XjS0JGXl41zF+PhsnYfhn+5Co27WeOdds6o2ckdzQdsxPjJu7Fx21kkJWeWPOPxieZMVupk9hSzVQgdBC4GhpWHXHmle4sgykJeVy5fwZnwSHPWwekQBMRFwDPmCCYGrEKrTV/jZds+kKX+l5ZYPBa3x1+XdcNrNv3wtv0HeNNuAP7PujdeWt4VLyztDKvlnaSF5E8O3fCScy/8bVUf/MO5D/7PsS/edPgANVcNR8t1X6LXlikYtms+vjlog1mB7nCI2CYbMB6/dhYX06/gujEdujyTbNhYrAqsP1ZxusvIzMahEwmYusQf7T9ci7ea2aJKG2d0GuqNKUuOYYd/nJyP8vIVAD6sFHSUc1mgg5Mr02bvzBd/stAh7ihzTDh3IQarPXZh1DdOaN5zOWq0d0C1dq54t5s7PvrSB47rQhF1KQ0FhY93gqUvldYcvlcGkPK985HxLM9zIKnSb4tBsMzcio2JRXhoGE4FhyI6KgrJqTcRq70Gv4Qg/HTEEW02fo3XHQeaYzvmNYPVwjZ41bYfWqz9HAN9pmP4jvn4aPssdPeeiBbrv0Qtt0/wlsuH+D+nvgI8GBvSUQCLgJX54rlzmop9tMQflnbEv+z6oKLrYNTzGIN2nt9h4Pbp+Gz/ckw/7gabsK3YcP4AdsefNFtBUi4hXpOMG4Z0aLP1stx6QbFaDB9F2bkFCDt3HUucA9F71GYxFzmjqpiPmM3y+c8H4LH1LC7EpiArO7/kGUoPKgUd5Vz3gg6mkj156CiGyWTA+QvRWLdpN76a6IIOA1egbkc7VG7tJL/s3Udswny74zgZcQ0G0+MFAS4uzFyxxLPwvdPiwZRPxnoolU/l5OZI6IiJjkHISRa9C5L1ZrQZGhlfkWRMxY5LJzDpqIvstPwKLR50pSxqjzqun2DcniXSOuETcxxeUUfgErkDswLXYty+ZejrOw2tN3+N2mtH4U3nD/F3FhRj/IcADqt5Yh+s9bHyfbxg3xV/deyJV5z7o4IAlZquw/Ge+3h03PQ9BgigGSteY/IRFywP9cJ6ASF744MRnHwBUemJuKZPhUYASE5hrviGPVlL5fOoouLbiI5Pg8vGMAz9ehvqd1uD6h3WoEnfDfj4252wdgtByOlr0BlU19mHlYKOci66UehO4V0+y4Qzg4MxHQwwfZLQcVvcken1OlwQ0LHFdx+mzXXHgJF2aNrTAVXbOKBiCwe0GeiBCfMPYs+RS7iVZkRR0eOzdtC1wlRhSxApa3Qwg4cxHiqeo/zKAqMWlyNh9GzkGWSkptM4J5fxa4ZU7LwUhClHV6Hdxm/wmm0/6U7p5jUBK09tQfitWKRmZeKWSYs4zTVplfCMOgybMB/MCFiDrw7YYOiOeejpPQktPD5HbdcRMtD0PwIy/uncF3917o0/OXSHlXVnWC0VULKgjXks6YC/r+iBCo4fouHacei2ZSJG7lmEicdcsCRkM1ad3QXv6KM4kHAKoTeiEJ2RhGQBIeniWPS5JmTl55YEparr+7eUlKyF547z+HLaXrQeuAG1O7ujXre16DHKGzOWi/N7PB6p6Y8/zqy8SEFHOZdl8WWtCum/FoMFwjjxMu7hSYm58VqtBlFR0di99xCW2W7G2O9Wo9NgV9Tq4IK3mzvivV7uGD95Dzb5XUB8kkYsCI/PAsG4DbpSCBoMoOVg4CDvchV0lF/dCR0MrpYwGnEa6SmpJVtAujASMm9gR9wJ/HxsNfpsnYzOm3/Al/tXYltsAFKztSVbAvlikWcmyiVNMsJvxuJYUiR2XzqJzef94Ri+DXMC3PH1AWsM2TkX3X0noaXX16i7YQzeXj0Yf7ftZQ5Ynd0EVjPqw2qmGHMbS4vIi9bd8KrzQNRcOxLNN3+JzlsnoL/fDHyyexG+97fH/MB1cDm9A1ujjsI/IQwhyRdxMe0KknS3oM0xyONSurdupRmwV9zoTF96BN0/8UK9rmtQ/f1VaDnAA19O3wvvXRdkXAfTbJUeXAo6yrkssQ10qTCIlMGkpRHbkJ+Xi/R0ujeiceTYcaxZtx2T527GoE83orGAjUqtV6F+N3d8/M0OOG2IQOTFm9Abch+b9YUZKpZ4DktPFpYL54KjoKP86l7QwbLurLB6p7IL82RWycErp2ATtgUzA9bAMWIbQq5flG6YO0XLAi0M2QW5MOZlIzPHiJuGDMRlXJVuEVpN3M/txbJTnph23BWfH1yJD3fMwvubv8e7bqPwhv1A/GVFt5IqqO/DyroTXrDpgj/adsOf7XrgL/Y98Xf73viXfR+8waBUl+Fove5LDPD5GZ/uW4apYp/LQj2x5uxubI8LxImr56QrhsdgzMuSAFJUXCSP87ZyyUCTmY2gsGuwXh2CIV9tQ6MebqjY0h51OjmJf/vAZUMYLsamirnz+S/k9SSkoKOciwss4YKTKuM52ISICzArk3JhflIuFhbgSk1NQVxsNEJCTsLXbz+W2Plh7AQftBm0Ce+87y5TZ/uN24bFTsEICE1EarrpsR0PY1boRmKfC1o5aErnQsMYlycby6JUlnU/6GCsz93XBS0eN00Z0pWxP+EUAq+dRZI+5XcHc3J/hJDrhjSZmRJ8/QIOiv34xhzH2rN7sTzEC5OOOGPk7kXo7TMFbTy/QeMN41Bj7Sd40/UjCRpWKwWILG4Fq/lNYTWnEaxmNYbV3BZ4kZVRHQaiztpRaOX1DXpum4Khu+fha38bzAlYC6eI7dgSdQT+4vUIPudS4mVQ6k1jBvR5pnJtCTFm5QuoSMN637P4bMpuNO3thlcbrcCbTVeg67ANWOwYiFOR15GtgkkfSgo6lCR40NrBehWWDr+Wu36mED7uRZj7o1uHoHPpUjQiT4fioP9RrFq7Hz/O2Y3uI30EcGwQYx26jNiKqUuOYdehWGnSfFxxHewLQjcS41gIWQwiZV8QgpZS+dVvQce9LGAEDLorbojFOiVLC1NBzgNbCwqKCqV1hPtJNWmRLCCE7ptzqZdx/OoZbIs9LquYLgrZiInHnDB63xL08p2KJus/Q0WXj/A36+6Q1VEZ0EpXzBxm0zAotRP+4tgT/+c6AK+7fYjKbh+j7pqRaOnxBXp5T8aIHQvw7QFbzDruDptTzIw5iANXTuH0rTgk6m5CI44nr5ALa/mC8Pz8IiTf0GPP4ThMWuCPNgPc8e/6S/CvuovRoq8bpi4+hMMnrkCbma1uUB5CCjqUpAgBtG4wcI7gQQsAC2U9iSJh3B9jKjiRxwvoOHc2XHZv3Lz1GOZYH8JHX+1Ck76eEjpaD9qMz6ftk3cd0ZcEBBU8elwHs1MYx0J3EltLEzyYxZKRkfFQLiU18Tw/elDouFOP6yqgm4PuDpZFJ4gkG1IRnZ4kXTf7Lodg/YUDWB7qjYm0guxagF5bJqPNhq9Q320UqjgNwev2A/CKfR/8w6E3XhLQ8UdHASW2nc3pvYvb4YXFHfCPFT3wluMg1HH7BK02foXeAmLG7F2KaQGrYRvug00XD8rXOpl8AedTE3Al8xZSTBp5PLTO5BTkSVh6HiulMlYjU5+Dk+HXsNA+AF2HrsdrjZbh77UXoUG3Vfhq+l5s2xeDq9d1Yj5SLpYHlYIOJSnGdnBipbWDEy3jHBjvwHbLjzuFlIs0myVx4b8UF43z5yIQfDIEO/cGw849CJ9NO4j2g7egTpe1aNDDHR9+4QsbtxCEnb2OrJxHM2kyOJbWDAIW3+eePXtkUTC+T7p8HgQguAjxvBFUaBH6PYG33IbPud+2lr/znP+vRU7p8etRoONxKbcoX1o+WASMWSeG/CwY8rLMFhVDOmIzriLsRgwOXQmXrpg1Z/ZgpYCQ6cdW44v9K/CR3yx09v4RTTZ8hnfcR+A1lw/wF1sBHqyeyuqos94rqZLaRrpn/u7QC2+u+hC11o5Cy01fovuWibLGyPg9SzHpsDMWn9wEtzO74RcbiGOJkTh9MxZxGddwXRwLS7WzUNnzJlo7LsalwWn9KXzwqTcqt7LBy/WW4d3Oq/DJDzuw2jMS56JTHnsqf3mQgg4lKU6oXIwZQErYoLWD4EEXxOOu2XEndMTGRuPcmXCEhJzCoWMR2LgtEtOWBaLXmG2o03k1qrV1RMfB6zF92REcPpGAzEfIj+fr0sLCKqRcSPbt2yffJ0GLsRw8B5bBxYfng8dJGLkTvPgzf8e0Yma7cEHiPi3t3PmcO7cnSHB7Wo2Yksv3zYWN55Xb8bg4CC78HS0uHNyeFijLNkpPXk8TOuiWYZBprOYqQm5cxInk8ziTEo+rerG4CegoLC6S486gVNbksIAILSG74k/KgNFFwRvx42FHfLJnEfr4TEPrDV+j9qpP8KbdQPxjZQ+8uLILXrDpihfsuuKP9l3xon03/FmAyV+su+PvK7vjXyt74g3b/qi5ahhar/8KA7bNwJcHrDE7cC3sI7Zh00V/Wao9KPkCLqYlSpeQGUDyxDHSAvJsNy/joSddz8Rmv3MYP2knGnZ3xdvN7FBXzEkDPvXBIqcgHAu+gtQMk/kJSr9bCjqUpDhBcHFj3Q66Gggcu3fvlgGWlliH33Mn/3vE17JAR0xMFCJPhwnQCUNw6HnsOxqDFW7hGPz1TtTu5ILXGi9Hg27O+GLabmzfH42U9If/kvP4uaCwNgcXEwIH3x+zWCxWDsuiQ0sIYYTQxXb3fP/8O4fFNcSeNVyQaCmhW4qxIaxzEhsb+4urhlYLPpeWFL4uFzJuy+24sBFUCBfchs/huWbXW27Lz4HP49+fRGyN0q/1NKGjSCzUTGnlYs5MGOvQLbK+R/jNGKRl60q2ur9YkZSBoAxKZVDrrktBsoKpfRhTcz3w9X4bDNk+B129fkKzjV+gzroxqOI+DK+5foC/2vc0t+uf3xxWMxvAanpdc5ruvOZ4cXlnvO70AeqtG4sO3j9g4M6ZGL1/CX444oh5QevhFOGHLdFHcfhKOMJvRMvMmMTMm0gxaSUsPatVUtMEUOw5EofJC/3x/kcbUKO9i7gRWoPOwzwxYYE/ton5iGCi9GBS0KH0X+Iiybt2xjtwUT548KCcdLnwPq6eJHdCR3R0FCLCT8nMmTPnYhB6OgnrfKMwbvI+1O3sgn/WWYTKrazx8Vdb4bE1EleuZcqmXA8jWg2YscJiYLRy8JELOy0WBBJCFy0VrFlC4Nq4cSN8fHwkVNBCwW147NyeixIhg9v5+vrC3d0dDg4OWLNmjdw3/26xVvDc0Xrk5+cnt3Nzc4Onpyf27t0rzzMhhbDBY+O5JvDR7cN4E8u55/lS0PHk9bQtHTHpSXA9vQNfH1iJz/Ysw9LgzdKNwp4rv+fzpyWErhlaQG6K53Dxj0pLRHDyRQkzHuf2yfRZptF+ftAag3fNRZetE9DIYzzedhyEl5Z1EeDRqqRZXWPxczNYLW2LP1h3wd8ceuHfLgPwtttHqLZmOOqtHYPWG75C3y1TMHb3Ykw56oJl4nhXn9kFn5hjOJx4WpZqp6VGL+DjWStKpjfmIvBUEpY6ncDAT33QsLu7uBFag+b91mH0hJ1w945E7GXxuYj/lH6/FHQo/UpcKBlEymBSgodl8SOM8O79URe/O6EjKuqiAI5QhAvoiImNR2x8CnYdTsCP846gUY9V+HvtBXj9veXoPXozbN1DcS4mFbl5D+Zu4LZcTPh6XPy52DNDh5YMtrYnaFF8b3yPtES4uLhg/vz5sLa2xq5du6Q1hNYGLjx0xdACYrGW7Ny5E66urpg7dy7mzJkjoYL7oLWE1V6ZGUM44e/t7Ozg6Ogo4WT9+vUSapiyS+iy1Azx9vbG2rVrsWnTJnmctKgQdJ70oqf09GM6LqQmYEWIF4b5zcHQ7XOwMGg9Dl+JwA0BEAwufRjx+s8uyJNVUlkhlSm+rFrK6qWrIneK19iAH/zt8fH2ubLIWSP3cXhn1VBUcBqE1xwHyKZ0rAXygq0AEusOsFrRToKI1aK2eGFJB7y8shequXyM5hs+R/etk/Dx7nn4yp8N69bCIXwbtorXOZIUKV1Fl7U3ZCxImjgWXa5RuokISmVR2Tn5OBt1C2s8T2PcpL1oNXAjanZcg7pd3DBg/BbYuAXjXDTrtyjoeBAp6FD6lbi4cmHlHTgXTy6qlkWaMQycmB9Fd0LHxYsXcCo0BBHhYUgUC/uNW5k4EXYDc2yC0HqAO/7v3cXSxdLp4w2Yaxsg7jyuyuI9hQ+QOsv3QzcGj58AReiwuFXufC90sdDiQOsOYWPatGkSPLZs2SLPBS0ltHbQFcLtCB5cnJhevGPHDixbtgwzZ86Era2t/DehjYPnjpYNC2hs27ZNWkcIFk5OTtKiwm1oeeGx8d+rVq2S23M/3D+tJo/LvaV0fz1N6KAl4HzqZelWoeXgy30r4Hp6JyJvXZLxEo/DUsCgT1mczJghAYCZKcxQ2Rsfgg3nDsrU2ZmB7vj2kB1G7VmEftt/RlvPb1HbfSRedRqAF60FeDAAlU3uZjWE1cxG5p+XvS8tIa+5DkLVtcNRf/04tNn0DXpvmYJROxfip0OOWHBiA5zC/bD5gjkehK8bk5Ekj8WYL75bZQw+mCl3+aoG2/fHYNLCo+g0bAuqd3BD5TbO6DhkPeZYH5N9WAoKf33czIDheIB7o3IjBR1KvxKhgAscrQBc8LhQ806d7gQutFzAuUA/7CR8J3RwfyEhwRI6rl1NgkZrEHcP6bB1D0fPkZtRobk13mpmg7aD1uPHef7YcSAWidcykZP7v4sX8fj4PriIWOI46PpgiiytB1zIeSwWWawhXGxo6aDVYsmSJdi6datchBjkyf1ZAj5pfSCIENBopaDrhOBBYKB1hBYMukm8vLywbt06+cjfEX4II7RkLF++XFo+CHYEIZ7j7du3y7/R4kEA4rHyNRR0PHk9TehgGuoZARjOEX6yKNiCoPXYJ2DghiHjscZFyO+3WODziwolhHDBz8jWIUmXgguySNlFWezMM+oQ7CJ88XPAaozZswS9tk5Bi/VfoKbrCLxp/wH+uaIH/ry0E15Y1hEv2HTGHx264UWnHviTYw+8ZNcdf13ZAy9b90YF+0Go6zoSrdZ/JdN7P9m1AD8ddsLSkM0y/ZepubS+xKRfxTV9inQNyY654viKxDm/8ztamuLrpmlM8kZnsXMw+o7bhhodV+ONZnZo1tcN38/eh13+Mbh+Uy/nI1N2PnSGXNkMzmjKkxZZVSr911LQoXRf0d3ARZjgYVmwLa4AWgm4aD+M1eNO6Dh//oJcgMPDTuF6ciKMRhMSknRY73sBw7/zw7udXVCljWOJH3UX3DxP48zFWzCYfvt1LUGxluPncdOKwEWdizgtNgSnO0U3Cxd3xnQQEFasWCEtHrRKMLjTEvvB479zIuTrcGEiKBA4aMlgDxsuWvyZFguL1YL9XZghRNgiVBBq6HLhueVxcvC5PF5aPtgbhtvzfJWGeb+862lBB10MGWKxZewFoWNO4Fr5GHo96ldl1Z+kCDcscEb3BwuURdyKhf+VMHhePATH8O2Yf2I9fvJ3xJhdi9F/61S03/gNGniMRbU1w/D66g/xD+e++KNdV1gttaTnslhZU1gtaoMXVnTG/9n3RRXXoWhS4ooZIQDkO387zA50h+0pH6w7tx+7LwXhxLVzOJ9yWVpjmJ2jyTbI81BQytYQWjFiEzKwxvsshn7H4HZX/KfxStTp7ISh3/jAdk0w9h+LR/DpZJwIu4ag8GtifropY89Y66OwUH1n75aCDqX7igsr7+S5QHMh5gRMiwcXby6MDMKkNYR3/g+iu6GD+wo7FYLka1eQlWXCzRQTdvrH4/s5B9Hmg/Wo1Wk1GvZci/7jfbDY8QSOBSdCo80u2duvxcWBIMB+MlwwLJYaLuRc1C0uorsXEf6boMWMEbo7CBC0QjAAlJBwt7WB74OuFr4Ozw1dKLSKMDiUUEbrCp9LqwljPmj94Hnk++b+CDYWywitHIQL/o1xIHTncL/8N98LgehO0FF6Mnoa0MFPlbENibpbOJgQJhbfrWJxXwf3s3tkIObTqIPBTBq+LuuEsEoqrSCszUFXz7GkM9geEwDXyJ2YH7QO3xyyxce75qGbzyQ02/QFarqNwKv2/fGnpZ1htaAtrBa2hNWS1uZYEOuO+JNdd/zToa/MiKniPBi1V7F1/zh02Pg9PvSdia/2W2NuoIeELu+oIzL+JETAF1Nz2eFXJ46JVpDSEN24BIhNfudl8Gi9ri74T6PlqNbWDp2HrseXP+/GXJvjWCTmpQX2gbBZE4Ituy8i7OwN2Rlb9Wf5tRR0KP1PcbIlXPBun64JS3ApLRS0GjD4klYAZrcQQH7P4sjJnYs/J3dmhzCY9NrVBAE5RmgycxB46hoWOpxA33E+Ajg8UKfLGrw/eKNsdb/zYCxS0u5InRWvx0U5KytbBsHS/cMgTqal0j1BSOLiQeDgIk6w+C1xHwQhxl+sXr1awoIlmNMCHTwnBKfExETpWiGk0FrBBYqZLoQ1QgOtG7RkMLOFP1ugg4+EFLpX6Jahy4UAQ+sLIYPHwP3zPCm3SunpaUEHC3+dTb0Mn+hjMmNlUdAGbL7oj6iMROkGYeVPiyuEaai0RrA/ytMAUbqBUk2ZsjYIa4n4xQXK4mFLQzwx5dgqfLZvOQb5zsD7G79FA/exqLZ6GN5c/RH+4zpQtu5/yb4n/sC2/ZbS7bSEzBWPi97Hv236ovbqT9B+83cYtGM2Pju4ElMCVmNxqCdWRe4yB6VeOY3Im5cQr7kurSDpWToJIo8jKJXnOS+/SBb9Stdm4eoNHUIik+G8PgzDv/NFg67OeKPJclksrHEvV3Qbvgn9xnmj56jN6DPaE+Mn74KtewgCQpNwK5XQoSwdd0tBRznSo0xQdFfwTp+LLBdIS/wBXQBc3Lmgc5HlhH232+JeIiQQZGgtoWUgPPwUriaZocOYlYdzMWlYtek0Rv60B836swGcGxr1dMfYiTuxafs5JN8wlOxJvC+xGHChtrgteDw8NsIRBxcPAhNh4Pek/TJeg0C1YcMGmXFCKwmPk69BAODgfmgRYWYKFya+Hs8L35NlcaK1g/EZK1eulINWEIu7hFaQzZs3S0uHh4eHhBrul58RH1VBsKejpwEdXOgYTHki+Rw8zu6TwLEi1Eu2zr+iuyldCgSOWyaNbJEfnZ6Iy5nXpQvkaVhBLOJrZ+ToZZM7ts0PuxGNI4mnZeVS9zN7ZMzGpKMuGH9gOT7cNQfdfCfLNvzV14zAKw79BHR0MPeKmVYXVlPrmOuCzG+JF1Z2xstO/VB5zVC8u2Esmnt+hY5bfkQ/3+kYs3sxJh5ywrKTm7GaEBJ1FAfYuv/6RcQICLplykCWgI+HVUFhMTIysxFzOV3GcvgdjIHLpnBMFDc7fUZtQv0uTqjUwhqVBHTU7OCEht1Xo3631aje3hHvdnbGwE+9sML1JEJOJ0OrY+C5+g7fLQUd5UBcvCzDIsvixsXfMiyL3r3Ev3FC5h04F1su4rRQcFLmXT5TPQkihA9LvIfF8nH3oKWBVgNmgHAR5oIdEHAccXEM1tTJAKzE63ps3RODb2cfQutBnqjU2kV8sZ0x6POtcN4QjksJml8S1YrFnaDFBcR9ERI4aOXgMbL+Betv8D3e7/1ZxL9zgeF7YmaJjY2NzF4hJPC9cx+0YvDY+X6Z8spYDloxaPGwWDl4rvi6tJLQykHoIFzwfPE4CUbMUuH+6WZhirLS09fTgA4GS7KeBgMqHcO3yTRZdoE9lBgu00tzxOLO4MoLYmFnA7jD4vdBAlC40LMfCtvsP6lj+18iMMkqqYUF0gLCehwsCnZZex3hjAcRx7o15phsWLdYQMiEo874ZPdCWaCs4ZoxeNvuA/x9eXf8cXFHmX77wvKStv2yUmp3/MmhO/5s3wN/te2Bl237oJLDR2joNgadN/+ID/1m4bP9KzD1+GoBad6yYR279EamxAkQugWtACKeG1ZwZazK78n+KSy8jRu3jAgIvYo1npGYsewoxk3aJYDDEy36rkadjo6o1sYWVVrbymrJnJMqtXLEa41X4p22dmJ+8pat76MupYlrifNNyY6VfpGCjudMnHy4MHJh5+Aiz7vmOycl/pume96V866bFgouoly4CQp3T2Dcnnf//DtdKSxWRbCwVO3k4stFmhkYjGGgO4NuGAZNchvu3zL4PC6wtEjQmsBFmYu2j89WhJ0KhSYjXfpRtfpcHApKws/LA/D+4M14s5kd3mxqLVtL038ace6mgBOzKbVITHi3xKJAgCH80LrBVF9aIRgfQQsN38P/Erehi4NQwGyTGTNmYPLkybC3t5cWHUssCBclul8Yq2HZhjU6GJvB88D3TYsQrSN8Hi0ajA0hfNBlw/NESOFrMMCUz+F5VXr6elrQwbv0rdFHsDzEE4tPbsS6c/tkq3taQLS5RhnUGSCAg66M7bEB2H3ppICPCBljkWxMl66FsiTCOy0OtMYQqJiaG3TtPPZcCsb6c/tl2/7JR1wwdvcSDPSdjk6bf0CLdZ+jzppReGvVh/i7Q29YWXeC1bI2sFpEF0xjWM1qZO6gu7g9/mnXC2+7DkYdj9Fotfkb9PKZgpG7FmLiIUfpnlp7bg/8xHk6knQap25Ey4Z5yfpU6cZiqfbfuvm4dSsb/scSsdguGMO+9kPbgevwbicX1GjngBrtHVC9nb2M6ajS2h6VWzmIeckO/264AjXfd8CI732lJfbaDd1TA8GyLgUdz5F4kRMmOGkybsDSC4R33rRU3LkN/06TPi0BZkuDGRIIIVx4LV8YLsS0ShAUOPlyey7uvIvnRMzX4N+4CPOu39nZWdap4CMXW8Y5cOHl/gkn3I4/0wrBrBDGTDBLxNnZCYcP+yPl1k05IeQXFCPsXAoWOwWj2/DNeEsAx38aLEXrAWsweZE/DgYmIF3L0uXmY0wX75nvh5k1fB88Jh4bYYkQ9ntEQCNY8DgJGj/88AO+/PJLLFiwQKa+0sJDKOM5IjgQOEaNGoUhQ4bIMX78eMybN0++b1oyCFy0CBGAGL/BfdKywaBSwge3o0WGx0swUnr6ehrQUSC+m2dT42XgKAMoFwdvgnf0Ydli/qYhQ7pVLqQlyCwS35hjMu6DsQ2EFFpH2AI/UyymZVFMzWV7fPaJ0WYbZJXUeE0yTt+Mw9HE0wKgAgUg7JOWimnHVmPcvqXoLQCi6frPUdV1KP5t3w9/XtEVVgvbwWqegA8OBqVad5Tdc//q1Fu6Yt5w+gDVnD9GI7cx6LDxOwzcNl0CDTvxLiGEnN2LPfEnZWouC6QR5hgHci/3VEZ6DgKCrmG5YyiGfO6HJj3cUaWlAyq2sEO1NvZ4p62Ajja2qNzaDpVa2aGC+H2F5jZo2tsVX8/Yg53+sUjLeDzVm59HKeh4jsQFkZYELnicLLnA826brg4uqJw0CSAW4KClgVDAtE4CAxdSTrRcsBm/wNgMLobMpCAo0CrBGAVaMvgafC1CDV0KtHgQIphiyoWXRbUYQMmFldszc8QCHlyE+bpMGSWcMG3UwcFe3vHfvHmj5N0AsQmZcNoQLrs8Vmlpg3/XX4rGPVzx2dTd2LzjAuKTMmXQF4HKaNBLawEtNjwegtXvsW7cKVqGCCp8b7RCLFq0SNbqoJWCx8/zxvPH16E1hcf9/fff49NPP8XIkSMxduxYWVCMgaE897QIEWJ4Pnle+X5p2aCbheebVhmeN+7398TBKD15PQ3oyMrPRVDyeVizXf1hZ5kRwjLi5wVo0H1iqSTKfio7L53Alqgj0lpASCGA8E6edTaeGYkbhfzCAhhyza4YWnEIWP5XwrH54iHZMXfqUVd8um+Z7HbbzWsCmq/9DLVWDUcFx0F41ak//uXcF39x7i1rg1it7CBTcq3mtYLVgjZ4cWlnvGzXG5WcB6Ohxzh08Z6A4bsX4KcjjlgSsgmrz+6SLh//hDAJIbEZSbhhSJPnkEG6qVoDIi/cxIat5/HjrMPo8bE36nVYjaotnVBNwEdVARpVWwvoaMUhfhYgUrujk7TCzlh+BEdPXoHeULYsT2VJCjqeI9FdwsWOixqtDVz8aMXgQsxFjeDBbTihMv6AFghaHGjqZ1wBt2fwJBdYS1AoLRrchwVMGAzJu3b+mwDBBZWLK2M5eNfOu3hL4CTdDQQRwgYXV+6L7g6+Pl0ffB0uxLR28M6f26WmppS8GyD5lknAxXmMncB6HU54vbE13u3iiiHfbIfDunCEn7spi/EUFRUjXwCD0WiQlg2+14dZIGgRsVh1aNEhWNDCQUjiMfNvBBOCGF0wBCeeC1YWJTzR3UJXEd8XYY/b8VgYC8JzZHFFcTHj+6clhOf4TkuU0tNVqUOHWIBZg4JpofNOsCmbNWYHuEuLBl0CtA4wYyVdLIiM4eB2my74w+X0DqwSY1vMcbFgX5Jug2dVTH/lYn/TqBFwlYyIm7E4lhSJXZdOyvfqEO4rz8mXB1biI7/Z6Lplgjk112OUbMn/V+vusFrY1hyUOrsRrOaLxyUCQFa8j5dsu+NV54EyeLXJ+k/R0fN79PWdhhG75uO7g3bSsuQSwfN4TFpeIlNiEZOWhHNJV3HgZCzsPULxxZR96PzhZtQX4PFOC0dUaiZgQ9wEMZi0kgAPBpE27rkagz7bguWrghAamYzsnN9nXS2PUtDxHIl3zLQqLF68GBMnTpTWBoICrRp0mXBC5Z084ynoIuHCR/jgosrtaP5nCicXTropuCgSYggk/B2hggsxF1rCBa0YBBcCB/fFNFoGXRIgCC8EE4IELSWEHb4+F21aIWiNsEzstKBwAecx0XJikUabg71H4jBx/gG0HrhW3FU4yS6Pfcb6YJ7dCfgHJuBmqkEsBuYgWS4KHL/lr/0tceEnmPFcERi4+NBSQUsRYYZ/s2xjiXGhy4UWHwIVzxd/5jm+s7YGn8P3zf3y/fFcEGBomaI15mGPV+nxq7Shg5897/YJE0uCN0lLx1LxuDv+JOK1183lwW8Xy0BIBpUGXDuLDRcOwDbMRwabMlOE7hX2MXnWxUBPAghdHoxRkUGpWVoBIldlyXS/uBMyY4Vt+yceccLYvUsxYNt0tN3wjWzb/4bdAPzDpif+bNtNtur/IwcDUm274kWbLnhxRWf8eVln/GVFN/zHti+quwxDy/VfYoDPdHy+fwVmnXCHQ6QvvOMOYW/CSew8H4I1BwMw3WkvPvrWCy36rUaN1g6o2ERAR3NbVORoaYeaHZzF/OSBMRN2wHVTuOzHkpf/bHbWLQ0p6HiOxIWcCz9jJCZNmoTZs2dLWCAUcBHkYslFj5YPLo6MTeBdPcGDgMB4g4ULF8o0UVo3CB4EAloiuB8CCOGCbhhmdtDtYLFk0FXDCZp/ozWE++MdPwGHi+zdcRUWNw+zQswxH+a0VloFLDJlFSDwVCLm2x1Hj5GeqN1xjYAOD3QaugU/zT8C371RuHJNIybukic8oh5l8bcAz6OCj9LTVWlDBxfaNLGwclFdf/6ArPrJu3v+mzUochj0KP7jdoSTk9cvYNNFf9iEbYX1qS2yUmjYjRiZ3fK8iu+flpBrhrSSgNRz2BsfDK+Lh+ES4Yf5geuk1WLYjnkyoLSd93dovOkz1PAYiTdcP8Tf7HrCaml7WM1rCqvp9WD1s6Vtfwv8aXlXvOE0CO96jEH7Ld+h367pGH94CaYGO2HuSXfMOrQO325ci4GzXdBihC1qdLRGpWY2qNLUXsCHGM0cUKeTK7oM3Ywf5hyE986LuHSFfZKejCvueZCCjmdYdy9sBAtOkEzFZP0HujjovmCgIv/GSZOTKi0NHFz4OZnyOYzVoDuEMEHLBq0fhAH+TNeBxWJCNwFdBIxNYMyGpVmZxW3An+muoVuC9Te4Pe/o7xbdDrQIEDQIMxxRUdH/BR2M1zh9/rostjP4q21o3Gu9gI51aDVwM8ZP2Yu1WyIRHZ+qvuBKj02lDR1Ft4ugyzPikjZZAMVFHE2KROiNaFzOvCEbsxE6eOevzzOZM1iunYV39BHYh/tiebAn1pzZLdNoWTX0eReLoZnys6UribEuV3Up0gUVyl4xl0Ow8cJB2Ef4ClhYhx+OOOCTvYvQw2cS3lv3GSo6fYS/Lu8Gq/mtYTVbwMecJrBa0FI2qnvBpiv+5tgbr7gOwJtrPkL1dcPRZPM4vO/9FXps+Qnd101FmyXTUf/Lmajadx4qtVuGKi3sULGxAyo2dUK9zm7oO3orZi4/jj2HL8nMFXXTcX8p6HiGdfeFzQmTJn66KhifQRcILQ6MJSB03C0+3xI4SQsFrRZ8LgGC1g8GOjJegame/DstI9wPrRO0fNAdw79bAIMWFU7QnKxp+aBbhZaVewV0Engsrh6+Hgeh5k7oKCq+LaAiDR5bz+BTARltPtgkoMMdDXusxYdf+GLl6mCcOqv8p0qPT0/D0sEUTi6kzKigC4UWDXOFzTxZeTQ9O1NAyTVp5dh1KUguro4R27EyxAtukbtl/AMX4fIoWkFyCnJlECgLqZ1NiZcBt7vigmQfl+Whnph0xAWjdi1Ery2T0NLjC7zrOgrVXIbgLadBeMWxP/5q3wsv2AkgsekIqxXtYbW0jewd8+eVHcXfe+Bt5w9QYcVwvDF5HF4d+T3e7DVTgMdyVHjPHhXfc0bDLmI++mw7FjudxJHgK7L8udL9paDjORLjBhioSRcL4ypojaAF437QwYXfEihKcOAkywBIWic46XI/tH4wKJXQwawNWkgIB7SAEDoIN7RuEB74d7pM6LphIKqlrsW9ZLGyWKCDr303dBCpkpIz4XeAraUPo8swL9Tq6Irq7Z3QeegGTF92GP6B8cjQZpGgzE9SUnoElTZ0cNGktcPS8ZXDXMyKvyuQFo5EsZiy8+uOSyew4fwBrDm7R7a8ZyCp98Uj0jLCZnHlXTxfTM1Nz8qUVpCY9CRZJZVZMUwxXhW5A4tPbpL1QcbvW4aB22egned3qLt2NN50+RB/tesBq2UdzBYQWkIYkLqsOf5g1x5/sumGP8/vi7/+MAwvD/8Wb/SYgzdbrESFJk5o1HUdPv56J1auCcGJ04lI0yro+C0p6HiOROggRBACmMHCWAwLdDDw0SIGNtICQasIXSgECgs4MICSYEHw4IRL1wpjRGgFIUjwedwfg0gtxa64D8aJ0I3C2A0CBV+PE/i9JmpaWLitJaaDMSEcdLUwwPJOpWWYZB+DJU5BGDB+C2p1cMZbTVfivV6u+GLabnjvuoCk6+yJolwsSo+u0oaO31JhcaGEDlb3ZNdVBo2yHwvjOJgqu1PczQdcPSszPrjYKpnF+YUF1xiU+v/aOw/wqMq0f1/X//qur5dtn/utrq5rR1ZdFAUUaQrqWrCxKuq66FrWgrsWdBV01ZXeQgIhJCGNBAgpEEISkkBCSCO99977JJlkMjOZ8Puf30vmMtJSOXHd5/Y6TpjMTM5Mcs57n+d93ufh9BQ/Q0aCyju0801TKWIqM3CgMAZOaUFYecJNVTV9InClWtkyzf0VXOP0DH6y6VH8x8aF+JctC/Avjvfhn53uwz9tuR///MUj+Pd3XsAPfrsc/zP3M/zorvW4eeFOLHk7AJs843EyqxwtBpGOiyHS8T2C0jF0eoVRCk6vcNqDImGHAzsHe65GYU4GBYJTKZwOsa+q4KoM5nXY62jwcVwmyikWLidlHQtKByMenIphVGPoSZlfX2heczTSYeyxILugCS570vD8O4GqDPEPpq7Btfc44Ldv+MPZJ/VMyWGzZIsL4+e7JB2ceumxmtS0C5fLMtpByWCSaUpdgUqqLOuoR0tvpypDLgwPoyGcymJH3/TGYlXVlQLHhnWskvqXYy54LXQ9nvT/FPP2LMftnq/gJs8XcJXH0/jfXY/gf7Y8jH9f9Tj+9bUX8P8efgP/dM8KXPXAeixe7oMN3jGIzy1Da6dIx8UQ6fgeweRMTo/Y62VwdQlXkjCR1B7pYJSD0x98DKdNuLyWj+VSWy5Z5WoWTpOwjDfzMhgxsXdCZbInxcOe68FICl/HLgsXkoyzGY109PcPoLq+CwFH8vHHTw7j1kU78N9TVuPyOzbjwRd9sW5HApIzalW9DvaBEITx8F2SDk69sK8Je5owqZQlxXnFzukD1u/gklKWGudASkERRgbPP5zCYnSIuSB13S1qCotiF1+do/JB2LCOlWHfP7YdL4evxZOHP8GCgLdxu9cyXLNtKS5b9Tz+7eXf418Xv4NrnvkKT//FCw7+sUgurEB795AO2MI5iHR8T+CBRLFgVIOiweWva9euVREJJoqy1gSnPjjYUy4oEStWrFClvlnmm3LBvikUCrt8UDCY60G5YH4Il8/y+4yecFqFK1r42vby4CM9KY9GOoihy4xjCRX4eE0kZjzmih/+ah1+Om0z5i7xxqfrYxAZx3od3bD2S4EtYXx8l6RD0J8zbfvbVdt+RpZCSxKxJy8STukB+DLRHcuPbcKzBz/DIs8VmL72A/x6xUos/MQBf3YKhF9UKvIq69HdI9VIL4ZIx/cERjAoFqytwakQTomwHDmjGJwmsSeB2quWsnrme++9h9dff13V9GDEg4mhLOrFxzMhlTJBiaF4cAqGRcG4BNdekZQnZeZ5sOjVaIpcjVY6LFabKku8Znsc7nvWCz+7YzN+Nt0Bdz/uheWfHYV/aD5KKlph6pMQszA+RDoEnp8oH6x9UtvVjJL2GmQ1lSCuNhMhZXFwzz2kesX85YgH3t/njS/8D8EjMhGJeeWob+2EWaZ6L4pIx/cEDvo8WTJKQSFgLgbraNiLejEXgytDuEyVYsLKoazjwQJi7JDKuh6cbqF08GRL4aBM8DUZ8eBKFr4uoxtMPOWKE0ZDuCpmpLJhZ7TSQYrKW+Hsk4KnX/fHjfN24Oq7d2D6I5743Z9CsMM7FanZdejqlisMYXyIdAhD4ZQtm9YxKbWnvw8tJgPKumqR0VyMmErtvFiYgZjCfGRW1Cjh4PJ9m02meS+GSMf3AA7ilA4O2IxQsGYGe6qwZDlPnDyB8kRqL8PNx1A8+BiubuHKFN5SJrh8lo/na9lLfvO5zBXhVAoFhlVJmRdCieFjRstYpKO6vlOtVHn948OY8ZgHbpjnglsWuePhZfvxxdZYRJ4sQ0ubdHYUxodIhzAS+mBBu6UbTT3taDYaYOjtUaXP1Z+I5hw8x432YuwfBZGO7wH84+bgz0RSRh64koTTKdwY2eBAzkGeq1t4UrXLB7/HiAaXx3Lj1yylztegbNgZ2muE3+dz+XrnK/o1EsYiHU2tRoTHlGDlhuN48MW9mLrQDddr4jHrCU+8tSoM+0NzUVP/99v0SvhuINIhjBRVY4X/nbZ9O5FXpOOiiHR8D7D/gfOkyG3oH/vFvjdZcB9GKx0dBhOS0qux1T0Jz719ENMe9sBVd2/HTQt24tm3A7DLLw0lFe3qgBeEsTJh0qFdBJxmwz/t9U5rFwOnTdotRZ6RwUk6BjlV0M+OzBabWmJu0jZenVv7eW6YxH0asKnVJGzyxtU4rK3BYmnftdVoFrMFvT29MPWaYLVYL3iusZ9zvwvn2u8iIh3fE/6e/sDHIh09PRbVZ8U7KBtvfBKOuxZ742d3OuLnMxzw0O/2YOPOBGTlN6oltoIwViZEOij32usMGDpha2iCraYWtjrt+e3t6n7tABh8oH7wmKNcsIlia3sv6hq7ta0Lza096DaaYbVqkjQJ+8XKqz2WPrT0GFDV2aRKmdd2t8BgNsIy0P+duYZglJh/FyyCWFVZhZamZvRpAiKMHpEOQXfGIh3MCK+uN+BwdDFWrD6G2U/74LLbt+Int23E7Cd3Y9WGY4hLrkJ3t3kyzunC94QJkQ6bDQNdXejXZMOanQNz0ilYUtPRX16h7qeUjBUeO9yGRi5HIgt8jKmvX0lGUVkrUjLrcSqzThP5FpULxejHSF7nfNj3wb5Po9kvln1nCffC1mpV9Ox4VTpSGgpVR1mT9r3JPpT5Xji9zGllVmxm7aKTcSeRnpauBKSr80wjTWHkiHQIusOT0Wilg2XO2w29OHGqCl86nMSC5/bgsmmb8F9T1mDagzvxzqpQHDpaiHrt6o1LbAVhLEyIdFitsLW2wpJfAFP0cfQGBsN0OAyW9EzY2tp4AAw+cHTwuGEeFfeRxw83fs36O8MN8Px+t9GCyhoD4lOqERhegICwfMRpx1Otdsz0949dOphPxkgA94fL8u37NZIkc06pcFlqYk2u6o/ikR2GkJJ45LdWqe9NpnTw8+D74e+epQOioqJUwj1X/jHpngLCpHzmwI3kdyCcQaRD0B0enKOVDh7PvX0WZOQ1Yot7Mh552Q9X3LVZk47VuHmBE158NxBu+9KRW9ikwsWCMBYmQjqYu9GvPd58KgU9AUHodtuNHt996EtIgq2lZfBRo4fHDZPFmcjNK29uPF7Y62i4fWPORkdnHwpKWxAaXYSde1LVFna8RK0MG09OB4WDK9m4P0xe5y3/zfuHg1VBy9prEVGWjO2pQdiY5Kf6y2Q1lakuu5MJRYLvh79/rgRkyQDWKGJhRVZk5qo/lg7gSj6Kx1hW8v0jItIh6M5YpIMwCa6ksh27/TPx/PIA3DjPET++bT1unOukmsGt3RGP2KQKtdJFrjmEsTAh0qG9Rn9lJfpi42Dc44duZxftdi/MScmwtbcPPmps8MqbAyFr5LAwHwd43jfcVTaloq3DhOzCRgSG5YEJ2Q7aFhJVhJqG8a364mfG/eA+8XPj7cU6TA+lo68beS3lCC48gU1J+7AmwQc+mnTkNJePup8MPwNGgig7lDOeYy60UdS4fxSL88kCf9f2Cs+MarA4ImsUBQcHK/HYtWuXqtJM8WApAdZBGsn7FUQ6hElgrNLB8yrLnQdHFOKdz45g5mJ3XDlzG26Y54z7ntuDD1dHISg8X7XDlz4swliYEOnQBjRrcTFMR6Ng9PaFcbcneg8ehiU7BwPd42sGxuODnaTZT4nHDvMKGFUYbt84PcncjYy8BgQcyYOj5ynVLPHoiVI0tIyvVwiPZe4H94kDMG/tXacvBs8D7CeT2lCI/fnR2HpqP7alHMDB4pMo7ahTnWJHA4WDP3NoOQDKwNDNXhqA5x7+nikWlJSzpY0ywt85f/+MbFAw2J+KzS55Hyszs6EmW0RQRFhAkaUIhOER6RB0Z6zSQTo6TTieUIG/bonBb17aiyn3ueKG+a6Y+YQX/rDiMHbvT0dBSbM6yQrCaJkQ6TAaYc3JhSkkFD2adPTuP6CiHv0VlWdWr4wQHif8mfardw5qDOVz4GOFYO4bKxCzOSOPGz7GfuV+9iDKVV0NzUakZNchUBNz933p8DuYg8S0GrQZTIOPGp6h+8QES35e/Gy4H9wnRgV4S/Hg/UOjCXze6SExSF4YcKXKieos+ORGYHtaILyywxFbnYkGY9vgo0YO94efA8WCxQx5bmGkYuiWkZGh7s/Ly1ORIkZkeC46+/NipIQRG06psI8V20nwHMXPn6/NwooUDn6PfauY39E+zijWPwoiHYLujEc6ekxWpGbXY9vuZCxdfhB3POqNGxa449YHd+PpNwKwxU270sqtl+ZvwpiYEOno6oYlNQ29/gEwenijN/gQLGnpsDU2nanTMUI4sHMagIMZp1Q42MXExKiGjhzo2HSRgzyPHV5pc7BlbyUeW3zu0IHUamW35k6cTKnCgSN52BOcjdBjxcgpbIKx55tCgMNBeeCAzOgKB2xGNPj5cD+Y58D2C7xlc0jez+8PjSgM/QwpHWwxH16WDNfMEOxIC4Z/QQzSGovUtMto4evz/TMSRAminLGCMje16kS7ZQ4Gv+a+8XzDqAf3beh+8XPjlBW/zz5WX3/9tepVxUrP7G/FKApfgxEQto9wcnJSfyf8njA8Ih2C7oxHOswWGwpKWuAVkIU/fhqB2U/vxQ3z3XH9XBcsen4PvthyXDuxVkrzN2FMTIR0DHQY0BefCKOPH7rdPNEbGgZrXj4G2rQr4VFIB6/cObhzWoBSwUaMDOs7OjqqwY69k3i1zft45c2BllfilJSzpwy45Ly4og1HY0tVOwGKB1eClVd1aCL/jXTwPTJKyOcOfb4dRi04SPPz4ODOz4YNITn9wH1ik0neckDmdARbJtgjChzIh+ZP2E4PoKitBkFFJ+CUGqik41BxPHJbymEwfyMd3CcWEGPVT7VfF8jY4u+OuSX83VE4+Hnx98eN7R14yxUo/JoCwqgHpYhJoN+SIe1rRpV4bmKXbr4nikVycrL6bCk2FBB+j++Vvw+RjpEj0iHoznikg8mkVbUdOHi0EB+vO477n9+H6zThuOKubZj5mCve+yIMYceL0W4wnfekKQgXY9zSof3J2VpaYYo5oaIc3e5eMEVGo7+sHANd3WeKhmm3A9pjbE3NSlBO95l52T/4At8wdLqAUwORkZHqypuNGXn1zU7SHAx5Hwd+DopcwsmchrOlo6fXqornBYblwzswC4eji5BV0KimXAxdfep44ddVdQa1rLahqVu736Qqlg49jKyDIsTIS1FRkRp8GeVgfgP3adWqVeqW0xGMdrDHE/eJMsCB3DYkAsnCYLktFdiXFw2HUwewKyMER8tTUNhWhebeDnT0dalplkpDA8o76tXS2nZTl6pYer6cLUZg7OcUCgdXnFB8uB05ckTdhoSEqFvKh/3z4md8IelgROnzzz9XHbgpMhQLChRzVygdGzZsUFEQ/jyRjpEh0iHoznikg1n4za1GxCZVqtUqj73sj+vmbFerWKYucMLL7wfBLzgblbUGFVIWhNEwXuk4rV3J99fVa6JxTAkHE0n74uLRX1uH072aCHd1ob+yCpb0dJi1AdlaUARbWztOW8/tY8SoAgc/7g8jGNwPDuScvuAgyCtsdoXmQMord06/cD8ZieBzh2Lo7ENCWjW8DmSqvKeok2Uor+5QstHYYkRhWSsS02vU/ZEnSpGoPba4vE173rflvV97XUYsOMDy+OXP5LHr5+eHbdu2qSt/3vLf/PwoJhQOHtcsHz4wJNeK8pDeWAyf7AhNOvxVPkdcdRZK22tR09WEIk0+EmpzEVaWhMMlCYipykCeJiktmpD0D5z7eVE6KEOM+FDQ+FkxyZMbxYi39saW4eHhaoqE0RpGL4b+bvl+Oa3FvA8K3ZdffqlEj1Nb9l5VfM+c3uLvQXI6RodIh6A745EOnv+6us3IzG+Ci28alr4TiJvmO+GHv1qDa+7Ziqde34/tXinILmzSru4mv6Kh8PfFuKRD++OkWFhLStEbcgTdLu7o8eFS2VMq+nHabMGAwQBLbh5M4RHoPRSCvpMJ6K+uPRPtOOuPlVMRjFjwWLFHPBhZ4ODJwZDLOHkFzyt2Jj1yvykpZ3InvokoUNQZueBKle1ep+CyJwUxCRVoaO6GUTtGuHolM78RYTEl8D2YA6+ATARHFKiKpY3aY4bW8BgY3CcOypQPTjVwcGbyqI+Pj5ru4S3/TSGhnHD/+bmyX8npwdfiVEmbqVNJhkvaIbVc1jc3Ein1hSqiUatJR2ZjiSYb8XDLPIztaUHYk3MUsVWZKvJhtp2bh2KfXuF5hBLGaAblg5v9a05D8ZbnG3sS7tnTK4Tvkd/jZ71p0yYlF4wmcUqGU0aMllD4KBx8DM9jlD1heEQ6BN0Zj3QQ5nVU1naqeek3Pz2MaQ8640e3rsOVM7fiwd/txWqneJxMqUZbR6924hbtEEbOeKSDDd6Yt2HOyETPXn90OTqr1SuWlDRNNrQBSRuwTxt7YM3RpOPQYfTs24++qGOwllZo9/fSDgZf6Qw8Tige9pUiHBw5kHOfgoKC1BU7EyMZTeDgrgZ2bR/4HHt0grds7lZa2a6mVjbsjIejR5JaAcbjg/1YOo1mlFS2ISapQnVr9jyQgQPabUJqtarwO1Q6hu4TN/5MXv1zuoH7RBHiIMx/M+rA7/Px3FSUQ3sprmFh+fPKzgYlFRsTtWM23luTjihkN5fB0NeNDlMXituqVdGwXelnpMQl/SDCSzXBaqvRnn9u4TC+d079cH/4mfB8wtLl3OxfMzeGt/wcKRX8XVOg7J+XHe4vhYqfLyManEJhfQ5Glfj+GMnhe+XvgCLIvBu+V2F4RDoE3eEBPh7p4HwuCx1Fx5dj5fpozH3aA5ffuQVXznLCvGf98PHaGBw5VoyaOu2qUhMUQRgp45IODrANjTAnn0KP715073BBryYf1owsnGZzMA5s1n5Yi0tgCotQq1v6IqO1f5eeyfc4z4orHiv2jeLBaAcHdF6x8+qdS1M5yPJ44v6dO3gOqAq9TL4+EJqPza6J2OmTghNJlapzMx/PZm/NbT3ILmhU0ysHjxYgIqYEaTl1aGr5dqSD2PfH/jU/L+acMLrBAZm3PK45aH/rMxt8GSaQdpl7UaRJRWBhLNYn+mFtgq9aucLEUnactWhbo7ENSXV52KvJiFNKoJKP0OJEFAyWSD8b/ix+RvwsKB+c7mB+Czd+PfTfPM8wMsEpGcrT2fB9UUYoL4yMUDIY2bBHNxhponDwd0F54WtRVIThEekQdIcH9Hikg7Atd1pOPTa6xOPRZXtx7b078IvZO3H3k754c9VR+AbnoLBUu4qRVSzCKJgI6bCkZ8AUwkiGP/rCj6JfkwzV1n4Q1uvoOxqlpIMFxKyFxaoj7enzDH5D4c/nvvE44dU194s5CYxycLA9H5SOzq4+1eQtPLYUPkHZKuKRntug7mf9DkZCKB0skZ6UXoMTyRU4lVmLkopWJSZnS8fZMALD6R1O8/A4tido8v7zcUY6elCsCUZYaZKaPnHLDEVkRarqNMvushSPJmMH0huKVbVSl7SDcE4LRmBBLLKaStTzL4ZdjOybnQvdfz4oERSUwsJC9bdwdoSDiaXMtRHhGB0iHYLu8GAfr3TwRFhc3gpXvzQ8vzwItz7ghmvmuuKOR33w/J9C4OR1CilZtegySshTGDnjkQ5t5MdAe4daqWJOSYU5PhFW7e97QBMR7cmDD9Kko7wCJk1Gevz2w3QkHJa8fNi053F6Zjg4wDGUT9ngwM79utigpyIdPWZVo4PVSONTq5WsV9d1qvoczHtiYjaX06Zl1yMxtUYJR2Fpq8r54PeHkw5GBFi7guLB/A7uG//N+88H8zl6rH2o62pVUhFdkYbjlRmq9Hlzr0H7nlmtUilrr0NibR6Ci2LV1IpTagD25kUhpb5gTHU8xoJ9WovRDP4dMJmUmz0fhBEVEY7RIdIh6M5ESAfhiXT/4Vy8tTIM9zzpjRsXuOGWB3bj4Zf98eXWWESdLEVr+8WviARhKOOSDnZqNZlUXgdXq/RXVcPW2KgqlCq05582m2EtKDyT0+G1B70HQ2DJzFKN4IZGQy4EpwN4jHAfOX3BAZH3XWjfKB0msxXtnX1KIthRtqm1RxMO9iexoq29F8VlrSp/I/JEGaLiypCUVoMSTUKY88H6HsNJBwdmig/3h4mc3Df++0LRFx7/nD7p6utFfXcryjrqUWHQntfTgW5LLwx9PajubEJGY4kmJKk4UHBcFQ/blXFITcdkNBZrjxlf6fbRwvMV/wYY2aBs2JcAn29qRrg4Ih2C7kyUdDS3GRERU4qVG4/joZf2YepCN1w/j1Msnlj+eZhKNK3RxOTip0xB+IZxSQcHZ4qHJhbsv8I8DlX2nAOT9i3eP9DWBrOqVhoI424v9B4Igjk5RS2zHUmJdA5yXFlB0eC+cmDnfReaKqAwMFm0z9Kv5INTKRbrmZLkTMjm6pSM3HqEx5TgQGgegsMLcCy+AnlFzWjW5KSv78LSwZ/JjVf63A/uD6Mb3Df+2x4BOGfftH8y2mG1aftkNcNoManIBxu8WbT7KBSsy5FUm4cjpYmq5T2bwPlr8sHVK6Udteix6B/B5PujaHDVzpkVQsP8PQjnRaRD0J2Jkg72YeEc9Fa3JDz7diB+/ZArrpq1DTff74ylywPh4puqwsT9soJFGCHjkg7CAZYbH8tNDbhqlMWAJiE2TS4oGYxwcIWL6VAozKdSz9Tx0Abr4bAP9NwXbvZ/Xwz1+MHHDX0oZaSpxYis/Aa1nDYgLB9BEQWIjCtT97G5Yq/J+q3nDMX+s4duZ++XfTsf6vFDNvu/jeZe1HQ2Ia2hCJHlKQgpidfkIwkna3JQ1F6DVlOXKiymN9w/ipT9/QljQ6RD0B0esBMhHezDUljagj1B2fjjJ6G481FXXHb7Rlx+5yY88II31u44qfq08OpOEEbCuKXjQlA6ek2q/4o1vwDmxGRVNMyiCQgTSW3NLSoSoieMYLD4V3l1u8rziDtVhbiUKqRk1aGkvFV1peWxc6HxlcfxcIPvSB5zNuZ+C1p7O1VOB6dSTtUXILOpFOWGBrT3dcNsk+P57xmRDkF3Jko6eKXGeeqI2FL8ZW00Zj/pjh/ftg4/mLoGsxbvwsdronA8sVKVeRaEkXDJpIODr8WqWtsPtLbCpr0eox5c7cIcELWkVueERLoApYLHB6uS1jR0qq1eO6ZYqZSl09l2QG9sAzZVrZTTLE3GdjRoW0uvAd0WE6wDmgTJhOnfNSIdgu5MlHTwpMnM/JTMOqzbEY9Fz3vhsmnr8Z83fo3bFu3Am5+GIjiiUDuRdqmlgYIwHJdMOgj/YDmI83W48d/c7F9PEmoXtP/x/dnUxq8ZoRh8wCTBH8/cDy6xVRGTM3cLf+eIdAi6M1HSQSgTrEHgsicVT722F1fN3Iz/mbIGNy/YjhffDYL7/gzkFjWrcs+CMBxnSwcLcE2YdAiCINIh6M9ESgevfmoburAvJAd/+OAgblnojP+7fROmLHDGE6/6Y71zAk4kV6niR/y5gnAx7NLBehNDpYN1J0Q6BGH8iHQIujOR0kHaDL2IiC3Biq8jMWeJJ66d7YQpC1xw/1Jf7b5olZHPrrMiHcJwUDrYupzSwb9JlsBme3aJdAjCxCDSIejOREsHp07Yinu980kV3bhlkRtumr8LMxZ74ZUPQ+C+P12VeB6uyJEg2CMdbAjGTqXHjh1T1Scl0iEIE4NIh6A7Ey0dZks/coqaVP7GHz4KxawnfHDDfFdMvd9NScimXQlqSaDVKoOGcHFY1Ip/g5WVlepvk8LB3hvsbyLSIQjjR6RD0J2Jlo5+mw0VNe0IjijAijXHcd/S/bhhnhuuvscZC57xxmebjiPuVKUq+zyR8H3IlM33CxZ/YlVNdiTllAo7uHK6hX+v8rsWhPEj0iHozkRLB69AG1u7EZNYgdXbE/HoK0GadLji/6Y74M5HXPHu52EIPVakekmMF447HHrswiED0fcL/j7592S1WlWpa25DS3oLgjA+RDoE3Zlo6eDrdXb3qXbd273SsOTNYFw/1xk/vGUDpsx3xO/fC8Ke4CxU1HSogmIjhc2yWDypq9usiiVx69S+NvVZ0c8eGyIdgiAIo0KkQ9CdiZYOQjkoKW+Dd2A2XnrvEKYs2I7/vnk1rp61GU++6odtHkmalNSjy8hGTSMTBeaKcKltsfa6mfmNyCpoQllV+5ny0Jp4CIIgCKNDpEPQnUshHYxKsEHVoaOFeGfVEUx7yBk/umUNfn7XZix63ht/3RKDqJPlqmw6oxQjgc2uistbcfREGfaF5CIwogCJaTWoqjWgR4qNCYIgjBqRDkF3LoV0MNGCUx+xSRVYtSEac5fsxuXTN+HKGQ6Y87QX/vRFJA6E5qO0sm3EDeAoFmx+5eqXhq+2xWKrexLCYkrUa0iFU0EQhNEj0iHoziWRDg2zxYaM3Hpsdk3A4j/sxQ3znPHL2c6YudgbL394BK6+6cjMa4CxZ2TCwMedSK7E2u1xWP55mCYeJxB6rFjlhvTK9IogCMKoEekQdOdSSQdTNTgd4r4vDS+9dxC3P+yB6+e5abfeKrl0485EJKRUo3OEXWeZ/3E8oQJ/2xarpGO9czxikirR3NoDs1VWMwiCIIwWkQ5Bdy6VdJDqegMOhOZqkhCOOUt8MeX+3Zi6yBMP/m4fVq4/hqMxJWht6xl89IWhwLR1mHAsvkIVF/t803F4+Geq5nFcvSLVTQVBEEaPSIegO5dSOppaulUfls82xeA3L+3XhGM3rp3jgpmPe+CtT0OxPyQXNXWdah8uBL9ltg6gtrEbkXFlcPI8ha1uSTgcVYw67T5BEARhbIh0CLpzKaWjo9OEpLRqbNEk4Zm3AnHrA6644i4H3DTfCc+86Q9nnxTkF7fAYrnw9Iht4LSaWikqa0NIVBG2e53CTp9UFfVg9EMQBEEYGyIdgu5cSungipOCkmZ4B2ThtY9DMP3hXbhs2gZccecmtXT2a6c4teyVBb8uhMVqQ2OLUa1cYct8R49kuO9Lx8mUKhg0qSF8D5QTLtW12U5j4CKRE0EQBOEMIh2C7lxK6WAEo76xC0eOFeOj1Ucx+0k3/O+v1+HHt67DrMfdsWJNNCJOlKG51XjBvAwuqS2v7lCRDQ//DDh6JmNPUDZSsutU5VOrJiXdRjOaNDGpbehS9UEYAeGKFsn1EARBuDAiHYLuXErp4KDPqZHkjFqs33ESD73oo+p1/PBX6zHtITe8uTIcB44UoLKmQ1UcPR89Jivyippx8GghXPakYodPCoLCC5Fb1KSkw9hj1mSjE5l5jUhIrVE/K6+4GXWa7PT0WlXkQxAEQTgXkQ5Bdy6ldBD2Vykua1VFvZ75oz+une2IH9+2GbcscsNL7x2G+/5M5BQ2oVuTh/PRZbQgJbMOPkHZ2LY7SXuddETElqG4ok31X2lr70FhaQtiEisRGlWsancwKpKaXY+KGgMMXX0iHoIgCOdBpEPQnUstHaSx2YiA0Dy8uuIQbl3kgp/duQ033++Gp94IwsZdSSo/o0WTh/NBaYhNqoSzTyo27IxXUywnkqvUlEtTqxH1TV0q6sGutqHRRTgYUYDAsHwciizSXrdaicdIq54KgiD8IyHSIeiOHtLBAmBHT5Tiw6+P4t6nPXHNvc6YoknHAy/uwyfrjqtVKdUXWDrb0taLiNhSbHZNxGqnOHgdyFTJp5W1BiUdjc3dqvFbek49YgfFY+/BHBUZCY0uQV5xi5qiEQRBEL6NSIegO3pIB5u1JaZVY40mDY+9sh+/WuSGGxe4YtbjXnj1o8Pw9M9AUWnrOatOuBqlpr4LwREFSji+2BqjPTZT5W3UNHSpJbnMGeEtG79xhQuTVv2Cs7H3UI6q68GutCwgJgiCIHwbkQ5Bd/SQDiaJZhc0YpdvKpZ9EIIZi71w/TwXTL3fBU+8uh+bXBKQnl0P61kdZ7n6hdMoQZp0bNAes3bHSfgG5yAtp0Eto2VLez6HK1i4AiY1uw6Ho4pwIDRPRUey8hvVqhZ+XxAEQfg2Ih2C7ughHRSD8qp2BIbn48Ovo7HgWT9ce68zrpy5DXOf9sDK9VE4kVhxTot6SkdVXSeOJ5RjT3A2fAKzVWt7FgpjrgdlgktjmVDKPi/RCRUICi/A4ehipGbVq3wPk8l63mkbQRCEf3REOgTd0UM6uHSWEQcmhK7ZnoCHl/njl/dsx49u3YjbHnDGW58eRkhkIVrO6sPS3z+Ato5eFGlCkZpTh9TsBu3rNrS296rkUE6bsDZHWna9mlbxPZiDfSG5iIorR0Fpy+DKlYHBVxMEQRCGItIh6I4e0kFYwCuroBE7fdKw5I9BuHb2dvzXlLW4fs42vPhuALwDMlFW1YH+IZLAAAVb5Hf1mNHRZUJnt1klhVJGKBMG7b7M/EYEhOVjh1cKHD1PqekXLp9lLkdHZ59asisIgiCci0iHoDt6SQenQipqOuB3MBfL3j+Em+Ztx3/cuBpXzdiMxa/4qSZurK3Beh0jqSRKOWH0hAXBuKKFeSFb3ZPgdyhXSQc70HKprlQmFQRBOD8iHYLu6CUd/DmUBCZ6Lv8sDLc/tBM/mLpW9WG5f6m36kR7NK5MlTFnv5XhYHIqH3sqs07lcbB+h1dAlqrPwToeWXmNakULoyMyxSIIgnAuIh2C7uglHYQCcCKpAp9tPIb5v/XQhGMzrpzpgLuf9MTbq8JVFKSwrHXYJa6MXDCngzkgTCqleDBfhFtyZq2aciksbUVtfacqlc7pGEEQBOHbiHQIuqOndDA/IyO3HlvdEvDUa/tw0/wd+OXsHbjjEQ88/+5BlZPBWhsXKol+htNKOjhdw9UuTDRlxKNaEwxu7LnS0GxEc2sPDJ19SmAY6eD7FARBEL5BpEPQHT2lY2AAammr14EMvPZRCGYu9sQN891wywMeeGSZP750iFXLY9sNvYPPOBfuLzeKBzcKBSMZql6H2s78255satN+qP05giAIwjeIdAi6o6d0EHaEPRRZgI/XRmPRC/swdSHFwx1zlvjgz19G4NDRQlXa/EKMTSBEOgRBEM5GpEPQHb2lo7mtRzVnW7cjAU++HoTbHvTCL+9xUa3uX/7gEHwCs1BR3U5PEARBEC4hIh2C7ugtHSzYlZZTj52+6fjde4dx+288cPmdjrh+jhOefG0fHD2SVMn0kaxgEQRBEMaOSIegO3pLB5u/sXDX3pA8vLkyHHc96o7Lpm3C5dM34r7nPPGVQwziTlWpzrRSX0MQBOHSIdIh6I7e0sEIBlebhMeW4S9rozHn6d346bT1+Mlt6zBzsSve/+ooQiKLVHlzadQmCIJw6RDpEHRHb+mwDZxGl9GCU1l12OAcj9+85IMr79qEH9+2AdMedMWrH4XCOzBb1dnoPasBnCAIgjBxiHQIuqO3dHDChMtZiyta4bY3DUvfPoAb5znhp3c44JZF7lj6ziE4eqSoeh0dBtOZJwmCIAgTjkiHoDt6S4cdLosNOJKHP35yGNMfdsNVs5wxdaEHFv8hEH9zOInok2VouMjSWUEQBGF8iHQIujNZ0mHoNOFobCk+Wh2Feb/1wfVzd2HKfbtx33P78P5XUQgMy1cN4rh/giAIwsQj0iHozmRJh7HHjPiUKqx2OonFr+xXUys3zHfFXY954vfvH1JTL3nFzei3STKpIAjCpUCkQ9CdyZKOPrMVmXkN2LknFb9/75CSjevm7MRN853xyDI/rNtxEskZtcM2fxMEQRDGhkiHoDuTJR1cOlta2YYDR/Lx/pdHMe8ZH/xythOuuGsL7n7CDStWRyIqrgwdnX2DzxAEQRAmEpEOQXcmSzrYjK2pxYjjiZX42jEOD7/kh6vv3oofTF2Dmxc44dWPQhAYVqBqekhahyAIwsQj0iHozmRJB3+usceCrPwmOHunYMkb/vilJh3/dv3f8IuZW/Ds2wHw8M9EaVW7WmIrCIIgTCwiHYLuTJZ0EMpEVa0B+w7l4pUPDuKmeY749xu+xuXTN+PRl/fBYXcyMvIa0GuSImGCIAgTjUiHoDuTKR2k3WBCRGwJ/vxFOO74jQt+8Kt1mnRsxf1LffHF1hOISapAR+dFioTJ3IsgCMKYEOkQdGeypYOrU5LSa/DVtlgsXOqNK2c64KpZjrj3KW8s/zwC+w/nqoRTi7V/8BnaPvO/AW2jcIh0CIIgjAmRDkF3Jls6SElFK1z90vDCu0G47YFduG6OM6Y/4oHn3gnCRpcERMaVoqi8BZW1BpRXd2i3HWhp64HZrImISIcgCMKYEOkQdEcv6eDPUZEJ1X3l27DcOSuQ/umLCMxZ4o0p9+3C1IWuWLh0D978NBSbXRPgG5ylcj98g7NxMLJQ1fhg+3tBEARhbIh0CLqjt3RwGxg4jX7bgKrV0WfuV9Mn7MPy4epILHrBVxOOXbh+rjPu+I0rHn5pD5a9H4x3Pw/Hu38Nx5+/DMc653hEnihV0Q5BEARhbIh0CLqjt3SwPgfzONoNvaiu60R+cTMi48rg5Jmsohr3PeeDqfe74Op7HHHDXCfc/pAL7nliNxY866OE5InX9qt+LSFRhWhuFekQBEEYKyIdgu7oJR12uEy2s7sP5dXtOHmqGnsP5mC9czzeWXUET722DzMXu+Omedvxi1kOuHrWVlw72xHX3rsdUxa4YPoju/HIy/uwcv0xHD1RivaO3jMvKgiCIIwakQ5Bd/SWDkY6DJ19yC5s0oQjF5+si8JzbwVg4fM+uPvx3bhl4U5cd6+jJh1bcNWMzfj5nVvw09u34sqZ2/Hrh9zx9BsBSlLYLK5LkxdBEARhbIh0CLqjt3Qwn0NVIi1owi7fNCx7Lxj3POGBXy3cBUYzrpuzA9fc44CrZ27WpGMTrpi+GT+5TZOPGU6qKdwrHxyGq186svIb0NMrRcMEQRDGikiHoDt6SwexWGwoqWiHb3AO3lp5BPN+yxUrLrhmtjOumskoB6dWNqvt53duwv/+ehN+cbejagr3wVdRaqVLWWW7SkIVBEEQxoZIh6A7kyEdjHY0t/UgIa0GTl4peOXDENzzlJeKclx+pwN+PmOryue4etYWXDF9E35823rtawc88MIe/HVzLKJPlqOhqRtW6ckiCIIwZkQ6BN2ZDOlgqQ6zxabEIzmrDjt90/DKihDc/cRuXHOvE66atU1tv9DE43JKx63rVDO4R5b5qnwOVjBl+XSbJi+CIAjC2BDpEHRnUqRjCIZuM1Kz67DDOwXLPjiIWY+747o5TrjiLgdt06RDJZJuwI1zt2HJG/ux3esUsgoaYey1qHLogiAIwtgQ6RB0Z7Klg9rQ0t6rplq2eSTjxXeDMP3hXbhyhsPgVMs2Nd3y6wedVZEwzwOZKC5vU5ESQRAEYeyIdAi6M9nSQVidtKm1ByeSq7BhZzyWvOGPWxfuxFUzt+EKTTp+MWsbZj3uhuWfhyEgLB/V9Z1q6a0gCIIwdkQ6BN35LkgHYX5GfVM3Ik+U4W8OsXhs2V5Mmb8DP5u+FVfO2Ip5v/XEJ+uiEcHy5+09ar8FQRCEsSPSIejOd0U6CKdMKmsMCI0uwl/WRuO+Z7xw3b3bcN1sBzz0uz342jEOcSwKZjQPPkMQBEEYKyIdgu7YpaO2thYZGRk4fvy42nJyctDe3j74KP1g7Q2WSPc7mIM3PzmMeUs8MOPRXXjmTX9scU9CSnad1OcQBEGYAEQ6BN2hdBiNRtTU1CjpOHbsmNqys7MnRTpIr8mK1Ox6taKFxcOWvh2A5Z+FwW1fOnIKm1QOiCAIgjA+RDoE3bFLByMdnF6JiYlR0yt5eXm6T68MpbHFiLiUangcyMSGnQlw3J2MkKgilFW1q+JigiAIwvgQ6RB0xz690tDQgPz8fCQmJiIpKQlFRUUwGAyDj9Ifs9WG+uZuZOY3IiaxEscTKtXXLCgmCIIgjB+RDkF3KB0mkwnNzc0oKSlBeno6MjMzUV5ejq6ursFHTQ6WfptKGm1sNqK2oQvNrT1q6kUQBEEYPyIdgu7YpaO1tRUVFRUqgZQrV6qrq9W0y3cFm+00rNYBKX0uCIIwIQD/H10pnRk1ginKAAAAAElFTkSuQmCC;" parent="1" vertex="1">
          <mxGeometry x="640" y="482.5" width="221" height="113.56" as="geometry" />
        </mxCell>
        <mxCell id="hOqm7g29kyDBXYdpewjI-5" value="graph 2" style="text;html=1;align=center;verticalAlign=middle;whiteSpace=wrap;rounded=0;" parent="1" vertex="1">
          <mxGeometry x="990" y="427.5" width="60" height="30" as="geometry" />
        </mxCell>
        <mxCell id="L41aqmmoOUWeQCu7DALC-1" value="" style="whiteSpace=wrap;html=1;aspect=fixed;" parent="1" vertex="1">
          <mxGeometry x="980" y="479.28" width="90" height="90" as="geometry" />
        </mxCell>
        <mxCell id="L41aqmmoOUWeQCu7DALC-2" value="current" style="text;html=1;align=center;verticalAlign=middle;whiteSpace=wrap;rounded=0;" parent="1" vertex="1">
          <mxGeometry x="910" y="504.28" width="60" height="30" as="geometry" />
        </mxCell>
        <mxCell id="L41aqmmoOUWeQCu7DALC-3" value="time" style="text;html=1;align=center;verticalAlign=middle;whiteSpace=wrap;rounded=0;" parent="1" vertex="1">
          <mxGeometry x="995" y="579.28" width="60" height="30" as="geometry" />
        </mxCell>
        <mxCell id="L41aqmmoOUWeQCu7DALC-6" value="UART" style="rounded=0;whiteSpace=wrap;html=1;" parent="1" vertex="1">
          <mxGeometry x="497.5" y="20" width="85" height="30" as="geometry" />
        </mxCell>
        <mxCell id="YP-zsm4jD7i2KWkznkK3-5" value="&lt;font color=&quot;#ff0000&quot;&gt;I1/I2/I3&lt;/font&gt;" style="text;html=1;align=center;verticalAlign=middle;whiteSpace=wrap;rounded=0;" parent="1" vertex="1">
          <mxGeometry x="910" y="525" width="60" height="30" as="geometry" />
        </mxCell>
      </root>
    </mxGraphModel>
  </diagram>
</mxfile>
